<svg class="main-svg" xmlns="http://www.w3.org/2000/svg" xmlns:xlink="http://www.w3.org/1999/xlink" width="1080" height="540" style="" viewBox="0 0 1080 540"><rect x="0" y="0" width="1080" height="540" style="fill: rgb(255, 255, 255); fill-opacity: 1;"/><defs id="defs-55ada4"><g class="clips"><clipPath id="clip55ada4xyplot" class="plotclip"><rect width="920" height="306"/></clipPath><clipPath id="clip55ada4x2yplot" class="plotclip"><rect width="920" height="306"/></clipPath><clipPath class="axesclip" id="clip55ada4x"><rect x="80" y="0" width="920" height="540"/></clipPath><clipPath class="axesclip" id="clip55ada4y"><rect x="0" y="100" width="1080" height="306"/></clipPath><clipPath class="axesclip" id="clip55ada4xy"><rect x="80" y="100" width="920" height="306"/></clipPath><clipPath class="axesclip" id="clip55ada4x2"><rect x="80" y="0" width="920" height="540"/></clipPath><clipPath class="axesclip" id="clip55ada4x2y"><rect x="80" y="100" width="920" height="306"/></clipPath></g><g class="gradients"/><g class="patterns"/></defs><g class="bglayer"/><g class="layer-below"><g class="imagelayer"/><g class="shapelayer"/></g><g class="cartesianlayer"><g class="subplot xy"><g class="layer-subplot"><g class="shapelayer"/><g class="imagelayer"/></g><g class="minor-gridlayer"><g class="x"/><g class="y"/><g class="x2"/></g><g class="gridlayer"><g class="x"><path class="xgrid crisp" transform="translate(271.66999999999996,0)" d="M0,100v306" style="stroke: rgb(211, 211, 211); stroke-opacity: 1; stroke-width: 1px;"/><path class="xgrid crisp" transform="translate(463.33,0)" d="M0,100v306" style="stroke: rgb(211, 211, 211); stroke-opacity: 1; stroke-width: 1px;"/><path class="xgrid crisp" transform="translate(655,0)" d="M0,100v306" style="stroke: rgb(211, 211, 211); stroke-opacity: 1; stroke-width: 1px;"/><path class="xgrid crisp" transform="translate(846.67,0)" d="M0,100v306" style="stroke: rgb(211, 211, 211); stroke-opacity: 1; stroke-width: 1px;"/></g><g class="y"><path class="ygrid crisp" transform="translate(0,358.19)" d="M80,0h920" style="stroke: rgb(235, 240, 248); stroke-opacity: 1; stroke-width: 1px;"/><path class="ygrid crisp" transform="translate(0,310.38)" d="M80,0h920" style="stroke: rgb(235, 240, 248); stroke-opacity: 1; stroke-width: 1px;"/><path class="ygrid crisp" transform="translate(0,262.56)" d="M80,0h920" style="stroke: rgb(235, 240, 248); stroke-opacity: 1; stroke-width: 1px;"/><path class="ygrid crisp" transform="translate(0,214.75)" d="M80,0h920" style="stroke: rgb(235, 240, 248); stroke-opacity: 1; stroke-width: 1px;"/><path class="ygrid crisp" transform="translate(0,166.94)" d="M80,0h920" style="stroke: rgb(235, 240, 248); stroke-opacity: 1; stroke-width: 1px;"/><path class="ygrid crisp" transform="translate(0,119.13)" d="M80,0h920" style="stroke: rgb(235, 240, 248); stroke-opacity: 1; stroke-width: 1px;"/></g><g class="x2"><path class="x2grid crisp" transform="translate(271.66999999999996,0)" d="M0,100v306" style="stroke: rgb(235, 240, 248); stroke-opacity: 1; stroke-width: 1px;"/><path class="x2grid crisp" transform="translate(463.33,0)" d="M0,100v306" style="stroke: rgb(235, 240, 248); stroke-opacity: 1; stroke-width: 1px;"/><path class="x2grid crisp" transform="translate(655,0)" d="M0,100v306" style="stroke: rgb(235, 240, 248); stroke-opacity: 1; stroke-width: 1px;"/><path class="x2grid crisp" transform="translate(846.67,0)" d="M0,100v306" style="stroke: rgb(235, 240, 248); stroke-opacity: 1; stroke-width: 1px;"/></g></g><g class="zerolinelayer"><path class="xzl zl crisp" transform="translate(80,0)" d="M0,100v306" style="stroke: rgb(235, 240, 248); stroke-opacity: 1; stroke-width: 2px;"/><path class="x2zl zl crisp" transform="translate(80,0)" d="M0,100v306" style="stroke: rgb(235, 240, 248); stroke-opacity: 1; stroke-width: 2px;"/></g><g class="layer-between"><g class="shapelayer"/><g class="imagelayer"/></g><path class="xlines-below"/><path class="ylines-below"/><g class="overlines-below"><path class="x2y-x"/><path class="x2y-y"/></g><g class="xaxislayer-below"/><g class="yaxislayer-below"/><g class="overaxes-below"><g class="x2y-x"/><g class="x2y-y"/></g><g class="overplot"><g class="xy" transform="translate(80,100)" clip-path="url(#clip55ada4xyplot)"><g class="scatterlayer mlayer"><g class="trace scatter traced3854f" style="stroke-miterlimit: 2; opacity: 1;"><g class="fills"/><g class="errorbars"/><g class="lines"><path class="js-line" d="M0.84,404.85L1.23,400.44L-0.56,401.49L-0.72,401.5L-1.37,401.56L3.23,402.22L2.24,402.07L2.22,402.1L0.71,401.16L1.22,399.01L1.22,398.95L2.04,396.37L1.57,398.99L1.62,399.02L-0.33,400.47L1.31,397.89L1.31,397.44L0.65,349.73L0.71,349.4L1.48,337.72L1.47,337.24L1.73,310.12L1.08,311.1L1.05,311.18L1.88,311.09L1.54,313.03L1.54,313.15L1.17,315.43L1.07,315.43L0.97,315.41L0.03,314.1L-0.04,313.81L-0.08,309.87L-0.01,309.32L1.55,294.4L1.54,294.07L1.65,284.86L1.68,284.84L1.12,284.17L1.1,284.07L1.26,282.97L1.31,287.39L1.3,287.46L1.65,287.32L1.46,290.29L1.52,290.32L1.89,290.3L-0.07,289.84L0.54,289.44L0.68,289.37L2.63,287.78L2.63,287.69L1.84,287.32L1.75,287.36L1.68,287.4L1.5,288.6L1.52,288.66L1.2,287.13L2.31,290.02L2.33,289.99L2.36,289.95L1.83,288.81L1.76,288.78L1.15,288.15L1.16,288L1.84,284.76L2.07,285.13L2.09,285.21L1.85,285.92L1.41,285.57L1.37,285.51L0.85,282.42L0.87,282.25L1.67,280.93L1.73,280.94L1.78,280.97L1.88,282.29L1.85,282.35L1.6,282.41L1.43,281.73L1.43,281.67L1.35,279.25L1.29,279.21L0.83,279.65L0.81,279.88L0.81,280.01L1.36,281.09L1.56,280L1.56,279.94L1.12,276.42L0.66,276.76L0.59,276.85L-0.04,278.13L1.33,277.09L1.41,277.03L1.78,276.03L1.76,275.93L1.39,271.64L1.78,271.8L1.81,271.71L1.68,269.29L1.64,269.24L2.42,269.82L0.95,268.64L0.96,268.54L1.65,264.3L1.6,264.17L1.22,261.41L1.31,261.41L1.35,261.43L1.99,262.2L1.54,260.82L1.54,260.75L1.84,261.25L1.23,259.94L1.19,259.85L1.31,258.91L1.77,259.22L1.8,259.29L1.7,259.81L1.35,257.7L1.6,257.85L1.62,257.77L1.51,256.86L1.16,256.83L1.07,256.83L0.22,256.42L0.31,256.11L0.36,256.03L1.39,255.63L1.5,255.75L1.55,255.83L2.27,256.99L2.63,256.75L2.64,256.73L1.69,256.65L1.6,256.43L1.58,256.35L1.54,255.64L1.12,257.57L1.13,257.66L1.65,258.01L1.93,257.94L2.03,257.91L2.64,257.59L1.96,257.19L1.89,257.14L1.41,255.93L1.06,256.43L1.02,256.51L0.89,257.08L1.81,256.62L1.86,256.57L2.04,256.33L1.18,257.52L1.16,257.57L1.76,256.41L1.73,256.36L1.54,256.15L1.96,257.68L1.39,257.23L1.37,257.3L1.38,257.95L1.11,255.92L1.03,255.97L1,256.02L1.36,257.84L1.4,257.86L1.66,257.92L1.69,257.28L1.68,257.2L1.66,255.96L1.68,255.92L1.86,256.84L1.79,256.88L1.75,256.9L0.82,256.68L1.68,256.15L1.68,256.05L1.91,257.07L1.21,254.68L1.06,254.83L1.03,254.88L1.3,255.61L1.6,255.64L1.66,255.64L2.01,255.59L1.14,255.07L1.13,254.98L1.8,253.91L1.92,253.95L1.95,253.98L1.66,254.56L1.47,253.01L1.8,253.41L1.8,253.34L0.81,252.57L0.73,252.54L0.43,251.9L0.65,251.65L0.72,251.6L1.73,251.58L1.58,251.99L1.55,252.02L1.4,252.18L1.66,251.58L1.64,251.51L1.71,252.51L1.69,250.27L1.72,250.15L1.47,248.07L1.41,248.09L1.39,248.11L1.65,249.15L1.46,248.06L1.3,248.08L1.26,248.1L1.17,248.91L1.42,249.02L1.48,249.02L1.96,248.54L1.83,248.22L1.81,248.18L1.2,247.61L1.73,247.42L1.72,247.38L1.43,247.85L0.94,246.12L0.93,247.14L0.92,247.17L1.48,246.28L1.49,246.2L1.73,244.94L1.92,245.79L1.93,245.83L0.92,246.12L0.92,246.22L1.65,247.4L1.74,247.44L2.68,247.73L1.53,246.62L1.45,246.51L1.25,245.66L2.01,246.39L1.11,246.13L1.05,246.12L0.83,246.16L1.42,245.66L1.44,245.58L1.8,245.87L1.27,244.66L1.27,244.6L1.42,244.45L1.77,245.33L1.77,245.38L1.51,245.84L1.06,245.04L1.06,245.02L1.72,246.2L1.76,246.21L1.99,246.33L1.33,245.43L1.66,246.33L1.67,246.38L1.58,246.09L1.57,247.25L1.7,246.99L1.74,247.03L1.9,247.05L1.67,246.29L1.69,246.23L2.15,246.09L2.46,246.37L2.5,246.42L2.5,246.78L1.85,246.79L1.78,246.79L1.13,246.25L1.1,246.17L1.04,245.71L1.89,247.48L1.35,247.31L1.31,247.41L1.09,248.44L1.73,248.56L1.76,248.57L1.84,247.4L2.33,247.86L2.37,247.95L1.96,249.16L1.88,249.19L1.24,249.19L1.89,248.42L1.92,248.35L1.64,247.48L1.41,247.45L1.33,247.46L0.66,248.32L0.8,248.45L0.86,248.46L2.4,248.42L2.14,248.99L2.11,249.03L1.73,249.65L1.38,248.92L1.33,248.96L1.17,249.79L1.87,248.1L1.87,248.03L1.86,247.81L1.55,248.19L1.15,247.86L1.11,247.84L0.92,247.81L1.64,247.35L1.67,247.29L1.76,247.02L1.67,248.23L1.2,247.68L1.11,247.62L0.31,247.45L2.43,248.23L1.4,248.44L1.33,248.46L0.69,248.98L1.4,249.22L1.45,249.24L1.41,249.25L2.02,249.11L2.1,249.13L2.54,250.13L2.51,250.19L1.52,250.78L1.54,250.22L1.56,250.12L1.22,250.18L1.29,248.43L1.18,248.64L1.16,248.68L1.17,249.02L1.88,248.9L1.97,248.9L2.86,249.23L1.51,248.91L1.65,249.53L1.68,249.6L1.88,250.01L0.99,249.73L0.92,249.74L0.6,249.83L1.86,249.21L1.46,249.98L1.44,249.99L1.73,250.49L1.52,248L2.05,248.78L2.06,248.74L2.31,248.02L2.39,248L2.74,248.01L0.34,247.94L0.26,247.87L0.13,247.42L0.65,247.28L0.78,247.28L2.21,247.79L1.41,248.1L1.44,248.17L1.74,247.84L1.49,249L1.48,249.08L1.4,249.41L1.1,248.06L1.67,248.38L1.71,248.41L1.52,248.42L1.75,249.14L1.76,249.24L1.79,249.99L2.1,248.65L2.14,248.64L2.28,248.81L0.92,248.01L1.63,248.13L1.6,248.07L1.41,247.94L1.58,249.28L1.58,249.3L1.6,249.05L1.6,251.51L1.33,250.07L1.29,250.09L1.52,251.33L1.54,251.36L1.28,250.23L1.35,250.19L1.89,249.92L1.71,250.84L1.68,250.91L1.35,251.29L1.58,250.05L1.54,249.95L1.13,249.4L2.01,251.1L1.63,249.21L1.66,249.1L1.48,246.39L1.44,246.21L1.2,241.5L1.23,241.05L1.59,225.01L1.55,224.6L1.17,215.07L1.21,214.66L1.69,206.27L1.66,205.89L1.31,185.59L1.34,185.12L1.79,172.07L1.74,171.74L1.56,164.63L1.59,164.2L1.52,155.17L1.49,154.99L1.52,150.25L1.53,150.2L1.6,143.71L1.51,143.61L0.94,142.16L1.26,142.15L1.33,142.19L1.71,142.9L1.37,141.7L1.36,141.53L1.87,138.09L1.92,138.14L1.94,138.18L2.09,138.47L1.25,136.02L2.08,136.72L2.08,136.57L1.33,132.43L1.28,132.32L1.57,131.34L1.63,131.28L1.89,129.91L1.87,129.75L1.7,126.64L1.75,126.51L2,123.39L1.97,123.21L1.48,116.81L1.52,116.65L2.1,113.52L1.96,113.41L-0.7,111.81L-0.43,111.56L-0.16,111.43L4.95,110.42L6.2,110.27L27.85,108.51L30.34,108.36L85.9,104.63L87.45,104.41L104.26,101.02L105.36,100.76L129.96,94.32L130.54,94.07L140.06,89.12L140.38,88.93L144.1,85.86L144.36,85.54L147.69,79.91L147.86,79.54L151.59,73.34L151.7,73.29L153.75,71.85L153.82,71.73L155,68.93L154.97,68.77L155.07,66.53L155.24,66.41L157.86,65.56L158.36,65.45L176.32,62.53L176.94,62.49L184.57,61.43L184.92,61.25L187.89,58.78L188.21,58.44L192.62,54.6L192.78,54.65L194.05,56.28L194.21,56.54L196.25,58.71L196.52,58.82L198.68,58.78L199.02,58.67L207.03,55.73L207.29,55.8L211.36,57.46L211.49,57.41L214.11,57.24L214.21,57.28L216.81,57.92L217.02,57.89L221.6,57.69L221.74,57.8L224.29,59.02L224.41,58.9L225.16,56.85L225.21,56.6L226.25,54.44L226.4,54.39L229.59,54.16L229.8,54.12L234.33,53.75L234.62,53.85L239.31,56.48L239.46,56.6L239.88,57L239.74,55.94L239.8,55.76L241.37,54.03L241.71,53.81L246.05,52.23L246.63,52.11L253.31,51.66L253.78,51.67L262.87,52.53L263.21,52.64L267.2,54.56L267.37,54.69L267.84,55.4L266.81,55.16L266.61,55.06L258.86,50.44L259.48,50.35L259.74,50.37L276.61,52.66L277.33,52.79L297.56,56.95L297.72,57.03L299.79,57.48L299.88,57.41L302.04,55.58L302.18,55.56L303.8,56.07L303.91,56.2L305.14,58.61L305.43,58.14L305.5,57.98L306.94,54.39L307.28,55.03L307.34,55.17L309.1,57.07L309.27,57.16L317.46,60L317.83,60.13L325.4,61.88L325.81,61.9L331.9,61L332.23,60.98L336.79,61.71L336.86,61.74L326.12,61.59L325.75,61.57L323.46,61.65L334.53,61.33L335.36,61.28L346.1,61.36L346.74,61.42L358.39,63.27L358.51,63.33L360.74,64.35L359.92,63.67L359.92,63.51L360.67,59.84L360.74,59.79L362.61,59.68L362.77,59.69L365.63,60.59L365.72,60.67L368.03,61.63L368.3,61.67L385.33,63.82L385.03,64.17L384.89,64.27L382.19,65.08L381.8,65.12L376.69,64.71L376.22,64.62L371.4,63.47L375.36,63.75L375.91,63.78L399.52,65.39L399.64,65.44L402.12,66.77L402.01,66.86L401.96,66.88L397.77,66.97L406.04,66.53L406.23,66.56L410.14,66.48L410.46,66.45L415.96,66.86L416.25,66.93L419.77,67.95L404.77,64.57L405.79,64.18L406.14,64.08L413.9,62.83L414.75,62.76L424.15,62.77L424.91,62.84L431.86,64.37L432.25,64.53L435.5,66.76L435.61,66.89L436.18,67.63L436.28,66.63L436.29,66.58L436.32,66.42L435.55,66.48L435.4,66.46L432.66,65.22L432.39,65.04L428.89,62.27L434.03,65.29L434.18,65.3L444.9,65.22L445.19,65.23L447.38,65.96L447.36,66.06L447.3,66.16L445.21,67.3L444.82,67.44L438.16,69.16L437.59,69.24L428.35,69.9L430.43,70.22L430.94,70.24L441.83,69.5L442.71,69.4L453.45,68.87L453.94,68.93L458.02,70.39L458.16,70.47L459.07,71.1L458.76,71.38L458.69,71.41L455.84,71.85L455.65,71.87L452.28,72.39L458.42,72.33L458.59,72.42L462.37,73.58L462.67,73.59L470.11,73.04L465.51,73.78L464.91,73.85L455.55,73.9L454.96,73.83L451.01,72.83L468.13,74.78L468.96,74.8L479.13,74.07L479.46,74.02L481.7,74.42L481.72,74.48L481.75,74.75L480.92,74.21L480.74,74.1L477.07,72.65L476.72,72.62L473.66,73.08L473.35,73.2L470.15,74.62L473.4,73.65L473.66,73.68L476.48,74.87L476.67,75L479.17,76.04L479.4,76.03L484.05,74.51L484.42,74.4L488.12,74.07L488.38,74.13L489.42,74.93L489.26,75.11L489.12,75.19L486.57,75.45L486.08,75.43L468.67,73.71L468.33,73.64L467.5,73.24L468.05,72.93L468.36,72.85L474.58,72.38L475.43,72.37L497.33,72.85L497.43,72.88L497.75,72.99L494.84,72.19L494.5,72.19L488.53,73.08L488.22,73.2L486.24,74.48L489.02,72.83L489.24,72.62L493.37,69.31L493.6,69.28L497.15,69.54L497.5,69.6L505.5,71.61L505.68,71.76L505.86,72.94L505.71,73.11L503.76,74.1L503.27,74.24L497.26,75.02L496.48,75.05L485.53,74.73L488.56,74.51L489.21,74.46L510.5,72.19L510.99,72.15L513.87,71.63L513.67,71.19L513.63,71.13L512.61,70.77L512.49,70.77L503.9,71.28L503.63,71.35L501.82,72.13L502.45,72.39L502.61,72.42L505.92,72.28L506.11,72.22L510.51,71.01L510.77,71.03L518.35,72.13L516.85,72.39L516.44,72.42L499.49,72.54L506.65,72.93L507.53,72.94L528.97,72.68L529.31,72.62L530.61,71.87L530.44,71.65L530.36,71.58L526.61,70.01L526.35,69.96L522.91,70.22L522.56,70.31L517.71,72L518.77,72.07L518.99,72.07L537.17,72.94L513.51,72.37L513.78,72.52L514.04,72.58L520.75,73.06L521.73,73.07L538.69,72.53L539.3,72.49L543.32,71.75L543.27,71.57L543.25,71.5L541.93,70.35L541.78,70.31L531.6,68.68L531.6,68.69L537.96,71.72L538.21,71.71L548.06,71.61L548.25,71.71L548.59,72.36L548.33,72.56L548.13,72.66L544.48,73.09L543.79,73.09L531.39,72.01L530.88,71.95L529.53,71.79L538.75,72.43L539.77,72.46L554.88,72.05L555.42,72L558.28,70.85L558.29,70.7L557.21,68.76L557.09,68.63L555.77,68.15L555.67,68.21L551.86,69.68L551.55,69.76L544.82,71.12L544.82,70.98L544.84,70.91L545.96,70.47L546.14,70.49L549.58,71.58L549.87,71.67L553.92,71.93L554.26,71.9L561.79,72.15L556.35,71.79L555.55,71.74L541.09,71.24L550.95,72.21L551.94,72.3L569.02,73.49L568.72,73.11L568.66,73.04L566.15,72.04L565.77,71.94L556.81,70.6L556.58,70.61L555.62,70.98L556.77,71.32L556.88,71.32L559.59,71.64L559.8,71.7L565.79,72.54L566.14,72.57L568.86,72.52L566.28,71.87L565.73,71.79L557.03,71.23L556.11,71.24L547.52,72.07L547.03,72.19L545.63,72.84L546.03,73.09L546.33,73.15L552.2,73.37L553.12,73.36L576.43,73.39L575.02,72.76L574.75,72.71L569.77,72.58L569.34,72.62L564.68,73.83L564.7,73.87L564.74,73.92L567.11,74.42L567.27,74.43L578.75,73.73L578.78,73.67L577.43,73.32L577.01,73.29L570.06,73.47L569.15,73.54L552.91,74.55L566.57,74.12L567.66,74.13L581.34,74.51L581.32,73.94L581.33,73.85L581.08,72.72L580.83,72.71L580.67,72.72L568.8,73.53L568.66,73.51L568.45,73.44L574,74.35L574.19,74.34L578.89,73.37L579.19,73.28L581.37,72.59L576.84,73.22L576.12,73.31L560.98,74.2L560.25,74.21L556.85,74.21L579.14,74.55L579.82,74.59L585.58,74.23L585.71,74.1L586.37,72.17L586.38,71.93L585.75,69.49L585.59,69.32L583.72,68.47L583.41,68.43L579.08,68.76L578.72,68.83L574.92,69.93L575.24,70.27L575.36,70.36L580.34,73.03L580.63,73.1L583.28,72.87L583.53,72.77L588.06,71.68L588.44,71.7L592.11,72.83L592.11,72.92L590.61,73.29L590.1,73.32L576.07,73.1L575.22,73.07L570.7,72.59L571.73,72.2L572.19,72.12L580.91,71.47L581.88,71.45L594.38,72.04L594.94,72.1L598.84,72.67L597.56,71.78L597.34,71.74L592.94,71.69L592.47,71.71L585.89,71.32L585.69,71.23L584.96,70.21L585.07,70.11L585.15,70.07L587.13,70.36L587.31,70.39L589.3,69.98L589.52,69.85L595.97,66.77L596.28,66.75L598.22,67.22L598.17,67.41L598.07,67.51L595.82,68.2L595.26,68.28L587.3,68.82L586.36,68.83L575.94,68.45L591.65,68.97L592.61,69.04L602.77,70.44L602.94,70.5L603.79,70.7L603.01,71.08L602.83,71.17L596.56,73.35L596.13,73.42L591.52,73.22L591.29,73.15L590.49,72.48L590.88,72.27L591.03,72.22L596.98,71.65L597.23,71.62L606,70.8L605.79,71.09L605.59,71.21L602.31,72.3L601.59,72.47L590.51,74L589.62,74.05L584.14,73.96L584.75,73.65L585.13,73.55L596.41,71.81L597.36,71.68L608,71.14L608.31,71.21L610.36,72.48L606.36,71.47L606.08,71.45L599.51,70.42L600.05,70.98L600.21,71.06L603.64,71.77L603.98,71.78L608.94,71.1L609.35,70.99L614.76,69.42L611.88,69.65L611.22,69.7L589.91,70.78L601.22,70.53L602.33,70.5L619.33,69.92L609.5,69.72L609.11,69.68L606.65,69.71L607.94,70.3L608.17,70.37L615.65,71.5L616.01,71.48L622.68,70.83L602.67,72.03L601.86,72.02L598.17,71.75L600.37,71.31L601,71.23L616.27,69.99L617.07,69.97L625.55,69.82L625.57,69.72L625.07,68.63L624.92,68.56L622.09,68.18L621.68,68.17L612.01,67.56L623.3,67.5L623.63,67.48L628.02,67.9L603.65,68.22L603.15,68.25L602.07,68.43L606.73,68.65L607.59,68.67L622.95,69.74L623.72,69.86L631.23,70.6L631.25,70.47L630.64,68.53L630.49,68.35L628.32,66.91L628,66.79L623.6,66.14L623.26,66.16L620.79,67.1L620.79,67.19L621.73,67.66L621.94,67.68L630.6,68.56L630.93,68.63L634.64,68.61L634.98,68.54L637.91,67.49L637.09,67.36L636.71,67.36L612.01,66.93L620.08,67.63L621.19,67.74L639.17,69.36L638.52,68.84L638.41,68.78L635.77,68.34L635.51,68.31L625.37,67.41L625.3,67.49L625.88,68.19L626.07,68.26L629.54,68.45L629.81,68.43L639.42,67.57L622.61,68.45L621.66,68.41L616.29,67.8L617.14,67.52L617.56,67.44L638.18,64.95L638.68,64.93L643.01,65.65L643.06,65.69L642.36,66.03L642.17,66.05L630.7,66.96L635.02,66.09L635.24,66.03L637.35,66.18L637.51,66.27L641.32,67.82L641.69,67.87L645.48,67.54L637.38,67.45L636.35,67.48L621.59,68.45L622.57,68.69L623.04,68.74L631.42,68.98L632.46,68.96L646.43,67.83L646.82,67.77L648.02,67.51L644.67,68.86L644.53,68.96L642.36,69.43L642.09,69.4L634.36,69.34L634.33,69.39L635.37,69.46L635.58,69.41L638.55,67.92L638.81,67.74L642.96,65.38L643.35,65.27L648.36,64.6L648.84,64.59L652.07,64.76L632.05,64.08L631.07,64L626.41,63.19L626.89,62.89L627.28,62.79L634.84,62.01L635.96,61.95L648.35,62.07L649.07,62.16L652.33,63.34L652.45,63.52L652.22,64.63L652.06,64.8L649.85,65.95L649.67,66L638.83,67.89L639.33,68.35L639.5,68.45L642.56,69.09L642.81,69.06L651.08,67.92L651.56,67.94L655.84,67.83L631.28,67.79L631.76,67.89L632.13,67.94L650.37,69.16L651.07,69.16L655.31,68.36L655.33,68.27L654.45,67.51L654.33,67.47L652.14,67.64L651.93,67.69L646.34,68.17L645.97,68.16L642.61,67.77L646.19,67.45L646.45,67.43L658.29,66.25L658.49,66.12L658.59,65.45L658.4,65.33L658.13,65.21L654.05,64.69L653.17,64.66L631.83,64.27L634.18,63.94L634.92,63.9L658.85,63.19L658.74,63.45L658.71,63.51L657.53,64.73L657.35,64.79L652.28,65.57L651.97,65.58L649.39,65.69L650.66,66.3L650.74,66.34L654.15,66.85L654.51,66.88L660.96,66.74L648.03,66.73L646.87,66.71L637.06,65.72L636.46,65.53L634.99,64.16L635.13,63.91L636.71,62.96L637.34,62.75L643.65,61.7L644.72,61.63L655.7,61.85L656.47,61.92L662.63,63.23L662.66,63.31L662.25,64.21L662.07,64.29L658.29,64.97L657.75,65.03L650.32,65.23L650.32,65.14L650.37,65.04L652.14,63.85L652.46,63.68L658.21,61.54L658.43,61.5L665.89,61.28L666.18,61.32L666.9,61.62L666.01,62.02L665.61,62.11L654.96,63.41L653.95,63.52L645.77,64.76L646.39,64.98L646.8,65.06L670.7,68.66L663.73,67.77L663.34,67.78L658.06,67.08L657.72,66.97L655.71,65.38L655.73,65.27L656.8,64.49L656.99,64.42L661.51,61.86L661.8,61.69L665.83,60.35L666.25,60.29L670.25,60.65L670.36,60.76L669.97,61.37L669.68,61.5L664.87,62.49L663.99,62.59L650.02,63.22L649.27,63.24L646.62,63.57L647.44,63.96L647.91,64.09L659.14,66.1L660.27,66.27L672.67,67.62L672.44,67.4L672.33,67.34L669.28,66.6L669.07,66.63L659.26,67.51L659.52,67.83L659.65,67.91L662.39,68.37L662.66,68.35L666.37,67.14L666.7,67.01L672.16,65.59L672.53,65.54L674.2,65.38L666.14,65.82L665.1,65.85L651.35,65.55L650.96,65.47L650.47,65.23L651.38,64.89L651.88,64.81L660.1,64.47L661.27,64.48L679.18,64.54L679.28,64.39L679.15,63.01L679.06,62.79L677.33,60.78L677.15,60.77L674.25,61.64L673.83,61.8L665.54,65.42L665.93,65.59L666.07,65.61L669.55,66.98L669.71,67.05L672.34,67.37L672.68,67.36L679.89,67.66L679.99,67.72L679.11,68.03L678.69,68.06L669.56,67.87L668.49,67.8L658.78,66.51L658.52,66.38L658.41,65.98L658.6,65.84L658.91,65.71L663.7,64.88L664.67,64.78L679.56,64.18L680.09,64.18L682.15,64L677.54,64.34L677.19,64.39L669.25,65.31L670.36,65.66L670.57,65.69L682.47,67.63L682.4,67.71L682.26,67.79L679.24,68.15L678.51,68.17L661.11,67.65L660.64,67.64L659.84,67.6L672.77,67.62L673.88,67.6L685.45,66.85L684.7,66.66L684.54,66.65L679.59,66.73L679.21,66.75L671.62,66.61L671.53,66.48L671.72,64.87L671.82,64.66L673.91,62.24L674.06,62.16L679.59,60.54L680.08,60.42L685.81,59.33L679.57,60.18L678.56,60.29L661.9,61.93L666.14,62.09L667.06,62.13L682.92,63.52L683.58,63.62L687.2,64.14L685.07,64.53L684.83,64.57L679.42,64.68L678.96,64.66L674.01,65.03L674.33,65.28L674.47,65.32L679,65.77L679.31,65.77L685.32,65.06L685.79,64.97L690.15,63.88L688.01,63.77L687.38,63.76L665.65,63.54L667.01,63.95L667.59,64.05L677.12,64.78L678.26,64.8L695.26,65.19L695.25,65.26L695.21,65.31L694.05,65.14L693.84,65.04L686.18,61.33L685.73,61.24L679.68,60.04L680.48,59.78L680.65,59.78L683.38,60.78L683.58,60.88L686.64,61.76L686.97,61.78L690.47,61.53L688.79,61.15L688.25,61.09L673.18,60.31L672.28,60.31L668.03,60.83L668.25,61.04L668.53,61.15L673.12,61.94L674.07,62.04L689.21,62.82L689.8,62.84L692.89,63.53L692.81,63.73L692.77,63.79L691.27,64.4L691.08,64.42L681.32,64.47L683.59,65.08L683.87,65.11L686.59,64.67L686.86,64.52L694.75,60L695.13,59.93L696.76,60.03L686.43,61.08L685.39,61.11L676.02,61.82L676.41,62.08L676.76,62.17L683.87,62.75L684.94,62.78L698.54,62.18L699.02,62.11L700.89,61.41L700.38,61.12L700.29,61.1L688.22,59.76L687.83,59.6L685.79,57.99L685.82,57.91L687.15,57.38L687.32,57.34L698.81,55.31L699.15,55.34L700.07,55.61L699.25,56.02L698.84,56.11L691.76,56.74L690.69,56.78L677.55,56.4L677.13,56.34L676.52,56.13L678.25,55.84L678.88,55.82L690.87,56.23L691.97,56.31L704.23,57.33L702.08,57.73L701.85,57.84L695.43,60.6L694.98,60.65L691.36,60.07L691.05,59.93L689.74,58.32L689.79,58.21L691.06,57.88L691.29,57.91L704.21,60.87L702.7,61.02L702.17,61.04L682.89,62.03L682.15,62.12L679.79,62.63L682.72,62.77L683.51,62.77L702.02,63.25L702.53,63.32L704.92,63.91L704.03,64.3L703.9,64.35L700.29,64.77L699.83,64.78L691.74,64.49L693.14,64.05L693.36,63.99L697.11,63.72L697.38,63.76L703.15,64.08L703.43,64.03L704.23,63.62L703.64,63.31L703.32,63.24L697.49,62.79L696.56,62.76L682.4,62.9L682.52,63.02L682.74,63.09L689.02,63.72L690.07,63.78L704.63,63.59L705.36,63.54L709.32,63.55L709.15,63.91L709.06,64.01L707.6,64.58L707.42,64.53L703.76,62.1L703.36,61.84L698.55,59.61L698.15,59.51L695.66,59.69L695.63,59.79L696.57,60.8L696.77,60.9L702.01,62.46L702.3,62.51L706.76,62.66L706.89,62.61L706.86,62.4L706.46,62.31L706.15,62.27L700.37,62.42L699.46,62.5L688.41,64.26L688.51,64.29L688.72,64.31L697.16,63.87L698.3,63.8L716.91,63.48L715.61,62.92L715.4,62.87L710.73,62.72L710.3,62.72L700.11,62.55L704.41,62.84L704.75,62.95L711.23,64.11L711.67,64.11L713.59,63.65L713.14,63.33L712.82,63.22L707.05,62.42L705.98,62.34L686.97,61.3L688.64,60.95L689.27,60.88L700.61,60.34L701.58,60.36L709.35,61.29L709.75,61.41L711.87,62.19L711.66,61.44L711.57,61.28L709.55,59.86L709.19,59.74L705.19,59.54L704.72,59.6L700.91,61L700.85,61.09L701.55,61.6L701.71,61.62L709.36,62.44L709.85,62.43L715.4,62.59L704.4,62.33L703.22,62.21L690.61,60.03L690.18,59.88L689.61,59.41L690.38,59.18L690.86,59.13L702.75,58.82L703.75,58.77L711.21,57.74L711.49,57.62L711.98,57L711.53,56.78L711.37,56.76L709.25,57.32L709.03,57.43L704.16,59.17L703.64,59.28L697.07,59.81L696.62,59.79L693.86,58.84L693.85,58.73L694.85,57.86L694.98,57.83L696.59,58.37L696.78,58.5L701.57,61.07L702.08,61.23L707.04,61.91L707.4,61.86L708.35,61.19L708.26,61.03L708.08,60.87L705.23,59.86L704.47,59.71L696.49,58.9L695.39,58.85L686.01,58.33L687.4,57.85L687.99,57.74L697.48,56.75L698.59,56.71L707.4,57.08L708.16,57.2L713.28,58.82L713.45,58.93L713.92,59.47L713.35,59.69L713.2,59.73L702.5,62.02L702.74,62.4L702.84,62.51L704.88,63.91L705.12,63.95L708.4,63.7L708.93,63.61L721.38,62.32L721.48,62.34L717.84,62.49L716.97,62.49L700.7,62.25L719.93,61.76L720.64,61.73L724.58,61.76L722.6,61.13L722.42,61.05L719.27,60.48L718.9,60.48L710.72,60.23L710.53,60.13L710.23,59.06L710.33,58.95L712.01,58.31L712.27,58.29L719.14,58.51L719.72,58.51L728.35,58.1L703.74,57.99L703.32,57.87L702.8,57.41L703.23,57.18L703.6,57.08L709.56,56.71L710.54,56.72L722.53,57.78L723.03,57.86L725.17,58.41L724.77,58.88L724.64,59L720.43,61.9L719.99,62.03L716.37,62.22L715.8,62.13L711.51,60.56L711.07,60.29L708.76,57.89L708.71,57.68L709.35,56.69L709.55,56.63L711.88,56.86L712.16,56.96L722.06,60.96L722.56,61.04L725.85,61.58L724.07,61.98L723.44,62.07L702.16,64.08L701.26,64.13L697.98,64.25L721.78,63.42L721.99,63.46L722.41,63.68L719.13,63.53L718.81,63.51L713.4,63.89L712.88,63.97L707.46,64.16L707.47,64.05L707.5,63.92L709.05,62.35L709.3,62.17L714.27,59.43L714.59,59.29L722.11,55.63L721.84,55.47L721.58,55.4L716.02,55.33L715.13,55.38L706.29,56.69L705.84,56.86L705.06,57.8L705.21,57.99L705.47,58.17L708.92,59.17L709.75,59.3L727.8,62.04L727.89,62.16L727.8,63.34L727.72,63.37L727.63,63.4L720.62,64.61L720.17,64.67L714.48,65.62L715.88,65.96L716.08,65.99L723.32,66.37L715.84,65.99L714.73,65.97L695.77,64.98L696.37,64.78L696.8,64.72L707.94,64.4L709.06,64.4L721.6,65.2L721.74,65.28L721.82,66.31L721.76,66.39L720.19,66.89L720.02,66.89L716.88,66.01L716.86,65.94L717.43,65.04L717.52,65.02L720.54,65.58L720.89,65.62L725.92,65.23L726.43,65.13L730.77,63.48L730.74,63.38L730.63,63.28L728.36,62.92L727.71,62.89L714.15,63.23L713.41,63.28L710.71,63.71L712.78,64.08L713.4,64.11L724.58,63.92L725.23,63.87L729.41,64.24L729.42,64.38L728.53,66.83L728.41,66.9L726.81,66.49L726.52,66.32L718.2,62.06L717.95,62L716.5,61L716.54,60.88L716.59,60.75L718.18,59.24L718.48,59.1L722.16,58.43L722.77,58.41L729.67,59.23L730.3,59.4L733.33,61.09L733.35,61.31L732.43,62.16L731.95,62.35L727.12,63.27L726.05,63.38L707.81,64.6L710.82,64.92L711.55,64.94L729.01,65.56L729.11,65.65L729.24,66L726.52,63.35L726.21,63.1L722.17,60.98L721.79,60.87L718.12,59.27L718.16,59.19L718.2,59.11L719.76,58.24L719.98,58.17L729.16,55.92L718.52,58.05L717.47,58.21L707.45,59.69L711.51,59.71L712.38,59.7L730.61,60.2L731.04,60.27L733.35,61.5L733.38,61.61L732.87,62.95L732.72,63.04L730.04,63.66L729.68,63.68L724.75,62.96L724.51,62.86L723.17,61.34L723.17,61.25L723.55,60.91L723.87,61.04L724.01,61.11L730.12,63.71L730.65,63.88L734.74,65.31L733.98,65.59L733.56,65.65L714.34,67.17L713.38,67.24L709.11,67.51L717.67,67.59L718.76,67.63L736.76,68.41L736.74,68.21L736.69,68.09L734.64,66.28L734.36,66.12L729.98,64.42L729.57,64.32L723.72,63.81L723.63,63.84L723.52,63.98L724.1,64.26L724.27,64.31L729.32,64.95L729.73,64.95L736.73,64.78L712.83,64.23L712.23,64.19L710.92,64.02L717.31,63.75L718.3,63.74L735.88,64.34L732.3,63.66L731.91,63.58L724.1,61.76L725.29,62.66L725.46,62.76L728.44,63.5L728.84,63.51L733.88,62.78L734.43,62.63L738.42,60.65L738.44,60.49L737.64,60L737.21,59.91L730.84,59.64L729.75,59.64L714.43,59.1L714.27,59.02L714.8,58.69L715.22,58.61L723.86,58.17L724.96,58.15L739.1,57.29L739.31,57.21L739.79,56.7L734.41,58.96L733.98,59.16L726.81,62.79L726.87,62.9L726.94,63.02L729.11,65.03L729.37,65.13L732.71,65.41L733.18,65.39L738.46,64.33L738.41,64.26L738.27,64.19L734.88,63.86L734.05,63.84L717.85,64.05L717,64.1L713.71,64.52L719.48,64.68L720.37,64.67L734.94,65.05L735.41,65.13L740.44,66.29L729.31,64.01L736.83,65.02L737.36,65.04L742.42,65.33L729.29,65.31L728.09,65.31L719.22,65.42L742.94,65.32L740.69,66.03L740.46,66.05L730.33,66.66L734.01,66.77L734.37,66.84L740.93,67.48L741.37,67.45L743.27,66.78L743.21,66.65L743.07,66.51L740.38,65.65L739.63,65.51L727.18,64.31L726.17,64.26L720.96,64.12L736.26,64.06L737.14,64.04L743.87,64.22L743.45,64.56L743.33,64.59L740.67,64.54L740.4,64.51L734.38,64.39L734.16,64.43L733.18,64.61L736.19,64.28L736.53,64.39L742.96,65.8L743.49,65.81L746.18,65.06L746.23,64.87L745.51,63.92L745.1,63.66L740.71,62.11L739.69,61.87L730.11,60.68L728.89,60.63L720.22,61.12L719.88,61.23L719.57,61.61L719.94,61.87L720.28,61.99L725.17,62.66L726.12,62.71L737.63,62.62L738.38,62.57L744.02,62L740.36,61.66L739.97,61.56L730.94,59.11L731.35,58.69L731.49,58.6L734.56,57.53L735.02,57.45L741.94,57.14L742.65,57.18L747.98,58.3L748.16,58.47L747.92,59.23L747.6,59.43L743.58,60.58L742.6,60.75L730.04,61.87L729.08,61.91L725.02,62.23L726.87,62.68L727.53,62.78L746.58,65.04L746.22,65.5L746.14,65.55L744.2,65.84L743.88,65.84L732.9,66.87L732.75,66.91L732.56,66.99L734.74,66.98L734.98,66.98L746.72,67.14L746.73,67.03L745.44,66.24L744.9,66.04L736.43,64L735.21,63.78L721.65,62.18L721.32,62.18L721.01,62.19L745.18,62.41L737.11,61.73L736.95,61.66L736.21,61.08L743.49,64.28L744,64.39L748.2,65.12L745.09,65.07L744.32,65.07L726.83,65.73L727.08,65.81L727.37,65.85L736.98,66.13L738.01,66.14L750.63,65.74L742.57,65.45L742.08,65.41L736.94,64.17L736.92,64.1L737.89,63.53L738.08,63.49L743.55,62.89L744.05,62.86L750.57,62L749.79,61.7L749.37,61.63L742.08,61.44L740.99,61.49L731.76,62.76L730.99,62.96L728.42,64.33L728.49,64.47L728.66,64.58L730.96,64.73L731.67,64.65L737.84,63.24L738.79,62.92L746.15,59.74L746.75,59.41L749.77,56.98L749.63,56.92L749.53,56.91L745.33,57.82L745.1,57.86L738.91,58.17L738.71,58.14L737.52,58.1L737.95,58.71L738.09,58.84L740.96,60.43L741.41,60.59L746.41,61.48L746.97,61.5L749.94,61.01L749.76,60.8L749.51,60.7L745.87,60.17L744.92,60.12L732.36,60.37L731.06,60.45L722.21,61.51L723.21,61.73L723.78,61.78L745.14,63.75L745.65,63.87L747.42,64.56L741.5,63.67L741.19,63.65L737.37,63.75L738.7,63.11L738.9,63.06L743.33,62.8L743.83,62.81L750.7,62.54L723.87,61.69L723.89,61.65L728.69,61.66L729.61,61.71L744.38,63.5L744.98,63.62L748.42,64.62L738.75,62.2L738.9,62.04L738.97,62L743.05,60.75L743.42,60.68L751.72,59.93L752.08,59.93L752.93,59.96L731.01,60.33L746.51,60.64L747.22,60.7L752.01,61.94L752.13,62.05L752.3,62.52L751.52,62.4L751.36,62.33L747.72,61.26L747.41,61.25L742.44,62.33L742.19,62.37L739.87,62.39L742.55,62.68L743,62.72L754.13,63.16L738.85,62.61L737.73,62.57L730.68,62.3L743.94,62.23L744.84,62.2L752.79,62.76L752.81,62.84L752.03,63.52L751.89,63.53L739.44,62.14L742.23,63.04L742.51,63.1L746.69,63.32L747.14,63.3L754.75,63.86L754.78,63.94L753.13,64.28L752.54,64.31L740.84,63.95L739.78,63.88L733.05,62.85L733.69,62.63L734.1,62.56L743.62,61.96L744.51,61.93L754.27,61.31L753.49,60.95L753.28,60.92L746.53,61.08L745.98,61.11L739.34,60.62L739.34,60.55L740.41,60.07L740.59,60.06L745.39,60.77L745.87,60.84L752.05,60.86L752.46,60.77L753.65,59.77L753.52,59.6L751.55,58.75L750.89,58.59L743.44,57.85L742.37,57.83L732.93,58.44L732.83,58.52L733.99,58.84L734.51,58.9L752.23,60.96L752.54,61.06L753.6,61.6L751.96,61.53L751.71,61.56L741.19,63.27L741.24,63.42L741.3,63.49L742.8,64L742.94,63.98L748.97,63.29L749.54,63.31L755.87,63.88L739.94,62.72L739.04,62.61L734.99,61.75L735.56,61.54L735.95,61.48L744.55,61.15L745.49,61.15L756.25,61.38L755.45,61.78L755.26,61.84L750.64,62.57L750.26,62.57L743.48,61.82L743.28,61.77L742.41,61.45L747.63,62.5L748.09,62.5L754.48,62.16L733.09,62.04L733.17,61.97L733.37,61.9L739.34,61.45L740.32,61.42L756.47,61.51L753.95,61.04L753.63,60.93L747.56,59.55L747.13,59.51L743.69,59.9L751.27,60.42L751.79,60.49L755.81,60.94L752.43,61.23L751.66,61.28L735.01,61.64L743.7,61.89L744.72,61.97L759.67,63.76L759.04,63.81L758.85,63.81L752.14,63.1L751.67,63.03L744.47,62.57L744.47,62.64L744.48,62.71L745.48,63.7L745.65,63.71L749.19,63.01L749.64,62.86L753.67,60.64L753.86,60.36L753.73,58.97L753.46,58.7L750.78,57.52L749.99,57.33L743.05,56.54L741.97,56.52L734.12,57.14L733.64,57.28L732.87,58.15L733.05,58.34L733.34,58.53L737.02,59.62L737.88,59.79L756.18,62.8L756.23,62.97L755.7,64.2L755.51,64.36L753.26,65.3L752.89,65.36L746.77,65.45L746.35,65.44L741.09,65.65L741.09,65.75L741.12,65.85L742.25,66.53L742.56,66.6L747.46,66.77L748.03,66.75L751.91,66.61L726.39,67.05L729.42,66.86L730.19,66.82L748.55,66.29L748.23,66.54L748.11,66.58L744.68,66.75L744.33,66.75L735.1,66.83L735.46,66.26L735.54,66.18L737.48,65.17L737.79,65.11L742.87,64.92L743.28,64.92L744.81,64.65L744.02,64.19L743.58,64.03L735.59,62.23L734.35,62.04L721.74,60.87L720.73,60.86L716.22,61.55L716.3,61.69L718.29,62.46L718.97,62.63L739.96,67.49L740.04,67.61L739.62,68.52L739.46,68.64L734.17,71.2L733.58,71.46L717.46,79.27L717.3,79.41L714.45,82.82L714.41,83L714.84,84.62L714.95,84.79L715.66,86.66L715.53,86.83L713.95,87.7L713.41,87.88L706.12,89.3L704.87,89.48L678.39,93.43L678.42,93.55L680.03,94.06L680.59,94.15L694.74,96.37L694.93,96.53L695.27,97.92L695.21,98.11L693.54,100.14L693.32,100.29L689.01,101.97L688.5,102.11L671.59,106.49L671.5,106.62L669.43,108.77L669.2,108.85L657.66,112.1L656.57,112.22L634.74,113.53L633.07,113.6L618.87,114.68L620.09,114.94L620.64,114.98L640.29,116.72L640.64,116.85L642.03,118.15L641.95,118.25L641.9,118.29L623.99,124.99L623.84,125.14L623.57,126.73L623.6,126.88L623.15,128.19L622.97,128.3L619.68,128.98L619.41,128.98L606.28,129.29L605.03,129.44L568.14,134.98L567.63,135.07L566.63,135.35L568.75,135.55L569.38,135.56L585.73,136.47L586.16,136.55L588.03,137.63L588.03,137.75L586.65,141.97L586.47,142.1L581.87,144.02L581.59,144.13L575.04,147.39L574.99,147.47L574.36,149.61L574.43,149.66L574.62,150.13L574.27,150.31L574.07,150.36L568.99,150.91L568.14,150.96L531.46,153.94L531.38,154.03L532.17,154.41L532.54,154.48L543.3,155.25L543.89,155.3L548.12,156.35L548.11,156.43L548.08,156.51L546.59,157.14L546.41,157.17L536.51,158.38L536.13,158.36L527.72,158.33L527.56,158.36L525.38,159.62L525.29,159.73L523.01,161.39L522.8,161.48L516.3,163.1L515.88,163.14L478.21,165.42L478.25,165.52L478.37,165.62L480.5,166.24L481.06,166.33L489.44,166.88L490.26,166.87L502.59,166.35L502.2,166.85L502.07,166.95L497.65,169.31L497.42,169.39L492.51,170.17L492.17,170.19L482.78,171.47L482.5,171.55L478.48,172.06L478.33,172L475.36,171.57L475.23,171.65L470.82,173.54L470.54,173.59L460.82,175.32L460.07,175.36L425.24,177.12L424.74,177.24L422.99,178.24L423.07,178.37L423.22,178.49L425.92,179.21L426.51,179.29L444.32,180.97L440.96,181.17L440.66,181.23L431.25,183.44L430.87,183.43L421.1,183.82L420.85,183.9L409.06,186.81L408.74,186.82L401.28,187.69L401.06,187.75L395.51,189.27L395.07,189.27L364.5,189.64L364,189.72L361.5,190.42L362.77,190.62L363.19,190.63L379.64,190.23L380.29,190.24L392,190.16L384.46,190.57L384.03,190.67L379.82,192.41L379.58,192.57L374.71,195.08L374.27,195.17L367.67,195.62L366.91,195.62L340.22,195.93L339.69,195.84L332.55,195.16L332.93,195.51L333.04,195.57L336.83,197.34L336.81,197.38L336.79,197.43L335.14,197.8L334.98,197.81L332.55,198.81L332.55,198.86L331.76,199.45L331.57,199.48L323.1,199.88L322.35,199.88L294.4,199.51L296.13,199.93L296.48,200L310.56,202.82L308.94,203.12L308.69,203.19L301.74,204.48L301.38,204.48L293.4,204.5L293.29,204.59L290.83,205.82L290.58,205.86L278.96,207.22L278.8,207.33L275.23,208.86L275.09,208.88L259.16,209.79L259.08,209.81L257.48,210.85L257.4,210.94L255.06,212.53L254.92,212.55L253.03,213.36L253.05,213.45L253.06,213.55L253.37,214.6L252.6,214.37L252.46,214.35L247.34,214.66L246.83,214.73L236.11,216.88L235.6,216.97L229.57,217.2L229.19,217.18L218.42,217.61L218.23,217.65L216.66,218.55L216.95,218.77L217.05,218.8L220.27,220.13L220.33,220.22L222.17,221.34L222.25,221.35L223.57,221.48L213.6,222.09L213.27,222.12L207.23,222.98L207.37,223.38L207.38,223.46L206.64,224.95L206.56,225.03L204.37,226.27L204.16,226.3L194.72,227.53L194.44,227.63L190.64,228.36L190.36,228.35L180.53,228.39L180.5,228.44L179.5,228.39L179.39,228.34L177.44,228.38L177.29,228.47L175.68,230.65L175.63,230.75L174.49,231.18L174.4,231.18L172.82,231.9L172.77,231.95L170.99,232.84L170.89,232.81L169.55,233.11L169.51,233.18L168.3,233.84L168.21,233.86L166.71,234.07L166.69,233.66L166.69,233.57L166.76,232.99L166.04,233.71L165.92,233.82L164.03,235.31L164.56,235.6L164.66,235.63L165.05,235.83L163.29,235.76L162.96,235.74L156.31,236.03L155.88,236.1L146.15,237.45L145.95,237.41L140.91,236.26L140.84,236.28L139.57,236.05L139.55,235.84L139.56,235.77L139.66,235.33L138.81,235.98L139.45,235.85L139.59,235.82L142.38,235.15L140.97,236.15L140.95,236.25L141.71,237.2L141.84,237.25L142.96,237.31L141.29,236.31L141.21,236.24L141.1,235.85L141.94,236.88L141.72,237.02L141.62,237.05L139.16,236.84L139.08,236.83L133.42,236.24L133.24,236.29L129.25,236.71L129.23,236.68L129.76,236.17L129.02,236.92L128.92,236.97L126.71,236.93L126.64,236.89L126.46,236.48L126.98,236.83L126.61,237.05L126.47,237.1L120.55,238.19L120.36,238.22L115.44,238.75L115.39,238.78L114.14,238.98L114.05,238.93L113.3,238.64L113.52,239.47L113.54,239.51L113.38,238.66L113.33,238.58L112.9,238.26L113.22,239.71L113.19,239.75L111.58,240.08L111.44,240.08L107.91,239.46L107.82,239.4L106.25,239.48L106.17,239.55L105.93,240.52L105.5,240.09L105.45,240.05L105.2,239.54L105.4,240.78L105.36,240.82L104.64,241.04L104.62,241.15L103.71,242.37L103.61,242.37L98.36,242.79L98.3,242.86L97.28,243.7L97.05,243.29L96.99,243.29L96.21,244.26L96.21,244.29L95.48,245.18L95.48,245.25L95.82,245.5L96.24,245.27L96.29,245.24L96.61,245.27L96.68,245.85L96.67,245.96L96.23,247.14L95.9,246.89L95.85,246.87L90.49,246.07L90.28,246.11L79.82,249.32L79.71,249.36L75.7,251L75.65,251.13L75.59,252.28L75.3,250.82L75.24,250.54L74.12,242.48L74.09,241.98L74.14,231.25L74.18,230.92L74.41,222.73L74.36,222.2L73.09,208.42L73.12,208.05L73.18,197.7L73.13,197.29L72.24,188.91L72.31,188.7L73,184.57L72.97,184.48L71.43,175.07L71.32,174.87L69.7,173.51L69.63,173.51L68.8,173.79L68.73,173.9L66.25,177.97L66.27,178.16L66.12,182.2L66.06,182.35L66.48,182.09L65.59,184.73L65.59,184.89L65.56,194.8L65.54,194.85L66.29,195.97L66.46,196.11L70.8,198.81L71.08,198.92L74.17,199.45L74.38,199.43L78.18,198.45L78.13,199.1L78.15,199.17L79.13,199.46L79.28,199.42L80.96,197.88L81.08,197.65L81.71,194.63L81.7,194.4L82.32,185.38L82.34,185.33L83.85,180.65L83.85,180.6L82.39,180.42L85.95,182.03L85.99,182.12L86.26,182.91L86.69,182.13L86.73,182.03L87.39,181.25L87.68,181.64L87.7,181.7L87.74,181.93L87.64,179.11L87.69,178.98L88.18,177.29L88.16,177.16L88.54,174.73L88.6,174.7L90.27,175.02L90.42,175.05L93.83,174.76L94.17,174.68L100.68,173.31L100.77,173.39L103.09,174.16L103.28,174.2L104.87,175.21L104.9,175.32L105.51,176.74L105.24,174.81L105.46,174.81L105.56,174.81L108.95,174.08L109.01,174.01L108.61,173.28L108.52,173.21L108.07,172.71L108.67,172.51L108.84,172.48L115.24,171.12L115.36,171.06L117.02,170.95L117.09,170.99L118.13,172.12L118.16,172.22L119.31,173.78L119.4,173.82L120.7,173.76L119.22,173.05L119.18,172.99L117.75,172.56L117.58,172.54L113.57,171.37L113.4,171.26L111.7,169.29L111.69,169.21L110.86,168.42L110.74,168.39L108.98,168.89L108.93,168.98L108.68,170.84L108.96,170.92L109.04,170.94L109.64,171.74L109.56,171.91L109.5,171.99L108.68,172.76L109.97,172.3L110.18,172.22L115.87,170.56L116.07,170.54L120.76,170.99L120.82,171L121.33,170.3L121.35,170.2L122.93,166.58L122.97,166.53L123.12,166.37L122.99,166.78L122.63,166.25L122.56,166.14L120.39,163.83L120.31,163.86L119.43,165.05L119.42,165.18L120.25,166.59L120.33,166.61L120.8,166.18L120.8,165.97L120.78,165.86L119.59,163.56L119.52,163.55L119.01,163.63L120.13,163.27L119.99,162.97L119.92,162.91L117.51,161.25L117.46,161.57L117.49,161.66L118.7,163.9L119.11,163.38L119.17,163.28L121.1,161.46L121.19,161.45L122.35,160.69L122.38,160.6L122.46,159.42L123.03,160.24L123.06,160.3L122.82,160.38L123.11,162.79L123.12,162.87L123.18,163.06L123.74,161.97L123.77,161.94L125.69,161.59L125.85,161.49L127.72,159.73L127.61,160.67L127.65,160.75L128.73,161L128.82,160.95L129.82,160.13L129.75,160.99L129.74,161.02L130.13,161.54L127.91,160.83L127.7,160.84L124.48,161.84L124.31,161.94L121.67,162.94L121.56,162.91L119.16,163.13L119.12,163.15L118.53,162.61L118.46,162.48L117.17,159.07L117.25,159.01L118.61,157.88L118.48,157.7L118.4,157.62L117.25,156.97L118.7,157.42L118.88,157.43L126.98,158.61L127.19,158.71L131.67,160.83L131.75,160.9L132.76,161.14L132.88,160.95L132.91,160.88L133.91,158.65L133.95,158.59L133.99,157.01L133.95,156.88L133.12,154.97L133.11,156.68L133.11,156.74L132.55,157.36L132.43,156.28L132.36,156.27L131.73,156.31L131.92,155.58L131.86,155.55L131.18,155.67L131.53,156.21L131.55,156.25L131.49,156.46L130.83,156.29L130.77,156.27L130.54,156.17L131.53,155.85L131.63,155.79L132.68,154.95L132.63,155.77L132.72,155.84L135.28,156.33L135.36,156.32L135.16,156.42L136.4,155.52L136.43,155.42L136.07,154.29L136.64,154.56L136.73,154.55L138.09,153.37L138.16,153.28L139.56,152.86L139.67,152.89L144.2,154.21L144.29,154.16L145.22,153.67L145.19,154.48L145.2,154.54L145.9,154.82L146.04,154.74L146.11,154.7L146.49,153.86L146.14,153.75L146.05,153.75L135.43,154.44L135.33,154.37L133.72,154.01L133.65,154.04L132.6,154.02L132.54,153.77L132.55,153.74L132.92,154.54L133.19,154.52L133.35,154.49L142.42,153.43L142.7,153.47L146.67,153.46L146.8,153.39L150.04,152.31L150.19,152.32L151.89,151.79L151.89,151.71L151.9,151.62L152.59,150.17L152.66,150.14L153.34,149.06L153.32,148.98L152.65,148.18L152.45,148.23L152.4,148.23L150.69,148.47L150.65,148.52L150.46,149.83L150.48,149.89L150.76,150.28L150.57,149.08L150.15,149.47L150.13,149.45L149.6,147.6L149.7,147.53L151.98,147L152.08,146.99L155.39,147.19L155.45,147.27L155.91,149.4L155.92,149.44L156.75,150.93L156.8,150.93L159.98,151.01L160.13,151.06L162.19,151.18L162.26,151.12L163.88,150.53L163.96,150.56L164.75,150.48L164.81,150.06L164.81,149.96L164.35,148.59L164.19,148.55L160.8,148.48L160.49,148.53L153.89,149.58L153.74,149.5L150.65,148.44L150.47,148.46L147.38,149.17L147.55,149.34L147.64,149.38L164.41,151.98L164.63,152.01L166.83,153.08L166.91,153.16L168.18,153.5L168.28,153.45L170.43,152.59L169.69,152.15L169.65,152.08L167.94,150.88L167.88,150.89L166.93,150.38L166.88,150.36L166.53,150.54L166.46,150.99L166.46,151.03L166.19,150.01L166.18,149.88L165.87,148.62L165.37,148.76L165.29,148.77L164.3,148.16L164.3,148.08L164.06,146.7L163.95,146.7L163.9,146.69L163.6,146.86L163.79,147.44L163.81,147.5L163.8,147.97L163.49,146.96L164.05,146.99L164.16,147.01L168.54,146.86L168.63,146.81L170.73,145.78L170.85,145.84L175.05,147.26L175.12,147.21L176.82,146.49L176.9,146.51L177.57,146.17L177.57,145.93L177.57,145.84L178.25,144.41L178.34,144.37L179,144.27L176.88,144.11L176.65,144.1L173.09,144.8L172.88,144.91L168.15,146.77L167.98,146.76L165.39,147.34L165.27,147.44L164.38,148.5L164.01,147.96L163.93,147.86L162.5,146.36L163.02,146.17L163.21,146.13L172.1,144.27L172.42,144.16L176.4,143.66L176.63,143.72L184.93,145.76L185.03,145.75L185.6,145.71L182.86,145.8L182.82,145.74L181.96,144.22L181.89,144.23L181.12,144.49L181.06,144.43L179.74,144.34L179.68,144.37L179.15,144.4L178.93,143.94L178.9,143.89L177.89,143.84L177.85,143.84L177.43,143.95L177.47,144.49L177.48,144.59L178.48,146.78L178.57,146.81L182.76,147.12L182.83,147.08L184.17,145.75L184.18,145.68L185.12,143.91L185.2,143.85L186.57,144.03L186.67,144.1L188.42,146.54L188.46,146.62L189.56,148.3L189.65,148.33L190.01,148.53L180.44,144.79L180.2,144.77L173.64,144.88L173.58,144.95L172.75,145.85L173.35,146.11L173.54,146.17L180.17,147.55L180.64,147.6L185.19,147.24L185.46,147.14L189.96,146.14L190.17,146.17L193.02,145.84L193.11,145.74L195.19,143.64L195.26,143.65L195.46,143.67L193.68,144.18L193.54,144.27L190.71,146.52L190.65,146.5L189.65,146.73L189.68,146.07L189.68,145.97L188.94,144.27L188.86,144.23L186.45,143.49L186.4,143.72L186.38,143.8L185.36,147.38L185.23,147.2L185.23,147.16L186.27,146.71L186.39,146.72L187.91,146.9L187.96,146.35L187.98,146.26L189.28,145.11L189.42,145.06L188.99,144.59L190.62,144.74L190.76,144.8L194.18,147.06L194.27,147.13L196.99,148.87L197.03,148.82L197.07,148.77L198.44,148.57L198.55,148.6L199.03,148.92L197.6,148.97L197.32,148.94L189.57,147.17L189.38,147.11L181.18,145.69L181.08,145.73L178.96,145.95L178.83,145.9L177.55,145.8L177.79,146.34L177.91,146.46L180.62,147.97L180.98,148.09L185.83,148.66L186.24,148.65L194.3,148.52L194.48,148.59L197.32,148.85L197.42,148.82L198.76,149.1L198.83,149.19L199.38,150.39L198.69,150.25L198.58,150.22L197.39,150.57L197.37,150.67L197.36,150.77L197.17,151.83L196.63,151.42L196.53,151.31L194.22,148.73L194.1,148.73L189.75,148.5L190.15,149.18L190.07,149.24L187.19,150.32L186.87,150.41L184.27,151.01" style="vector-effect: none; fill: none; stroke: rgb(99, 110, 250); stroke-opacity: 1; stroke-width: 2px; opacity: 1;"/></g><g class="points"/><g class="text"/></g><g class="trace scatter tracecc8976" style="stroke-miterlimit: 2; opacity: 1;"><g class="fills"/><g class="errorbars"/><g class="lines"><path class="js-line" d="M0,217L0,165.35L127.23,145.2L175.88,47.15L216.81,52.22L843.29,64.35L884.65,47.81" style="vector-effect: none; fill: none; stroke: rgb(31, 119, 180); stroke-opacity: 1; stroke-dasharray: 9px, 3px, 3px, 3px; stroke-width: 2px; opacity: 1;"/></g><g class="points"><path class="point" transform="translate(0,217)" d="M3,0A3,3 0 1,1 0,-3A3,3 0 0,1 3,0Z" style="opacity: 1; stroke-width: 0px; fill: rgb(31, 119, 180); fill-opacity: 1;"/><path class="point" transform="translate(0,207.47)" d="M3,0A3,3 0 1,1 0,-3A3,3 0 0,1 3,0Z" style="opacity: 1; stroke-width: 0px; fill: rgb(31, 119, 180); fill-opacity: 1;"/><path class="point" transform="translate(0,165.35)" d="M3,0A3,3 0 1,1 0,-3A3,3 0 0,1 3,0Z" style="opacity: 1; stroke-width: 0px; fill: rgb(31, 119, 180); fill-opacity: 1;"/><path class="point" transform="translate(127.23,145.2)" d="M3,0A3,3 0 1,1 0,-3A3,3 0 0,1 3,0Z" style="opacity: 1; stroke-width: 0px; fill: rgb(31, 119, 180); fill-opacity: 1;"/><path class="point" transform="translate(175.88,47.15)" d="M3,0A3,3 0 1,1 0,-3A3,3 0 0,1 3,0Z" style="opacity: 1; stroke-width: 0px; fill: rgb(31, 119, 180); fill-opacity: 1;"/><path class="point" transform="translate(216.81,52.22)" d="M3,0A3,3 0 1,1 0,-3A3,3 0 0,1 3,0Z" style="opacity: 1; stroke-width: 0px; fill: rgb(31, 119, 180); fill-opacity: 1;"/><path class="point" transform="translate(288.12,53.66)" d="M3,0A3,3 0 1,1 0,-3A3,3 0 0,1 3,0Z" style="opacity: 1; stroke-width: 0px; fill: rgb(31, 119, 180); fill-opacity: 1;"/><path class="point" transform="translate(429.71,56.21)" d="M3,0A3,3 0 1,1 0,-3A3,3 0 0,1 3,0Z" style="opacity: 1; stroke-width: 0px; fill: rgb(31, 119, 180); fill-opacity: 1;"/><path class="point" transform="translate(843.29,64.35)" d="M3,0A3,3 0 1,1 0,-3A3,3 0 0,1 3,0Z" style="opacity: 1; stroke-width: 0px; fill: rgb(31, 119, 180); fill-opacity: 1;"/><path class="point" transform="translate(884.65,47.81)" d="M3,0A3,3 0 1,1 0,-3A3,3 0 0,1 3,0Z" style="opacity: 1; stroke-width: 0px; fill: rgb(31, 119, 180); fill-opacity: 1;"/></g><g class="text"/></g><g class="trace scatter trace49a380" style="stroke-miterlimit: 2; opacity: 1;"><g class="fills"/><g class="errorbars"/><g class="lines"><path class="js-line" d="M0,401.63L181.71,38.25" style="vector-effect: none; fill: none; stroke: rgb(128, 128, 128); stroke-opacity: 1; stroke-dasharray: 9px, 9px; stroke-width: 2px; opacity: 1;"/></g><g class="points"/><g class="text"/></g><g class="trace scatter trace50d51e" style="stroke-miterlimit: 2; opacity: 1;"><g class="fills"/><g class="errorbars"/><g class="lines"><path class="js-line" d="M0,401.63L908.56,38.25" style="vector-effect: none; fill: none; stroke: rgb(128, 128, 128); stroke-opacity: 1; stroke-dasharray: 9px, 9px; stroke-width: 2px; opacity: 1;"/></g><g class="points"/><g class="text"/></g><g class="trace scatter traceb5943e" style="stroke-miterlimit: 2; opacity: 1;"><g class="fills"/><g class="errorbars"/><g class="lines"><path class="js-line" d="M0,47.81L908.56,47.81" style="vector-effect: none; fill: none; stroke: rgb(255, 0, 0); stroke-opacity: 1; stroke-dasharray: 9px, 9px; stroke-width: 2px; opacity: 1;"/></g><g class="points"/><g class="text"/></g></g></g><g class="x2y" transform="translate(80,100)" clip-path="url(#clip55ada4x2yplot)"><g class="scatterlayer mlayer"><g class="trace scatter traceb7234d" style="stroke-miterlimit: 2; opacity: 1;"><g class="fills"/><g class="errorbars"/><g class="lines"><path class="js-line" d="M0,229.5L908.56,229.5" style="vector-effect: none; fill: none; stroke: rgb(128, 128, 128); stroke-opacity: 1; stroke-dasharray: 9px, 9px; stroke-width: 2px; opacity: 1;"/></g><g class="points"/><g class="text"/></g></g></g></g><path class="xlines-above crisp" d="M0,0" style="fill: none;"/><path class="ylines-above crisp" d="M0,0" style="fill: none;"/><g class="overlines-above"><path class="x2y-x crisp" d="M0,0" style="fill: none;"/><path class="x2y-y crisp" d="M0,0" style="fill: none;"/></g><g class="xaxislayer-above"><g class="xtick"><text text-anchor="middle" x="0" y="419" transform="translate(80,0)" style="font-family: 'Open Sans', verdana, arial, sans-serif; font-size: 12px; fill: rgb(42, 63, 95); fill-opacity: 1; white-space: pre; opacity: 1;">0</text></g><g class="xtick"><text text-anchor="middle" x="0" y="419" style="font-family: 'Open Sans', verdana, arial, sans-serif; font-size: 12px; fill: rgb(42, 63, 95); fill-opacity: 1; white-space: pre; opacity: 1;" transform="translate(271.66999999999996,0)">1000</text></g><g class="xtick"><text text-anchor="middle" x="0" y="419" style="font-family: 'Open Sans', verdana, arial, sans-serif; font-size: 12px; fill: rgb(42, 63, 95); fill-opacity: 1; white-space: pre; opacity: 1;" transform="translate(463.33,0)">2000</text></g><g class="xtick"><text text-anchor="middle" x="0" y="419" style="font-family: 'Open Sans', verdana, arial, sans-serif; font-size: 12px; fill: rgb(42, 63, 95); fill-opacity: 1; white-space: pre; opacity: 1;" transform="translate(655,0)">3000</text></g><g class="xtick"><text text-anchor="middle" x="0" y="419" style="font-family: 'Open Sans', verdana, arial, sans-serif; font-size: 12px; fill: rgb(42, 63, 95); fill-opacity: 1; white-space: pre; opacity: 1;" transform="translate(846.67,0)">4000</text></g></g><g class="yaxislayer-above"><g class="ytick"><text text-anchor="end" x="79" y="4.199999999999999" transform="translate(0,406)" style="font-family: 'Open Sans', verdana, arial, sans-serif; font-size: 12px; fill: rgb(42, 63, 95); fill-opacity: 1; white-space: pre; opacity: 1;">1000</text></g><g class="ytick"><text text-anchor="end" x="79" y="4.199999999999999" style="font-family: 'Open Sans', verdana, arial, sans-serif; font-size: 12px; fill: rgb(42, 63, 95); fill-opacity: 1; white-space: pre; opacity: 1;" transform="translate(0,358.19)">1500</text></g><g class="ytick"><text text-anchor="end" x="79" y="4.199999999999999" style="font-family: 'Open Sans', verdana, arial, sans-serif; font-size: 12px; fill: rgb(42, 63, 95); fill-opacity: 1; white-space: pre; opacity: 1;" transform="translate(0,310.38)">2000</text></g><g class="ytick"><text text-anchor="end" x="79" y="4.199999999999999" style="font-family: 'Open Sans', verdana, arial, sans-serif; font-size: 12px; fill: rgb(42, 63, 95); fill-opacity: 1; white-space: pre; opacity: 1;" transform="translate(0,262.56)">2500</text></g><g class="ytick"><text text-anchor="end" x="79" y="4.199999999999999" style="font-family: 'Open Sans', verdana, arial, sans-serif; font-size: 12px; fill: rgb(42, 63, 95); fill-opacity: 1; white-space: pre; opacity: 1;" transform="translate(0,214.75)">3000</text></g><g class="ytick"><text text-anchor="end" x="79" y="4.199999999999999" style="font-family: 'Open Sans', verdana, arial, sans-serif; font-size: 12px; fill: rgb(42, 63, 95); fill-opacity: 1; white-space: pre; opacity: 1;" transform="translate(0,166.94)">3500</text></g><g class="ytick"><text text-anchor="end" x="79" y="4.199999999999999" style="font-family: 'Open Sans', verdana, arial, sans-serif; font-size: 12px; fill: rgb(42, 63, 95); fill-opacity: 1; white-space: pre; opacity: 1;" transform="translate(0,119.13)">4000</text></g></g><g class="overaxes-above"><g class="x2y-x"><g class="x2tick"><text text-anchor="middle" x="0" y="96.6" transform="translate(80,0)" style="font-family: 'Open Sans', verdana, arial, sans-serif; font-size: 12px; fill: rgb(42, 63, 95); fill-opacity: 1; white-space: pre; opacity: 1;">0</text></g><g class="x2tick"><text text-anchor="middle" x="0" y="96.6" style="font-family: 'Open Sans', verdana, arial, sans-serif; font-size: 12px; fill: rgb(42, 63, 95); fill-opacity: 1; white-space: pre; opacity: 1;" transform="translate(271.66999999999996,0)">10</text></g><g class="x2tick"><text text-anchor="middle" x="0" y="96.6" style="font-family: 'Open Sans', verdana, arial, sans-serif; font-size: 12px; fill: rgb(42, 63, 95); fill-opacity: 1; white-space: pre; opacity: 1;" transform="translate(463.33,0)">19</text></g><g class="x2tick"><text text-anchor="middle" x="0" y="96.6" style="font-family: 'Open Sans', verdana, arial, sans-serif; font-size: 12px; fill: rgb(42, 63, 95); fill-opacity: 1; white-space: pre; opacity: 1;" transform="translate(655,0)">29</text></g><g class="x2tick"><text text-anchor="middle" x="0" y="96.6" style="font-family: 'Open Sans', verdana, arial, sans-serif; font-size: 12px; fill: rgb(42, 63, 95); fill-opacity: 1; white-space: pre; opacity: 1;" transform="translate(846.67,0)">39</text></g></g><g class="x2y-y"/></g></g><g class="subplot x2y"/></g><g class="polarlayer"/><g class="smithlayer"/><g class="ternarylayer"/><g class="geolayer"/><g class="funnelarealayer"/><g class="pielayer"/><g class="iciclelayer"/><g class="treemaplayer"/><g class="sunburstlayer"/><g class="glimages"/><defs id="topdefs-55ada4"><g class="clips"/><clipPath id="legend55ada4"><rect width="860" height="32" x="0" y="0"/></clipPath></defs><g class="layer-above"><g class="imagelayer"/><g class="shapelayer"/></g><g class="infolayer"><g class="legend" pointer-events="all" transform="translate(110,496.4)"><rect class="bg" shape-rendering="crispEdges" style="stroke: rgb(68, 68, 68); stroke-opacity: 1; fill: rgb(255, 255, 255); fill-opacity: 1; stroke-width: 0px;" width="860" height="32" x="0" y="0"/><g class="scrollbox" transform="" clip-path="url(#legend55ada4)"><g class="groups"><g class="traces" transform="translate(0,15.6)" style="opacity: 1;"><text class="legendtext" text-anchor="start" x="40" y="5.46" style="font-family: 'Open Sans', verdana, arial, sans-serif; font-size: 14px; fill: rgb(42, 63, 95); fill-opacity: 1; white-space: pre;">Fast Acceleration Test Data</text><g class="layers" style="opacity: 1;"><g class="legendfill"/><g class="legendlines"><path class="js-line" d="M5,0h30" style="fill: none; stroke: rgb(99, 110, 250); stroke-opacity: 1; stroke-width: 2px;"/></g><g class="legendsymbols"><g class="legendpoints"/></g></g><rect class="legendtoggle" x="0" y="-10.6" width="218.46875" height="21.2" style="fill: rgb(0, 0, 0); fill-opacity: 0;"/></g><g class="traces" transform="translate(220.96875,15.6)" style="opacity: 1;"><text class="legendtext" text-anchor="start" x="40" y="5.46" style="font-family: 'Open Sans', verdana, arial, sans-serif; font-size: 14px; fill: rgb(42, 63, 95); fill-opacity: 1; white-space: pre;">Model ; cf_dyn = 0.65</text><g class="layers" style="opacity: 1;"><g class="legendfill"/><g class="legendlines"><path class="js-line" d="M5,0h30" style="fill: none; stroke: rgb(31, 119, 180); stroke-opacity: 1; stroke-dasharray: 9px, 3px, 3px, 3px; stroke-width: 2px;"/></g><g class="legendsymbols"><g class="legendpoints"><path class="scatterpts" transform="translate(20,0)" d="M3,0A3,3 0 1,1 0,-3A3,3 0 0,1 3,0Z" style="opacity: 1; stroke-width: 0px; fill: rgb(31, 119, 180); fill-opacity: 1;"/></g></g></g><rect class="legendtoggle" x="0" y="-10.6" width="179.5" height="21.2" style="fill: rgb(0, 0, 0); fill-opacity: 0;"/></g><g class="traces" transform="translate(402.96875,15.6)" style="opacity: 1;"><text class="legendtext" text-anchor="start" x="40" y="5.46" style="font-family: 'Open Sans', verdana, arial, sans-serif; font-size: 14px; fill: rgb(42, 63, 95); fill-opacity: 1; white-space: pre;">Low gear ratio</text><g class="layers" style="opacity: 1;"><g class="legendfill"/><g class="legendlines"><path class="js-line" d="M5,0h30" style="fill: none; stroke: rgb(128, 128, 128); stroke-opacity: 1; stroke-dasharray: 9px, 9px; stroke-width: 2px;"/></g><g class="legendsymbols"><g class="legendpoints"/></g></g><rect class="legendtoggle" x="0" y="-10.6" width="135.859375" height="21.2" style="fill: rgb(0, 0, 0); fill-opacity: 0;"/></g><g class="traces" transform="translate(541.328125,15.6)" style="opacity: 1;"><text class="legendtext" text-anchor="start" x="40" y="5.46" style="font-family: 'Open Sans', verdana, arial, sans-serif; font-size: 14px; fill: rgb(42, 63, 95); fill-opacity: 1; white-space: pre;">High gear ratio</text><g class="layers" style="opacity: 1;"><g class="legendfill"/><g class="legendlines"><path class="js-line" d="M5,0h30" style="fill: none; stroke: rgb(128, 128, 128); stroke-opacity: 1; stroke-dasharray: 9px, 9px; stroke-width: 2px;"/></g><g class="legendsymbols"><g class="legendpoints"/></g></g><rect class="legendtoggle" x="0" y="-10.6" width="139.375" height="21.2" style="fill: rgb(0, 0, 0); fill-opacity: 0;"/></g><g class="traces" transform="translate(683.203125,15.6)" style="opacity: 1;"><text class="legendtext" text-anchor="start" x="40" y="5.46" style="font-family: 'Open Sans', verdana, arial, sans-serif; font-size: 14px; fill: rgb(42, 63, 95); fill-opacity: 1; white-space: pre;">Governor</text><g class="layers" style="opacity: 1;"><g class="legendfill"/><g class="legendlines"><path class="js-line" d="M5,0h30" style="fill: none; stroke: rgb(255, 0, 0); stroke-opacity: 1; stroke-dasharray: 9px, 9px; stroke-width: 2px;"/></g><g class="legendsymbols"><g class="legendpoints"/></g></g><rect class="legendtoggle" x="0" y="-10.6" width="104.7802734375" height="21.2" style="fill: rgb(0, 0, 0); fill-opacity: 0;"/></g><g class="traces" transform="translate(790.4833984375,15.6)" style="opacity: 1;"><text class="legendtext" text-anchor="start" x="40" y="5.46" style="font-family: 'Open Sans', verdana, arial, sans-serif; font-size: 14px; fill: rgb(42, 63, 95); fill-opacity: 1; white-space: pre;">Idle</text><g class="layers" style="opacity: 1;"><g class="legendfill"/><g class="legendlines"><path class="js-line" d="M5,0h30" style="fill: none; stroke: rgb(128, 128, 128); stroke-opacity: 1; stroke-dasharray: 9px, 9px; stroke-width: 2px;"/></g><g class="legendsymbols"><g class="legendpoints"/></g></g><rect class="legendtoggle" x="0" y="-10.6" width="66.5234375" height="21.2" style="fill: rgb(0, 0, 0); fill-opacity: 0;"/></g></g></g><rect class="scrollbar" rx="20" ry="3" width="0" height="0" style="fill: rgb(128, 139, 164); fill-opacity: 1;" x="0" y="0"/></g><g class="g-gtitle"><text class="gtitle" x="540" y="27" text-anchor="middle" dy="0.7em" style="opacity: 1; font-family: 'Open Sans', verdana, arial, sans-serif; font-size: 17px; fill: rgb(42, 63, 95); fill-opacity: 1; white-space: pre;">Experiment Comparison</text></g><g class="g-xtitle"><text class="xtitle" x="540" y="447.3" text-anchor="middle" style="opacity: 1; font-family: 'Open Sans', verdana, arial, sans-serif; font-size: 14px; fill: rgb(42, 63, 95); fill-opacity: 1; white-space: pre;">Secondary Speed [RPM]</text></g><g class="g-x2title"><text class="x2title" x="540" y="64.199609375" text-anchor="middle" style="opacity: 1; font-family: 'Open Sans', verdana, arial, sans-serif; font-size: 14px; fill: rgb(42, 63, 95); fill-opacity: 1; white-space: pre;">Vehicle Speed (km/h)</text></g><g class="g-ytitle"><text class="ytitle" transform="rotate(-90,31.146875,253)" x="31.146875" y="253" text-anchor="middle" style="opacity: 1; font-family: 'Open Sans', verdana, arial, sans-serif; font-size: 14px; fill: rgb(42, 63, 95); fill-opacity: 1; white-space: pre;">Engine/Primary Speed [RPM]</text></g></g></svg>