<svg class="main-svg" xmlns="http://www.w3.org/2000/svg" xmlns:xlink="http://www.w3.org/1999/xlink" width="1080" height="540" style="" viewBox="0 0 1080 540"><rect x="0" y="0" width="1080" height="540" style="fill: rgb(255, 255, 255); fill-opacity: 1;"/><defs id="defs-91250a"><g class="clips"><clipPath id="clip91250axyplot" class="plotclip"><rect width="920" height="306"/></clipPath><clipPath id="clip91250ax2yplot" class="plotclip"><rect width="920" height="306"/></clipPath><clipPath class="axesclip" id="clip91250ax"><rect x="80" y="0" width="920" height="540"/></clipPath><clipPath class="axesclip" id="clip91250ay"><rect x="0" y="100" width="1080" height="306"/></clipPath><clipPath class="axesclip" id="clip91250axy"><rect x="80" y="100" width="920" height="306"/></clipPath><clipPath class="axesclip" id="clip91250ax2"><rect x="80" y="0" width="920" height="540"/></clipPath><clipPath class="axesclip" id="clip91250ax2y"><rect x="80" y="100" width="920" height="306"/></clipPath></g><g class="gradients"/><g class="patterns"/></defs><g class="bglayer"/><g class="layer-below"><g class="imagelayer"/><g class="shapelayer"/></g><g class="cartesianlayer"><g class="subplot xy"><g class="layer-subplot"><g class="shapelayer"/><g class="imagelayer"/></g><g class="minor-gridlayer"><g class="x"/><g class="y"/><g class="x2"/></g><g class="gridlayer"><g class="x"><path class="xgrid crisp" transform="translate(271.66999999999996,0)" d="M0,100v306" style="stroke: rgb(211, 211, 211); stroke-opacity: 1; stroke-width: 1px;"/><path class="xgrid crisp" transform="translate(463.33,0)" d="M0,100v306" style="stroke: rgb(211, 211, 211); stroke-opacity: 1; stroke-width: 1px;"/><path class="xgrid crisp" transform="translate(655,0)" d="M0,100v306" style="stroke: rgb(211, 211, 211); stroke-opacity: 1; stroke-width: 1px;"/><path class="xgrid crisp" transform="translate(846.67,0)" d="M0,100v306" style="stroke: rgb(211, 211, 211); stroke-opacity: 1; stroke-width: 1px;"/></g><g class="y"><path class="ygrid crisp" transform="translate(0,358.19)" d="M80,0h920" style="stroke: rgb(235, 240, 248); stroke-opacity: 1; stroke-width: 1px;"/><path class="ygrid crisp" transform="translate(0,310.38)" d="M80,0h920" style="stroke: rgb(235, 240, 248); stroke-opacity: 1; stroke-width: 1px;"/><path class="ygrid crisp" transform="translate(0,262.56)" d="M80,0h920" style="stroke: rgb(235, 240, 248); stroke-opacity: 1; stroke-width: 1px;"/><path class="ygrid crisp" transform="translate(0,214.75)" d="M80,0h920" style="stroke: rgb(235, 240, 248); stroke-opacity: 1; stroke-width: 1px;"/><path class="ygrid crisp" transform="translate(0,166.94)" d="M80,0h920" style="stroke: rgb(235, 240, 248); stroke-opacity: 1; stroke-width: 1px;"/><path class="ygrid crisp" transform="translate(0,119.13)" d="M80,0h920" style="stroke: rgb(235, 240, 248); stroke-opacity: 1; stroke-width: 1px;"/></g><g class="x2"><path class="x2grid crisp" transform="translate(271.66999999999996,0)" d="M0,100v306" style="stroke: rgb(235, 240, 248); stroke-opacity: 1; stroke-width: 1px;"/><path class="x2grid crisp" transform="translate(463.33,0)" d="M0,100v306" style="stroke: rgb(235, 240, 248); stroke-opacity: 1; stroke-width: 1px;"/><path class="x2grid crisp" transform="translate(655,0)" d="M0,100v306" style="stroke: rgb(235, 240, 248); stroke-opacity: 1; stroke-width: 1px;"/><path class="x2grid crisp" transform="translate(846.67,0)" d="M0,100v306" style="stroke: rgb(235, 240, 248); stroke-opacity: 1; stroke-width: 1px;"/></g></g><g class="zerolinelayer"><path class="xzl zl crisp" transform="translate(80,0)" d="M0,100v306" style="stroke: rgb(235, 240, 248); stroke-opacity: 1; stroke-width: 2px;"/><path class="x2zl zl crisp" transform="translate(80,0)" d="M0,100v306" style="stroke: rgb(235, 240, 248); stroke-opacity: 1; stroke-width: 2px;"/></g><g class="layer-between"><g class="shapelayer"/><g class="imagelayer"/></g><path class="xlines-below"/><path class="ylines-below"/><g class="overlines-below"><path class="x2y-x"/><path class="x2y-y"/></g><g class="xaxislayer-below"/><g class="yaxislayer-below"/><g class="overaxes-below"><g class="x2y-x"/><g class="x2y-y"/></g><g class="overplot"><g class="xy" transform="translate(80,100)" clip-path="url(#clip91250axyplot)"><g class="scatterlayer mlayer"><g class="trace scatter tracede2f64" style="stroke-miterlimit: 2; opacity: 1;"><g class="fills"/><g class="errorbars"/><g class="lines"><path class="js-line" d="M2.34,401.73L0.25,401.64L1.62,399.32L1.62,399.29L1.67,400.46L1.3,396.89L1.29,396.47L1.18,330.37L1.17,329.99L1.33,315.7L1.37,315.54L2.06,308.54L2.06,308.22L1.52,301.48L1.47,301.28L1.16,299.76L1.7,299.6L1.74,299.56L1.66,298.22L1.64,298.11L1.37,293.76L1.35,293.49L1.72,286.23L1.8,286.23L1.84,286.23L2.35,285.41L2.34,285.3L1.26,283.72L1.22,283.73L1.48,284.79L1.53,284.87L1.86,285.12L1.42,284.1L1.36,284.99L1.37,285.14L1.72,289.29L1.78,288.92L1.78,288.85L1.58,288.1L1.05,288.95L1.01,289.09L1.22,291.57L1.27,291.65L1.67,291.84L1.51,290.77L1.51,290.65L0.9,287.77L0.85,287.73L0.41,288.13L0.4,288.42L0.41,288.53L1.33,289.35L1.45,289.36L2.7,288.72L2.58,288.58L2.53,288.56L1.48,288.14L1.49,288.03L1.61,289.19L1.27,285.68L1.17,285.53L0.47,284.41L1.47,285.89L1.71,285.2L1.72,285.08L1.28,283.59L1.91,285.42L1.16,284.51L1.13,284.49L1.58,283.33L1.6,283.18L1.4,278.79L1.33,278.86L1.31,278.91L1.55,280.5L1.6,280.51L1.64,280.52L1.77,279.62L1.73,279.55L1.11,278.05L1.15,277.93L1.1,278.11L1.78,274.25L1.75,274.26L1.71,274.28L1.25,275.15L1.54,274.09L1.52,273.98L1.33,272.23L2,273.91L2.22,273.79L2.27,273.76L2.49,273.57L1.66,273.36L1.59,273.3L1.06,271.81L1.08,271.71L1.41,271.3L1.62,272.55L1.6,272.65L1.49,273.14L1.69,272.04L1.63,271.96L1.22,270.07L1.24,269.97L1.4,269.62L1.79,271.16L1.79,271.22L1,270.69L1.7,270.54L1.75,270.46L2.01,268.27L2,268.22L0.99,269.14L1.22,268.38L1.25,268.25L1.65,266.83L0.65,268.46L1.44,268.34L1.5,268.37L1.82,268.72L1.3,267.51L1.28,267.37L1.4,266.14L0.89,267.38L0.84,267.38L0.6,267.13L1.34,266.77L1.39,266.74L1.74,265.42L1.75,265.31L1.71,265.88L1.28,263.23L1.15,263.44L1.13,263.52L1.44,264.93L1.54,264.93L1.59,264.92L1.74,264.1L1.38,264.13L1.37,264.07L1.12,262.55L2,263.53L2.09,263.65L2.44,264.48L1.65,264.24L1.54,264.19L0.82,263.58L1.2,263.22L1.26,263.15L1.88,261.31L1.48,262.82L1.5,262.84L1.39,261.69L0.79,264.62L1.63,263.84L1.67,263.83L1.02,265.48L1.02,265.57L1.54,266.53L1.74,265.2L1.77,265.11L1.96,264.71L0.81,266.24L0.74,266.25L1.72,266.37L0.5,265.64L0.99,266.45L1.06,266.57L1.57,267.7L1.28,266.01L1.3,265.92L1.98,265.62L2.16,265.73L2.21,265.77L2.36,265.97L1.42,265.4L1.71,265.18L1.74,265.07L1.48,263.65L1.2,263.84L1.16,263.91L1.45,264.95L1.51,264.96L1.56,264.97L1.88,264.74L1.4,264.27L1.37,264.22L1.17,262.33L1.2,262.26L1.28,261.96L1.5,263.31L1.57,263.33L1.6,263.32L2.58,261.37L1.81,261.82L1.78,261.71L1.55,261.21L1.32,262.85L1.3,262.91L1.02,262.83L0.9,262.31L0.9,262.24L1.2,259.87L1.68,260.77L1.73,260.87L1.99,261.44L1.42,260.44L2.37,260.91L2.44,260.87L2.61,259.75L2.55,259.67L1.38,259.61L1.3,259.67L1.95,259.99L1.17,260.83L1.16,260.9L2.03,261.6L2.16,261.64L2.94,261.91L1.44,261.12L1.43,261.04L1.35,262.38L1.18,260.04L1.69,261.03L1.73,261.06L1.62,260.5L1.82,261.31L1.84,261.37L1.46,261.07L1.47,262.35L1.49,262.45L1.8,263.17L1.38,261.3L1.48,261.31L1.53,261.33L1.71,262.61L1.67,262.68L1.25,262.89L0.97,262.42L0.97,262.38L1.56,261.97L1.54,261.85L1.32,260.92L2.24,262.49L1.54,262.03L1.5,262.03L1.33,260.73L1.33,260.62L1.62,262.03L1.56,259.84L1.23,260L1.15,260.07L0.59,261.29L0.99,261.34L1.07,261.33L1.92,261.58L1.56,261.04L1.55,260.96L1.54,260.5L1.93,263.22L2.08,263.2L2.16,263.19L2.49,262.98L1.74,262.59L1.66,262.54L1.31,261.35L1.33,261.23L1.36,260.02L1.51,261.67L1.55,261.69L1.75,261.77L1.76,261.25L1.75,261.17L1.67,262.43L1.24,260.53L1.1,261.57L1.06,261.55L0.9,260.46L0.94,260.42L0.98,260.39L1.72,261L1.75,261.09L1.27,260.53L1.35,262.56L1.3,262.66L1.09,264.11L1.57,264.1L1.54,264.24L0.61,266.67L1.71,264.81L1.72,264.89L1.3,265.56L0.99,265.51L0.91,265.49L0.42,265.34L1.81,265.83L1.84,265.51L1.84,265.38L1.7,263.68L1.58,265.68L1.18,264.16L1.08,264.2L0.2,265.64L0.22,265.73L1.21,266.11L1.3,266.08L1.92,265.67L1.62,265.24L1.62,265.15L1.53,263.87L1.7,266.43L1.03,264.18L1.01,264.25L1.4,265.44L1.19,263.33L1.71,263.8L1.79,263.87L2.51,264.28L0.92,262.88L0.97,262.8L1.61,262.44L1.63,263.16L1.61,263.23L1.47,263.84L1.44,263.25L1.42,263.18L1.72,263.93L1.34,261.8L1.03,263.24L1.01,263.31L1.56,262.75L1.39,264.74L1.62,264.59L1.64,264.55L1.36,263.5L1.34,263.4L1.39,264.53L1.39,262.03L1.51,262.07L1.55,262.11L1.41,263.03L1.27,263.07L1.22,263.07L1.02,262.83L1.26,263.1L1.46,262.43L1.49,262.34L1.72,261.66L0.99,262.6L0.89,262.6L0.25,262.57L1.69,261.96L1.82,261.89L2.37,261.55L1.22,262.99L1.2,263.06L0.95,263.69L0.87,263.69L0.36,263.05L0.45,262.86L0.5,262.81L1.55,263.17L1.62,263.27L1.77,264.55L1.49,264.53L1.45,264.5L1.71,264.71L1.66,263.72L1.64,263.56L1.57,261.96L1.68,262.68L1.74,262.58L2.94,261.64L1.05,263.23L1.05,263.22L2.66,261.05L0.66,263.14L0.54,263.2L-0.16,263.33L2.24,262.47L2.25,262.64L2.23,262.73L1.23,263.63L1.15,263.63L0.78,263.36L1.6,263.73L1.45,263.04L1.44,262.92L1.99,261.4L2.09,261.43L2.14,261.46L1.9,262.56L1.83,262.62L1.36,262.79L1.76,261.75L1.76,261.69L1.75,261.46L1.3,263.32L1.02,262.45L0.98,262.37L1.03,260.82L1.16,260.82L1.21,260.85L1.41,262.11L1.41,262.15L1.39,261.07L1.45,262.99L1.81,262.59L1.85,262.53L1.71,260.61L1.68,260.49L1.59,259.98L1.08,261.07L1,261.11L-0.01,261.39L0.62,261.79L0.74,261.85L2.31,261.85L2.32,261.69L2.31,261.61L1.61,260.83L1.39,260.95L1.34,261.01L1.22,262.05L1.75,261.79L1.79,261.77L1.92,261.86L1.38,261.39L1.4,261.31L1.62,260.88L1.31,262.64L1.88,262.28L1.91,262.28L1.63,261.41L1.58,261.39L1.56,261.39L1.45,262.67L1.06,262.51L0.98,262.48L0.5,262.26L1.37,261.88L1.44,261.81L1.73,260.35L1.69,260.31L1.09,260.95L1.07,261.06L1.51,262.3L1.66,262.28L1.7,262.27L1.67,261.26L1.68,261.18L1.44,260.01L1.98,261.46L1.2,260.39L1.13,260.32L0.17,259.72L1.94,261.81L1.6,260.61L1.56,260.53L1.37,260.29L1.55,262.05L1.56,262.08L1.81,259.79L1.46,260.16L1.41,260.23L1.05,261.03L1.98,260.71L2,260.7L0.73,259.78L2.01,260.95L1.63,260.97L1.53,260.95L-0.53,260.8L0.92,260.54L1,260.44L1.36,258.93L1.55,259.94L1.58,260L1.87,260.2L1.57,259.45L1.4,260.32L1.38,260.42L1.86,259.11L1.54,263.32L1.58,263.5L1.79,265.19L1.31,265.31L1.3,265.39L1.77,267.79L1.78,267.88L1.17,268.78L1.15,268.79L1.66,267.15L1.7,267.03L1.78,266.29L1.16,267.87L1.02,267.13L0.98,267.2L1,268.19L1.27,268.23L1.33,268.22L1.76,268.18L0.95,267.64L0.91,267.53L1.07,266.16L1.6,267.2L1.64,267.25L1.8,267.81L0.95,267.26L1.29,268.03L1.34,268.16L1.75,269.62L1.45,267.06L1.45,267.02L1.37,268.74L1.6,266.44L1.64,266.3L1.47,265.3L1.62,266.41L1.74,266.45L2.82,266.41L0.35,265.64L0.53,265.35L0.6,265.26L1.86,264.04L1.9,264.81L1.89,264.89L1.59,265.34L1.57,263.85L1.51,263.7L1.25,262.7L2.07,264.2L1.3,263.88L1.18,263.81L0.03,263.52L1.82,263.74L1.88,263.66L2.03,263.05L1.59,264.93L1.3,264.01L1.29,263.92L0.48,262.82L1.28,263.74L1.36,263.78L1.76,264.11L0.84,262.86L0.85,262.75L1.85,261.68L1.9,261.7L1.84,262.55L1.74,262.6L1.7,262.61L1.49,261.76L1.49,261.7L1.36,259.35L1.32,259.38L1.3,259.42L2.15,260.81L2.25,260.87L2.84,260.91L1.36,260.4L1.96,259.92L1.99,259.85L1.99,259.4L1.84,261.36L1.39,260.17L1.38,260.09L1.55,261.49L1.26,259.32L1.5,259.69L1.54,259.79L1.68,260.71L1.78,259.57L1.8,259.51L2.08,259.32L1.34,260.97L1.01,260.71L0.99,260.68L1.54,259.49L1.6,259.47L2.01,259.87L1.97,260.18L1.95,260.25L1.6,260.67L1.48,259.61L1.44,259.53L1.05,258.46L1.93,260.14L1.88,258.8L1.88,258.7L1.82,257.9L1.35,260.13L1.17,259.38L1.13,259.34L1.25,258.27L1.3,258.21L1.65,258L1.74,258.82L1.73,258.92L1.56,259.55L1.68,257.24L1.09,257.94L1.06,257.92L1.29,256.75L1.34,256.68L1.71,256.35L1.76,257.33L1.8,257.39L1.97,257.87L1.39,256.03L1.34,257.56L1.3,257.55L1.06,257.52L1.47,257.44L1.55,257.03L1.56,256.94L1.52,256.02L1.58,257.97L1.15,256.92L1.12,256.79L1.89,257.33L1.4,254.99L1.4,254.87L1.35,226.57L1.29,226.51L0.51,226.6L1.57,227.67L1.56,227.74L1.48,230.49L1.57,230.5L1.62,230.48L2.08,229.04L2.08,228.82L1.35,225.02L1.27,224.76L1.34,222.48L1.43,222.45L2.24,222.08L1.94,221.68L1.83,221.57L-0.07,218.86L-0.09,218.67L0.56,217.07L0.66,216.99L1.4,215.9L1.36,215.81L1.5,213.99L1.54,213.92L1.53,212.2L1.51,212.15L1.45,211.77L1.56,212.49L1.23,212.54L1.16,212.54L0.44,212.25L1.17,211.8L1.23,211.78L1.78,212.2L1.44,211.76L1.44,211.73L1.59,211.61L1.2,213.59L1.18,213.7L1.2,214.49L1.53,212.96L1.84,214.12L1.89,214.17L1.99,214.73L1.54,214.87L1.46,214.88L0.58,214.75L1.82,214.45L1.41,214.14L1.41,214.08L1.44,209.99L2.01,210.06L2.07,210.05L2.22,209.77L1.81,209.38L1.71,209.31L0.67,207.66L0.73,207.57L2.27,206.88L2.28,206.89L0.99,207.35L1.8,206.33L1.76,206.3L1.18,206.25L2,206.51L1.41,206.96L1.4,207.01L1.19,206.68L1.85,207.92L1.88,207.99L1.16,208.06L2,208.74L1.39,208.71L1.36,208.7L1.39,207.92L0.82,208.26L0.78,208.3L0.77,208.53L1.69,208.04L1.74,208L1.98,207.89L1.28,208.52L1.32,207.83L1.35,207.72L1.83,204.29L1.81,204.23L1.23,202.49L1.29,202.43L1.56,201.82L1.63,202.7L1.66,202.73L0.89,202.25L2.3,202.87L2.3,202.68L2.27,202.63L0.97,201.24L0.92,201.24L0.5,200.88L0.61,200.48L0.65,200.4L2.08,196.92L2.05,196.86L1.32,194.99L1.69,195L1.74,195.01L2.02,195.06L-0.05,193.85L-0.17,193.76L-0.64,192.89L-0.14,192.76L-0.04,192.78L1.52,193.92L1.56,193.97L1.33,194.97L1.32,195.03L1.44,195.56L1.94,195.45L2.02,195.41L2.57,194.82L1.51,196.2L1.51,196.25L1.87,196.33L0.58,193.92L0.51,193.85L0.17,193.47L0.93,193.23L1,193.2L1.65,192.17L1.65,192.14L1.58,191.6L1.53,193.31L1.54,193.36L2,194.45L1.29,193.23L1,193.35L0.97,193.35L1.8,192.47L1.52,193.23L1.59,193.27L1.97,193.46L1.47,192.68L1.42,193.51L1.39,193.53L0.77,193.03L0.82,192.79L0.84,192.73L1.98,192.01L1.2,191.87L1.19,191.84L1.01,191.84L2.02,191.84L1.49,192.44L1.47,192.51L1.57,194.03L1.43,192.49L1.92,192.67L1.95,192.68L1.58,191.84L1.97,191.68L2.08,191.66L3.32,191.73L1.38,191.32L1.33,191.24L1.61,189.54L1.64,189.46L1.8,189.11L0.97,190.62L1.53,189.25L1.52,189.16L1.04,188.24L1.7,188.39L1.76,188.37L1.99,188.14L1.41,188.52L1.81,187.99L1.79,187.93L1.24,185.13L1.28,185.04L2.56,184.08L2.6,184.1L2.7,184.26L1.87,184.44L1.77,184.44L1.11,184.38L1.81,183.82L1.79,183.69L1.77,183.63L1.34,182.07L1.33,181.96L1.86,182.06L1.01,181.07L0.96,181.03L0.77,180.87L1.32,180.82L1.37,180.46L1.35,180.38L0.83,178.9L1.68,179.35L1.73,179.35L1.82,178.44L1.79,178.35L1.81,178.98L1.86,177.47L1.88,177.39L2.21,176.95L1.6,177.52L1.5,176.85L1.48,176.87L1.35,177.59L1.57,176.02L1.55,175.95L1.16,175.68L1.56,176L1.79,175.53L1.8,175.46L1.32,174.67L1.92,175.16L2.03,175.16L2.98,174.3L2.98,174.18L1.98,172.73L1.89,172.69L1.44,172.8L1.44,173.3L1.46,173.4L1.58,174.39L1.31,173.12L1.79,173.36L1.82,173.41L1.75,173.73L1.45,172.43L1.51,172.38L2.02,172.14L1.09,173.24L1.76,172.21L1.71,172.11L0.35,171.21L1.63,172.18L1.61,171.77L1.67,171.83L1.84,172.51L1.49,172.69L1.4,172.71L0.31,172.43L0.58,172.07L0.65,172.02L1.86,171.78L1.93,172.06L1.93,172.15L1.39,175.98L1.44,176.07L2.17,177.64L2.1,177.76L1.46,180.19L1.46,178.71L1.44,178.6L1.73,177.15L1.81,177.01L2.64,174.43L2.57,174.37L1,174.47L0.91,174.51L0.58,174.74L1.77,173.65L1.73,174.43L1.73,174.55L1.6,175.83L1.3,173.57L1.12,173.58L1.1,173.47L1.71,174.04L1.35,171.7L1.7,172.06L1.73,172.1L1.95,172.22L1.08,171.65L0.94,171.88L0.92,171.95L1.23,172.74L1.57,172.73L1.63,172.76L2.16,172.5L2.14,172.15L2.1,172.04L0.68,170.97L0.61,170.98L1.34,171.56L1.66,171.69L6.38,172.81L7.24,172.93L16.92,173.35L18.12,173.31L31.01,171.93L32.08,171.76L46.34,170.2L47.06,170.21L64.08,170.41L64.37,170.4L70.45,170.34L70.56,170.24L72.6,169.26L72.71,169.32L74.17,170.82L74.32,170.15L74.35,170.04L75,168.5L75.36,168.82L75.45,168.8L79.84,168.74L80.21,168.77L87.84,168.97L88.05,168.89L93.03,166.69L93.11,166.76L94.49,167.31L94.55,167.24L96.57,164.55L96.56,164.43L96.88,163.29L97.01,163.28L97.18,163.28L104.96,164.03L105.46,164.05L121.72,163.88L121.72,163.83L122.48,163.8L122.58,163.84L124.93,164.4L124.98,164.29L125,164.24L126.05,162.76L125.23,163.13L125.12,163.2L123.77,164.01L123.61,163.42L123.59,163.36L122.63,163.26L122.53,163.31L121.32,163.99L122.82,162.97L122.15,162.79L122.14,162.73L122.65,161.71L121.94,162.51L121.85,162.52L119.7,162.89L119.96,163.31L120.04,163.39L121.14,163.95L118.57,162.11L118.49,162.48L118.48,162.51L117.66,161.83L117.61,161.76L117.53,161.37L118.27,161.81L118.38,161.72L118.42,161.7L119.12,161.62L118.32,161.88L118.44,161.41L118.5,161.31L121.8,158.2L121.79,158.31L121.78,158.34L122.03,159.26L122.79,157.43L122.91,157.37L124.82,157.48L124.93,157.54L127.14,158.21L127.26,158.17L129.98,157.21L130,157.16L129.32,156.79L129.27,156.76L129.27,155.82L129.33,155.7L130.63,153.01L130.11,152.82L129.98,152.79L126.19,152.52L125.99,152.54L122.47,152.36L122.39,152.29L120.73,151.45L120.62,151.5L119.08,151.74L119.05,151.39L119.08,151.3L119.8,150.21L118.9,150.75L118.86,150.76L119.46,151.16L119.63,151.2L123.4,151.5L123.77,151.49L130.5,151.82L130.6,151.88L132.57,152.27L132.71,152.24L135.3,152.21L135.39,152.24L137.24,152.92L137.28,152.99L137.7,153.69L136.75,153.38L136.7,153.4L136.1,153.69L135.82,153.24L135.78,153.17L135.03,151.55L135,151.45L134.91,150.1L134.59,150.81L134.52,150.81L133.86,150.06L133.85,149.99L133.09,146.41L132.97,146.95L132.95,147.03L132.66,149.48L132.72,149.59L134.09,150.91L134.2,150.89L137.48,150.33L137.51,150.24L139.68,146.06L139.79,146.09L144.68,146.95L144.73,146.92L147.77,146.2L147.74,146.1L147.71,145.98L146.79,144.36L147.59,144.52L147.7,144.5L149.01,144.1L141.27,145.37L141.08,145.38L136.59,145.84L136.52,145.77L134.63,142.83L134.6,142.75L134.12,141.95L134.97,142.25L135.16,142.28L141.96,142.52L142.37,142.52L150.46,141.98L150.61,141.87L153.44,140.5L153.53,140.55L155.21,140.54L155.27,140.48L155.84,140.05L156.06,140.67L156.07,140.71L155.77,139.15L155.77,139L156.12,138.02L155.55,139.32L155.53,139.33L155.02,137.36L155.6,137.5L155.67,137.5L156.07,137.41L155.29,136.78L155.26,136.74L155.92,136.17L155.97,136.14L156.1,135.96L155.4,137.1L155.44,137.14L155.48,137.17L157.52,137.36L157.66,137.38L160.71,137.78L160.76,137.71L161.85,137.37L161.96,137.42L163.83,138.36L162.68,138.56L162.64,138.6L162.55,138.85L163.6,138.51L163.77,138.46L166.96,138.4L167.12,138.44L168.76,138.13L168.83,138.04L170.72,136.92L170.77,136.93L171.44,136.31L171.48,136.25L171.81,136.04L172.15,136.57L172.19,136.66L172.48,137.56L171.62,137.18L171.46,137.11L168.16,136.38L167.9,136.38L162.61,136.29L162.5,136.23L157.21,134.95L157.16,134.98L157.77,135.28L157.94,135.27L160.98,134.45L161.27,134.34L166.44,133.03L166.8,133.03L178.19,133.89L178.31,133.96L180.49,134.43L180.4,134.34L180.36,134.3L179.29,133.65L179.13,133.91L179.08,133.99L178.54,134.84L178.77,132.92L178.79,132.8L178.52,129.01L178.52,128.92L178.38,128.55L178.93,129.48L178.2,129.52L178.18,129.54L178.94,129.09L178.97,129.04L178.89,128.83L179.15,129.58L179.29,129.6L181.56,129.2L181.67,129.13L182.11,128.74L182.31,129.46L182.37,129.55L183.68,130.01L183.75,129.97L184.1,129.49L184.2,130.31L184.23,130.38L184.54,130.59L184.91,130.13L184.98,130L187.2,127.75L187.29,127.76L188.31,127.36L188.36,127.25L189.96,125.83L190,125.86L190.41,127.98L190.31,128.05L186.76,129.52L186.45,129.6L181.85,130.02L181.59,130L173.54,129.07L173.44,129L173.16,128.51L173.73,128.36L173.89,128.35L184.44,127.07L184.73,127.03L188.47,127.19L188.67,127.23L192.71,127.3L193,127.26L196.41,126.63L195.11,127.52L195.09,127.55L194.06,127.26L193.97,127.25L192.74,127.99L192.71,128.06L192.61,128.45L192.23,127.37L192.22,127.27L192.25,125.99L191.53,126.24L191.49,126.16L191.79,124.8L191.84,124.79L191.89,124.78L192.16,124.79L191.76,124.04L191.76,123.98L192.69,123.82L192.83,123.84L195.39,123.58L195.47,123.51L197.03,122.94L197.11,123L197.61,123.7L197.87,122.94L197.93,122.86L198.83,122.54L198.98,122.79L199,122.83L200.41,122.83L200.61,122.81L203.78,123.17L203.89,123.24L204.97,123.24L205.1,123.15L207.86,121.94L207.93,121.95L208.78,121.76L207.21,121.64L207,121.67L200.9,123.56L200.71,123.68L197.47,124.92L197.35,124.88L194.58,124.43L194.39,124.49L192.62,125.31L195.05,125.01L195.44,124.98L201.97,125.18L202.41,125.23L208.19,125.33L208.37,125.29L211.91,125.28L212.18,125.33L215.59,125.15L215.6,125.06L215.86,123.75L216.21,123.82L216.31,123.84L217.09,123.78L216.65,123.19L216.56,123.12L215.45,122.1L215.42,122.01L213.96,120.62L213.86,120.62L210.66,120.91L210.63,120.95L211.11,121.75L211.2,121.82L214.56,123.33L214.71,123.35L223.63,124.12L223.71,124.05L225.25,122.38L224.71,122.3L224.56,122.2L220.82,120.68L220.5,120.64L217.33,121.02L217.08,121.09L214.01,121.37L213.81,121.3L211.17,120.84L211.1,120.92L209.74,121.31L209.63,121.26L209.29,120.53L209.48,120.38L209.61,120.31L212.15,120.25L212.55,120.3L227.96,123.2L228.17,123.26L232.1,124.3L232.12,124.42L231.8,125.43L231.41,125.2L231.35,125.12L230.6,124.19L230.53,125.18L230.52,125.23L229.74,124.67L229.65,125.21L229.63,125.24L227.82,124.43L227.75,124.49L226.76,124.76L226.64,124.57L226.61,124.52L225.78,124.22L225.71,124.18L225.57,123.72L225.93,123.48L226.07,123.43L232.74,121.87L232.84,121.86L235.26,122.06L235.4,122.07L237.24,121.51L237.33,121.43L238.62,121.19L238.7,121.27L239.99,122.77L238.72,122.06L238.53,122.05L224.35,122.79L224.25,122.82L223.77,123.26L224.35,123.54L224.52,123.56L228.7,123.32L229.14,123.27L237.8,122.98L238.06,123.02L241.59,123.04L241.79,122.97L246.29,122.13L246.39,122.16L246.69,122.27L245.69,121.1L245.62,121.01L244.23,120.59L244.19,120.59L243.22,120.95L243.14,120.89L240.86,120.24L240.67,120.23L239.01,120.48L240.92,120.68L239.47,120.08L239.29,120.01L238.06,119.08L238.34,118.86L238.45,118.81L243.07,117.93L243.17,117.97L244.41,117.65L244.5,117.55L246.78,115.78L246.94,115.78L250.78,116.98L250.86,117.07L252.39,117.84L252.47,117.81L252.89,117.46L251.66,117.33L251.43,117.33L239.38,117.89L239.19,117.94L236.93,117.87L236.75,117.8L234.28,116.48L236.75,117L237.13,117.06L243.9,117.16L244.42,117.13L252.25,117.41L252.61,117.48L258.74,117.81L258.95,117.79L261.7,117.92L256.38,117.73L256.28,117.65L254.63,116.8L254.52,116.85L253.38,117.77L253.17,117.22L253.13,117.12L252.77,116.11L253.53,116.4L253.64,116.42L255.88,115.97L256.04,115.91L258.19,115.75L258.21,115.83L258.21,115.87L258.2,116.04L258.95,115.87L259.1,115.84L264.3,115.52L264.44,115.54L269.04,116.98L269.13,117.03L269.26,117.25L268.24,117.23L267.97,117.18L257.39,115.37L257.22,115.43L253.66,115.88L253.44,115.87L250.98,115.99L254.66,115.29L255.07,115.23L261.74,115.02L262.1,115.07L269.79,115.76L270.03,115.71L273.55,115.66L273.53,115.75L273.51,115.78L271.43,116.03L271.26,116.03L269.83,115.8L271.79,116.4L271.78,116.47L270.81,117.09L270.67,117.12L268.31,116.73L268.22,116.69L266.24,116.47L266.13,116.5L265.02,116.89L271.32,114.47L271.32,114.4L271.45,114.05L271.99,114.46L272.08,114.52L273.67,114.7L273.82,114.65L277.77,113.49L277.85,113.55L279.85,114.37L279.91,114.38L277.17,114.6L276.77,114.62L257.46,116.71L257.49,116.75L259.68,116.89L260.04,116.86L271.44,116.45L271.91,116.53L279.18,117.19L279.37,117.13L283.39,114.95L283.37,114.88L282.55,114.7L282.45,114.75L281.26,115.98L282.24,114.52L282.24,114.42L281.43,113.97L281.3,113.98L275.07,114.21L274.94,114.19L273.96,114.02L277.48,113.82L277.62,113.74L280.75,112.48L280.8,112.52L281.67,112.37L281.76,112.33L283.75,112.51L283.95,112.57L289.8,113.9L289.88,113.88L290.01,113.72L289.12,113.51L288.9,113.52L277.27,114.47L276.89,114.36L270.99,112.95L270.68,113L267.42,113.53L277.16,112.29L277.75,112.31L294.97,113.37L293.54,113.85L293.41,113.91L291.11,114.28L290.99,114.21L288.52,113.03L288.45,113.02L285.28,112.78L285.27,112.86L285.8,114.32L285.29,114.3L285.15,114.28L283.35,114.1L287.46,113.99L287.56,113.97L291.42,113L291.59,112.92L294.82,112.35L295.02,112.36L298.45,112.56L297.32,113.06L297.07,113.13L292.13,113.81L291.62,113.82L285.59,113.09L285.15,112.99L279.24,112.1L279.02,112.14L276.59,111.88L276.59,111.76L277.44,110.79L277.7,110.65L281.02,109.86L281.57,109.82L288.3,110.27L288.91,110.35L299.6,111.06L299.86,111.06L303.7,111.24L300.39,111.44L300.37,111.52L299.36,112.18L299.27,112.15L294.17,110.67L294.84,110.36L294.98,110.32L299.02,110.25L299.14,110.29L302.06,110.45L302.16,110.45L307.3,110.33L307.39,110.29L309.51,110.19L309.66,110.2L311.29,109.83L299.07,109.45L298.57,109.42L290.21,109.26L289.9,109.31L287,109.57L293.75,108.7L294.37,108.7L313.67,108.98L313.46,109.05L313.39,109.06L311.43,108.85L311.43,108.66L311.44,108.62L310.89,107.92L310.82,107.89L307.1,107.19L306.88,107.18L302.58,106.55L307.93,106.53L308.1,106.49L313.75,105.18L313.94,105.24L317.6,105.65L317.73,105.59L320.61,104.9L318.91,105.02L318.56,105.03L302,105.14L301.69,105.08L298.77,104.71L303.7,104.95L304.27,104.95L318.03,105.45L318.45,105.46L323.16,104.85L323.45,104.75L327.17,103.63L324.59,103.99L324.39,103.93L320.17,103.69L320,103.71L317.52,103.57L318.05,103.13L318.17,103.07L321.5,102.24L321.51,102.25L321.15,102.61L321.59,102.91L321.75,102.98L325.76,103.54L326.14,103.52L329.42,102.63L329.67,102.48L333.44,100.62L333.63,100.66L336.28,100.96L332.78,100.81L332.32,100.84L314.09,101.86L318.08,101.15L318.64,101.08L331.68,100.21L332.11,100.23L336.33,101.12L336.58,101.23L340.43,102.41L340.53,102.36L340.65,101.57L340.57,101.5L340.48,101.43L338.86,101.52L338.74,101.59L338.33,102.32L339.39,101.07L339.34,100.97L338.11,100.56L337.94,100.58L333.79,100.7L333.7,100.61L332.95,99.03L333.09,98.94L333.15,98.91L335.8,98.48L335.86,98.65L335.88,98.74L337.01,100.46L337.19,100.52L339.28,100.31L339.55,100.2L346.25,97.32L346.49,97.33L349.41,96.75L349.52,96.64L349.44,95.84L349.29,95.78L349.11,95.74L346.66,96.05L346.25,96.17L337.59,98.22L337.16,98.2L328.67,96.67L328.7,96.64L333.34,96.19L333.9,96.16L350.61,95.02L350.94,94.94L354.94,93.25L354.94,93.23L354.93,92.39L354.6,92.34L354.49,92.36L351.98,93.79L351.84,93.89L350.13,94.13L350.04,94.09L348.77,93.36L349.01,92.99L349.09,92.9L352.73,90.09L352.85,90.03L355.57,89.58L355.79,89.59L366.42,89.34L366.51,89.32L365.58,89.14L365.29,89.14L348.45,89.57L348.12,89.49L345.93,88.74L347.05,88.54L347.38,88.52L363.41,88.37L363.94,88.4L371.95,87.98L372.13,87.92L373.08,87.58L372.53,88.49L372.51,88.55L372.49,88.88L371.93,88.44L371.81,88.38L367.65,87.35L367.53,87.34L363.89,87.3L366.53,87.08L366.65,87L368.41,86.68L368.51,86.72L371.12,86.83L371.37,86.81L377.93,87.28L378.21,87.29L381.96,86.58L362.4,87.17L362.53,87.27L362.65,87.31L370.67,88.03L371.34,88.08L387.5,89.48L385.79,88.65L385.8,88.64L386.08,88.79L384.46,89.06L384.29,89.09L379.8,89.57L379.66,89.53L378.72,89.42L379.88,89.35L379.94,89.28L381.25,88.82L381.3,88.82L388.9,86.98L389.21,86.96L394.75,86.04L394.81,86.02L392.56,85.94L392.15,85.94L375.66,85.25L377.93,84.89L378.37,84.88L400.04,85.43L399.98,85.6L399.95,85.65L397.42,86.9L397.35,86.92L393.77,86.71L393.55,86.68L390.42,86.72L391.67,86.36L391.77,86.26L394.67,84.51L394.78,84.5L401.42,83.94L401.78,83.99L408.47,84.52L404.58,84.5L404.08,84.54L387.03,84.83L386.9,84.78L386.82,84.56L387.48,84.33L387.76,84.27L394.21,84.05L394.92,84.07L413.18,85.11L413.09,85.23L413.05,85.25L413.26,85.1L410.09,84.7L409.82,84.65L403.02,83.15L405.69,83.25L405.88,83.24L410.86,83.27L411.18,83.26L420.13,82.3L420.06,82.15L419.97,82.08L417.34,81.55L416.91,81.53L399.15,81.4L425.1,81.46L425.25,81.43L425.77,81.52L425.4,82.12L425.32,82.18L424.51,81.99L424.47,81.9L424.43,81.8L423.42,80.72L423.28,80.77L418.84,81.57L418.58,81.55L415.35,81.4L416.87,80.9L417.02,80.81L419.6,80.06L419.71,80.13L423.73,82.38L424.06,82.43L427.89,82.17L428.31,82.07L438.07,79.05L437.42,78.94L437.16,78.94L429.62,79.84L428.91,79.97L413.74,82L413.46,81.97L412.9,81.78L414,81.39L414.41,81.32L423.64,80.7L424.47,80.68L440.67,80.39L440.71,80.29L440.37,78.76L440.28,78.7L437.02,77.38L436.83,77.33L433.56,75.92L433.49,75.83L433.56,75.32L433.96,75.26L434.09,75.27L436.08,76.26L436.17,76.37L438.16,78.24L438.34,78.24L441.13,77.49L441.43,77.36L446.3,76.04L446.59,76.07L449.16,77.16L449.25,77.26L449.21,77.63L448.74,77.72L448.51,77.73L436.89,76.57L436.25,76.52L429.55,76.22L433.65,75.8L434.3,75.74L457.26,73.08L457.28,72.97L457.03,71.95L456.56,72.33L456.49,72.33L452.82,72.27L452.61,72.38L448.51,74.31L448.48,74.27L448.97,74.05L449.25,74.09L449.4,74.12L456.06,74.76L456.24,74.71L460.54,73.95L460.87,73.96L467.37,73.6L467.42,73.49L466.78,72.74L466.53,72.65L463.03,72.4L462.42,72.43L445.52,73.13L448.64,73.56L449.26,73.65L461.41,74.81L462.13,74.81L473.47,73.76L473.54,73.73L473.23,72.52L473.23,72.44L472.72,71.48L472.57,71.45L468.38,71.64L468.1,71.7L464.38,72.09L466.74,72.19L466.94,72.24L473.09,73.21L473.4,73.17L483.24,71.12L482.62,70.75L482.36,70.62L471.84,66.62L471.04,66.39L463.03,64.91L462.62,64.9L461.43,65.17L462.2,65.66L462.54,65.78L470.17,67.14L470.98,67.23L483.5,67.88L484.05,67.9L489.62,68.86L489.67,68.9L488.76,68.38L488.64,68.39L484.75,69.67L484.52,69.76L481.5,70.79L482.42,71.12L482.59,71.16L485.43,71.17L485.58,71.11L490.26,69.51L490.61,69.48L498.15,68.33L498.39,68.24L499.29,67.74L497.23,67.98L496.82,68.04L488.75,68.44L488,68.41L478.19,67.3L478.2,67.27L482.46,67.34L483.15,67.37L503.93,68.92L504.18,69.01L505.36,70.22L505.3,70.28L505.26,70.3L505.07,70.04L505.2,69.56L505.22,69.49L504.53,68.6L504.37,68.54L499.34,67.38L499.01,67.31L496.82,66.56L497.77,66.29L497.96,66.26L509.88,64.41L510.28,64.46L514.16,65.69L514.48,65.85L515.74,67.07L515.48,67.19L515.26,67.22L510.79,66.92L510.05,66.85L499.95,66.83L499.17,66.9L493.51,67.42L494.23,66.81L494.58,66.62L501.66,63.75L502.5,63.49L510.16,61.87L510.96,61.79L517.46,61.96L517.93,62.05L521.21,63.49L521.3,63.6L521.36,64.39L521.01,64.5L520.98,64.51L518.5,65.05L518.25,65.05L513.28,65.57L513.11,65.67L512.44,66.97L512.49,67.04L514.04,67.35L514.18,67.35L518.79,67.05L519.13,66.99L524.52,66.61L525.03,66.63L530.22,67.52L530.26,67.6L529.48,68.07L529.17,68.15L521.48,69.13L520.71,69.21L509.8,70.61L535.3,67.69L535.36,67.63L535.34,67.29L534.76,67.22L534.71,67.23L532.99,66.53L532.76,66.39L524.52,61.82L525.51,61.69L525.7,61.64L528.3,60.14L528.48,60.01L530.61,59.35L530.85,59.39L534.35,60.78L534.74,60.96L540.32,62.88L540.74,62.94L544.43,62.83L541.76,63.15L541.2,63.23L528.1,64.51L527.23,64.54L519.95,64.63L526.29,65.17L527.09,65.21L541.51,66.8L541.91,66.91L544.23,67.43L544.29,66.88L544.31,66.83L544.54,66.81L543.15,67.34L542.94,67.35L539.16,68.05L539.02,68.13L538.72,68.43L539.84,68.47L540.1,68.44L546.54,66.56L546.71,66.48L549.97,65.57L550.23,65.58L556.13,66.55L556.21,66.57L553.3,66.73L552.7,66.74L534.36,66.32L534.26,66.27L535.78,66.05L536.28,66.04L546.37,66.57L547.24,66.66L557.38,68.57L557.78,68.68L559.9,69.21L559.73,68.53L559.74,68.5L553.89,67.81L553.51,67.7L549.19,65.69L549.06,65.57L548.51,64.49L550.06,65.48L550.24,65.61L553.45,66.98L553.83,67.05L562.36,67.86L562.82,67.91L565.6,68.03L552.65,67.22L551.78,67.28L543.61,68.24L552.78,67.91L553.67,67.92L568.24,67.83L568.31,67.74L568.23,66.82L568.07,66.74L568,66.72L565.66,67.1L565.41,67.16L559.68,67.87L562.38,67.98L562.55,68.02L568.72,69.74L569.09,69.69L578.24,68.92L578.27,68.98L576.6,69.34L576.09,69.38L563.67,69.29L562.67,69.26L554.73,68.72L557.52,68.32L558.18,68.26L575.61,67.74L576.09,67.78L579.78,67.95L576.16,68.2L575.91,68.2L571.56,67.52L571.28,67.42L569.3,65.82L569.28,65.69L570.06,64.98L570.23,64.97L572.44,65.52L572.62,65.61L578.98,68.14L579.38,68.23L584.42,68.65L580.83,68.49L580.21,68.49L562.55,69.22L562.37,69.32L562.45,69.74L562.67,69.86L562.97,69.97L567.59,70.69L568.37,70.74L577.37,70.42L578.09,70.33L586.5,68.75L586.42,68.54L586.39,68.47L584.15,65.84L583.93,65.72L580.84,64.91L580.54,64.9L578.04,65.65L578.02,65.77L579,66.96L579.21,67.08L582.54,68.13L582.7,68.15L591.15,68.54L591.56,68.51L594.93,67.98L572.94,70.23L579.18,69.94L580.06,69.86L595.91,69.34L596.1,69.38L596.72,69.31L596.73,68.75L596.73,68.59L595.86,63.53L595.69,63.38L593.36,62.75L593.04,62.76L589.15,63.73L588.88,63.86L587.2,65.56L587.24,65.64L589.14,66.49L589.35,66.57L594.28,67.63L594.58,67.58L603.06,66.22L602.41,66.68L602.07,66.8L596.04,68.26L595.09,68.43L583.9,69.63L583.04,69.64L578.72,68.84L578.71,68.67L579.6,67.93L580.05,67.73L585.16,66.55L586.09,66.42L596.51,65.96L597.31,65.99L603.78,66.95L603.84,67.01L603.19,67.8L603.13,67.84L601.42,68.02L601.21,68L593.52,67.4L594.32,68.08L594.48,68.2L598.67,70.33L598.96,70.38L605.77,70.34L606.16,70.35L610.16,70.5L587.13,69.22L586.74,69.14L586.12,68.81L586.98,68.48L587.41,68.4L595.89,67.9L596.82,67.9L607.14,68.64L607.57,68.75L609.98,70.14L610.07,70.26L611.2,71.16L610.07,70.27L609.8,70.19L604.65,69.65L604.2,69.62L600.33,68.73L600.13,68.57L599.64,67.11L599.69,66.87L601.08,64.91L601.33,64.69L604.44,63.14L604.7,63.08L607.96,63.16L608.24,63.23L617.84,65.79L616.87,65.97L616.45,66L600.24,65.95L599.23,65.92L591.6,65.36L616.06,66.93L616.36,66.98L617.53,67.31L617.07,67.77L616.95,67.87L612.5,71.04L612.28,71.01L609.79,69.69L609.54,69.48L607.85,66.91L607.79,66.65L608.22,64.71L608.36,64.56L610.19,63.95L610.43,63.96L613.26,64.97L613.54,65.12L618.9,67.09L619.34,67.17L624.36,68.05L623.72,68.44L623.37,68.56L617.06,69.65L616.09,69.76L603.41,70.2L602.93,70.17L601.97,69.94L604.59,69.6L605.27,69.56L618.59,69.7L619.25,69.75L625.22,70.97L625.28,71.02L625.61,71.5L624.58,71.34L624.36,71.26L616.45,67.62L616.38,67.56L617.03,67.15L617.21,67.09L619.55,65.41L619.72,65.19L622.84,61.83L623.14,61.76L626.51,61.89L626.9,61.98L629.08,63.32L629,63.48L626.93,64.41L626.31,64.56L618.1,65.66L617,65.74L604.05,66.63L606.13,67.02L606.75,67.08L620.74,67.33L621.68,67.3L631.73,67.59L631.75,67.69L631.19,69.28L631.07,69.38L629.13,69.93L628.8,69.94L618.82,70.78L618.78,70.84L619.67,70.85L619.84,70.78L625.87,67.79L626.26,67.74L638.11,66.28L627.82,67.12L626.74,67.08L618.77,66.11L618,65.91L615.05,64.28L615.02,64.04L615.88,63.13L616.32,62.92L621.3,61.85L622.2,61.75L631.17,61.76L631.94,61.86L636.53,63.25L636.89,63.49L638.44,65.51L638.5,65.74L638.26,66.93L637.94,66.77L637.85,66.66L634.66,62.71L634.36,62.59L630.93,62.32L630.48,62.36L624.98,63.66L624.73,63.78L623.76,64.73L624.01,64.94L624.11,64.97L631.75,66.22L632.2,66.24L637.82,66.49L636.26,66.97L635.75,67.05L626.3,67.55L625.21,67.54L611.11,66.96L635.92,66.93L636.35,66.86L638.6,65.72L638.63,65.63L638.64,65.25L637.72,66.3L637.56,66.43L635.23,67.38L634.88,67.42L630.8,67.16L630.47,67.09L628.19,65.97L628.26,65.8L628.32,65.71L630.72,64.14L630.95,64.04L634.27,63.53L634.68,63.55L641.44,64.56L642,64.68L646.21,65.93L645.64,66.19L645.29,66.24L634.1,67.06L632.94,67.15L621.64,68.74L622.28,68.81L622.71,68.8L635.85,67.57L636.79,67.48L646.66,66.96L645.32,66.45L645.11,66.43L635.56,64.44L635.45,64.4L635.2,64.27L636.1,63.89L636.19,63.83L638.84,62.83L639.15,62.8L646.2,63.1L646.63,63.14L648.78,63.41L643.35,63.57L642.45,63.6L623.03,64.49L634.24,64.49L635.31,64.5L649.1,65.31L649.21,65.38L650.07,66.99L650.01,67.05L648.4,67.24L648.1,67.22L640.49,66.46L642.05,65.95L642.23,65.9L649.96,64.45L650.45,64.41L657.23,64.39L649.51,64.14L648.4,64.1L629.84,64.32L629.44,64.37L628.89,64.52L631.96,64.67L632.73,64.65L655.11,64.84L655.1,64.9L654.14,65.37L653.93,65.37L650.75,64.42L650.37,64.23L646.15,61.18L646.1,61.09L646.25,60.93L646.75,61.07L646.91,61.12L651.44,61.98L651.67,62.01L657.17,62.66L656.41,63.1L656.03,63.22L647.01,65.2L645.89,65.39L634.82,66.43L634.18,66.38L632.55,65.64L632.66,65.44L634.75,64.32L635.45,64.08L643.12,62.33L644.22,62.15L660.28,59.45L660.26,59.38L660.23,59.3L658.23,57.39L658.05,57.33L654.55,56.97L654.31,56.97L652.95,56.89L654.39,56.26L654.58,56.2L662.56,54.95L663.15,54.9L671.8,54.88L671.87,54.94L670.42,55.38L669.87,55.46L653.66,56.73L652.61,56.8L645.76,57.7L646.17,57.95L646.49,58.04L652.97,58.65L653.97,58.69L666.75,58.22L667.48,58.14L671.79,57.3L669.81,57.1L669.57,57.08L663.77,57.39L663.18,57.47L656.07,58.49L657.58,58.89L657.75,58.98L660.98,60.37L661.26,60.29L669.51,56.62L669.8,56.45L670.35,55.8L670.04,55.61L669.76,55.54L664.62,55.16L663.67,55.13L646.88,55.36L661.66,55.05L662.76,55.02L673.98,55.46L674.46,55.56L676.12,56.49L675.98,56.71L675.85,56.81L673.19,57.52L672.88,57.56L661.65,59.64L661.47,59.72L661.03,60.16L661.62,60.42L661.79,60.44L665.07,60.11L665.25,60.08L669.87,59.99L670.3,60.01L674.12,60.1L646.8,60.22L646.7,60.25L649.33,60.67L650.04,60.74L674.72,63.22L674.73,63.3L674.01,64L673.83,64.02L670.44,63.45L670.03,63.34L663.64,61.48L663.92,61.05L664.02,60.94L666.48,59.21L666.68,59.18L670.24,59.69L670.67,59.75L676.79,59.77L677.15,59.72L678.2,59.39L675.99,59.26L675.33,59.28L653.63,60.48L656.07,60.78L656.76,60.83L676.14,61.59L671.93,61.96L671.56,62.02L666.81,62.79L668.09,63.24L668.28,63.3L672,63.71L672.26,63.71L678.99,64.69L679.48,64.78L682.81,64.94L682.56,64.63L682.33,64.49L677.85,63.04L677,62.84L663.83,60.71L662.95,60.59L658.54,59.18L658.61,59.01L660.33,58.07L660.91,57.87L669.18,56.04L670.08,55.9L678.79,55.33L679.14,55.39L680.55,56.34L680.58,56.51L679.94,58.5L679.81,58.68L678.09,59.6L677.82,59.6L674.82,58.71L674.42,58.55L668.06,56.4L667.94,56.4L667.66,56.48L678.35,54.06L678.85,53.92L683.95,52.54L681.32,52.52L680.62,52.52L665.2,51.63L664.29,51.54L660.42,51.21L666.06,52.39L667.03,52.58L687.45,56.74L687.22,56.23L687.14,56.13L685.53,55.31L685.27,55.28L681.09,55.86L680.62,55.98L673.1,58.42L673.72,58.57L673.89,58.58L688.63,59.24L688.68,59.19L686.45,59.01L685.76,59.01L671.04,59.71L670.05,59.8L664.99,60.64L665.95,60.92L666.45,60.98L688.03,63.47L687.7,63.59L687.6,63.6L675.87,64.19L675.86,64.26L676.29,64.55L676.66,64.36L676.77,64.28L680.01,62.37L680.33,62.3L685.83,61.98L686.31,61.98L690.39,61.9L667.9,62.47L669.82,62.63L670.43,62.67L686.02,62.89L686.55,62.85L690.08,62.92L689.85,63.29L689.77,63.35L687.37,63.49L687.04,63.48L681.39,63.99L681.02,64.07L678.39,64.84L682.58,64.32L682.93,64.3L693.63,63.47L691.31,63.15L690.62,63.08L673.58,62.45L672.83,62.49L670.36,62.99L671.77,63.32L672.34,63.35L680.18,62.97L681.2,62.85L690.71,60.86L691.3,60.66L694.42,58.89L694.42,58.78L693.21,57.51L693.06,57.4L690.54,56.5L690.25,56.49L685.32,57.17L684.91,57.26L680.66,58.3L682.28,58.51L682.48,58.53L694.46,58.95L694.8,58.92L695.82,58.72L692.04,58.45L691.26,58.45L679.52,59.14L678.61,59.26L673.66,60.49L673.69,60.6L673.84,60.69L676.73,61.09L677.5,61.12L696.26,62.33L696.57,62.47L697.87,64.01L697.88,64.08L694.42,62.24L693.98,62.14L689.08,61.82L688.62,61.86L684.98,62.98L684.89,63.06L684.79,63.45L685.59,63.35L685.71,63.32L690.5,63.22L690.97,63.22L697.1,62.91L686.3,63.63L685.19,63.69L673.94,63.35L673.62,63.23L673.33,62.83L673.69,62.54L674.03,62.39L678.98,61.5L679.96,61.41L691.41,61.21L692.3,61.24L699.2,61.49L698.25,62.1L698.09,62.2L695.3,63.17L694.89,63.23L689.97,63.17L689.56,63.1L686.79,61.76L686.81,61.67L688.06,61.06L688.24,61.04L692.36,61.32L692.7,61.33L698.06,60.7L698.55,60.57L701.97,58.9L701.95,58.76L700.64,58.29L700.12,58.25L693.36,58.63L692.28,58.77L680.34,61.11L679.73,61.29L678.18,62.08L678.78,62.26L679.17,62.29L697,63.21L697.21,63.31L697.81,64.11L697.66,64.34L697.64,64.37L696.44,64.6L696.21,64.61L689.18,65.55L688.85,65.67L686.75,67.21L686.69,67.37L687.05,69.2L687.14,69.36L689.32,71.45L689.64,71.65L695.32,73.93L695.85,74.1L699.58,75.83L699.48,75.97L699.29,76.11L695.55,77.23L694.68,77.41L672.78,81.64L673.32,81.93L673.72,82.02L684.08,83.21L685.16,83.34L696.13,85.31L696.45,85.45L697.03,86.41L696.92,86.54L696.77,86.67L693.06,88.52L692.72,88.67L686.25,90.95L685.76,91.06L675.05,93.99L675.02,94.08L675.39,95.51L675.46,95.62L677.34,96.96L677.64,97.09L683.34,99.57L683.12,99.79L682.89,99.89L678.83,100.57L677.9,100.67L647.57,103.44L648.74,103.7L649.19,103.75L665.31,105.36L661.85,105.61L661.42,105.64L641.52,106.3L640.7,106.32L626.88,107.53L626.92,107.57L626.95,107.6L629.25,108.13L629.52,108.14L637.23,107.84L632.75,108.33L631.85,108.38L610.44,109.04L612.98,109.47L613.7,109.56L629.78,112.35L630.14,112.49L631.06,113.34L630.89,113.53L630.76,113.63L626.44,115.16L626.25,115.17L621.6,114.45L621.07,114.35L612.83,113.73L612.3,113.76L607.39,114.98L607.17,115.11L604.02,117.57L604.26,117.77L604.4,117.85L608.29,118.97L608.77,119.06L615.53,119.96L613.38,120.27L612.74,120.34L582.47,123.93L582.34,124.03L583,124.46L583.37,124.53L594.51,125.27L595.2,125.32L600.52,126.51L600.64,126.63L600.56,127.65L600.46,127.74L598.48,128.28L598.29,128.28L591.19,128.66L590.63,128.75L581.36,131.02L580.86,131.2L572.84,133.86L573.9,134.23L574.05,134.29L580.52,137.29L580.34,137.44L580.17,137.5L576.57,137.95L575.84,138L547.65,139.08L547.6,139.05L550.63,138.73L551.18,138.72L558.17,139.32L558.65,139.45L561.66,141.18L561.8,141.38L562.02,143.07L561.97,143.18L560.34,144.3L560.15,144.38L552.02,147.04L551.58,147.15L542.71,148.41L542.43,148.45L538.8,149.72L538.74,149.75L537.88,150.13L538.93,150.43L539.16,150.45L545.25,151.19L544.06,151.57L543.6,151.64L531.56,152.5L530.32,152.56L510.13,154.4L509.94,154.5L509.84,154.83L510.14,155.05L510.4,155.15L515,156.01L515.69,156.09L532.34,158.08L532.14,158.34L532.01,158.4L529.02,158.84L528.71,158.85L520.08,159.51L519.63,159.55L504.98,161.26L504.77,161.31L501.47,162.66L501.48,162.74L502.72,163.56L502.93,163.62L506.68,163.89L506.91,163.87L508.48,163.89L506.66,164.56L506.23,164.65L497.28,165.79L496.28,165.87L474.53,167.78L486.28,167.22L486.84,167.2L492.13,167.79L492.11,167.88L490.63,168.98L490.4,169.1L486.19,170.68L486.01,170.67L479.32,170.47L478.9,170.55L468.86,172.17L468.6,172.14L465.19,171.95L465.04,172.05L463.21,174.1L463.2,174.18L463.96,174.45L464.06,174.43L466.63,174.67L466.83,174.74L468.79,175.79L468.02,175.92L467.73,175.91L452.19,175.95L451.27,176.05L438.07,178.2L437.48,178.31L434.49,178.93L437.76,178.95L438.29,178.97L452.12,179.61L451.18,179.92L450.99,179.98L443.71,181.76L443.44,181.8L435.36,182.2L434.95,182.21L420.78,183.66L420.65,183.71L419.32,183.73L420.53,184L420.59,184.05L423.06,186.04L422.68,186.22L422.46,186.28L416.91,186.59L416.16,186.6L389.05,187.42L392.48,187.9L392.97,187.97L407.44,189.22L402.67,189.35L402.49,189.4L400.51,190.88L400.39,190.96L397.78,191.76L397.45,191.8L369.04,195.45L369.04,195.5L370.09,196.04L370.19,196.04L370.48,196.02L360.38,196.07L359.61,196.12L338.61,197.02L338.45,197L338.21,196.93L341.52,196.93L341.91,196.94L351.64,197.68L343.22,196.85L343.06,196.83L324.16,193.73L323.91,193.62L319.22,192.39L318.99,192.37L314.03,191L313.99,190.97L315.47,191.16L315.69,191.21L321.81,191.73L321.94,191.73L323.12,191.9L320.16,192.39L319.68,192.43L305.72,192.76L305.23,192.73L294.84,192.53L294.56,192.56L292.77,192.78L302.96,191.08L301.51,191.67L301.31,191.74L297.61,192.29L297.49,192.24L295.57,190.63L295.48,190.54L293.82,190.09L293.67,190.11L285.89,190.46L285.64,190.44L279.9,189.84L279.73,189.75L276.93,189.04L276.77,189.07L272.52,189.9L272.41,189.88L270.41,190.35L270.36,190.4L270.19,191.68L270.22,191.76L271.24,192.13L271.31,192.1L272.62,191.93L272.39,191.73L272.28,191.68L269.07,191.4L268.58,191.41L256.29,192.38L255.73,192.42L249.22,192.17L248.9,192.09L241.59,190.7L241.41,190.73L240.61,190.9L250.49,189.3L250.62,189.37L254.57,190.76L254.83,190.81L256.8,191.19L255.25,191.6L254.98,191.65L248.77,192L248.61,191.93L245.89,191.28L245.78,191.33L243.21,191.79L243.16,191.75L240.97,191.1L240.68,191.07L235.03,191.19L234.77,191.24L231.2,191.33L231.02,191.26L224.56,189.1L224.42,189.15L220.41,190.21L220.38,190.13L219.28,189.24L219.2,189.25L216.67,189.33L216.63,189.29L215.43,189.19L215.38,189.25L214.43,191.29L214.2,191.34L208.01,191.81L207.4,191.83L194.75,193.17L194.38,193.25L183.1,196.02L182.94,196.12L180.48,197.53L181.64,197.52L181.9,197.49L191.98,197.5L192.36,197.55L197.93,197.78L198.12,197.71L204.47,194.76L204.29,194.54L204.21,194.48L199.47,192.55L199.26,192.47L193.17,191.13L193.12,191.15L190.09,191.93L190.07,191.84L190.04,191.76L189.21,189.24L189.01,189.36L188.94,189.4L185.73,190.88L185.6,190.91L185.07,191.08L185.73,191.62L185.79,191.7L185.9,193.23L185.86,193.32L185.32,193.9L185.25,192.99L185.21,192.98L185.16,192.98L183.33,194.14L183.18,194.25L181.33,195.29L181.12,194.94L181.08,194.87L179.76,194.2L179.65,194.22L178.41,195.38L178.38,195.41L177.87,195.51L177.83,195.6L176.57,196.49L176.38,196.51L173.29,195.98L172.93,195.88L165.24,194.4L164.93,194.41L159.17,193.96L159.03,193.89L154.92,192.13L154.82,192.13L154.08,191.86L155.79,191.9" style="vector-effect: none; fill: none; stroke: rgb(99, 110, 250); stroke-opacity: 1; stroke-width: 2px; opacity: 1;"/></g><g class="points"/><g class="text"/></g><g class="trace scatter trace2c260c" style="stroke-miterlimit: 2; opacity: 1;"><g class="fills"/><g class="errorbars"/><g class="lines"><path class="js-line" d="M0,217L172.79,53.35L216.53,52.67L279.58,63.97L419.84,64.14L827.26,70.76" style="vector-effect: none; fill: none; stroke: rgb(239, 85, 59); stroke-opacity: 1; stroke-width: 2px; opacity: 1;"/></g><g class="points"><path class="point" transform="translate(0,217)" d="M3,0A3,3 0 1,1 0,-3A3,3 0 0,1 3,0Z" style="opacity: 1; stroke-width: 0px; fill: rgb(239, 85, 59); fill-opacity: 1;"/><path class="point" transform="translate(172.79,53.35)" d="M3,0A3,3 0 1,1 0,-3A3,3 0 0,1 3,0Z" style="opacity: 1; stroke-width: 0px; fill: rgb(239, 85, 59); fill-opacity: 1;"/><path class="point" transform="translate(216.53,52.67)" d="M3,0A3,3 0 1,1 0,-3A3,3 0 0,1 3,0Z" style="opacity: 1; stroke-width: 0px; fill: rgb(239, 85, 59); fill-opacity: 1;"/><path class="point" transform="translate(279.58,63.97)" d="M3,0A3,3 0 1,1 0,-3A3,3 0 0,1 3,0Z" style="opacity: 1; stroke-width: 0px; fill: rgb(239, 85, 59); fill-opacity: 1;"/><path class="point" transform="translate(419.84,64.14)" d="M3,0A3,3 0 1,1 0,-3A3,3 0 0,1 3,0Z" style="opacity: 1; stroke-width: 0px; fill: rgb(239, 85, 59); fill-opacity: 1;"/><path class="point" transform="translate(827.26,70.76)" d="M3,0A3,3 0 1,1 0,-3A3,3 0 0,1 3,0Z" style="opacity: 1; stroke-width: 0px; fill: rgb(239, 85, 59); fill-opacity: 1;"/></g><g class="text"/></g><g class="trace scatter trace7b2d93" style="stroke-miterlimit: 2; opacity: 1;"><g class="fills"/><g class="errorbars"/><g class="lines"><path class="js-line" d="M0,217L0,124.18L124.93,149.83L175.88,47.15L216.81,52.22L843.29,64.35L884.65,47.81" style="vector-effect: none; fill: none; stroke: rgb(0, 204, 150); stroke-opacity: 1; stroke-width: 2px; opacity: 1;"/></g><g class="points"><path class="point" transform="translate(0,217)" d="M3,0A3,3 0 1,1 0,-3A3,3 0 0,1 3,0Z" style="opacity: 1; stroke-width: 0px; fill: rgb(0, 204, 150); fill-opacity: 1;"/><path class="point" transform="translate(0,207.47)" d="M3,0A3,3 0 1,1 0,-3A3,3 0 0,1 3,0Z" style="opacity: 1; stroke-width: 0px; fill: rgb(0, 204, 150); fill-opacity: 1;"/><path class="point" transform="translate(0,124.18)" d="M3,0A3,3 0 1,1 0,-3A3,3 0 0,1 3,0Z" style="opacity: 1; stroke-width: 0px; fill: rgb(0, 204, 150); fill-opacity: 1;"/><path class="point" transform="translate(124.93,149.83)" d="M3,0A3,3 0 1,1 0,-3A3,3 0 0,1 3,0Z" style="opacity: 1; stroke-width: 0px; fill: rgb(0, 204, 150); fill-opacity: 1;"/><path class="point" transform="translate(175.88,47.15)" d="M3,0A3,3 0 1,1 0,-3A3,3 0 0,1 3,0Z" style="opacity: 1; stroke-width: 0px; fill: rgb(0, 204, 150); fill-opacity: 1;"/><path class="point" transform="translate(216.81,52.22)" d="M3,0A3,3 0 1,1 0,-3A3,3 0 0,1 3,0Z" style="opacity: 1; stroke-width: 0px; fill: rgb(0, 204, 150); fill-opacity: 1;"/><path class="point" transform="translate(288.12,53.66)" d="M3,0A3,3 0 1,1 0,-3A3,3 0 0,1 3,0Z" style="opacity: 1; stroke-width: 0px; fill: rgb(0, 204, 150); fill-opacity: 1;"/><path class="point" transform="translate(429.71,56.21)" d="M3,0A3,3 0 1,1 0,-3A3,3 0 0,1 3,0Z" style="opacity: 1; stroke-width: 0px; fill: rgb(0, 204, 150); fill-opacity: 1;"/><path class="point" transform="translate(843.29,64.35)" d="M3,0A3,3 0 1,1 0,-3A3,3 0 0,1 3,0Z" style="opacity: 1; stroke-width: 0px; fill: rgb(0, 204, 150); fill-opacity: 1;"/><path class="point" transform="translate(884.65,47.81)" d="M3,0A3,3 0 1,1 0,-3A3,3 0 0,1 3,0Z" style="opacity: 1; stroke-width: 0px; fill: rgb(0, 204, 150); fill-opacity: 1;"/></g><g class="text"/></g><g class="trace scatter trace21d400" style="stroke-miterlimit: 2; opacity: 1;"><g class="fills"/><g class="errorbars"/><g class="lines"><path class="js-line" d="M0,401.63L181.71,38.25" style="vector-effect: none; fill: none; stroke: rgb(128, 128, 128); stroke-opacity: 1; stroke-dasharray: 9px, 9px; stroke-width: 2px; opacity: 1;"/></g><g class="points"/><g class="text"/></g><g class="trace scatter trace68ac2c" style="stroke-miterlimit: 2; opacity: 1;"><g class="fills"/><g class="errorbars"/><g class="lines"><path class="js-line" d="M0,401.63L908.56,38.25" style="vector-effect: none; fill: none; stroke: rgb(128, 128, 128); stroke-opacity: 1; stroke-dasharray: 9px, 9px; stroke-width: 2px; opacity: 1;"/></g><g class="points"/><g class="text"/></g><g class="trace scatter trace782a11" style="stroke-miterlimit: 2; opacity: 1;"><g class="fills"/><g class="errorbars"/><g class="lines"><path class="js-line" d="M0,47.81L908.56,47.81" style="vector-effect: none; fill: none; stroke: rgb(255, 0, 0); stroke-opacity: 1; stroke-dasharray: 9px, 9px; stroke-width: 2px; opacity: 1;"/></g><g class="points"/><g class="text"/></g></g></g><g class="x2y" transform="translate(80,100)" clip-path="url(#clip91250ax2yplot)"><g class="scatterlayer mlayer"><g class="trace scatter traceb2b0e4" style="stroke-miterlimit: 2; opacity: 1;"><g class="fills"/><g class="errorbars"/><g class="lines"><path class="js-line" d="M0,229.5L908.56,229.5" style="vector-effect: none; fill: none; stroke: rgb(128, 128, 128); stroke-opacity: 1; stroke-dasharray: 9px, 9px; stroke-width: 2px; opacity: 1;"/></g><g class="points"/><g class="text"/></g></g></g></g><path class="xlines-above crisp" d="M0,0" style="fill: none;"/><path class="ylines-above crisp" d="M0,0" style="fill: none;"/><g class="overlines-above"><path class="x2y-x crisp" d="M0,0" style="fill: none;"/><path class="x2y-y crisp" d="M0,0" style="fill: none;"/></g><g class="xaxislayer-above"><g class="xtick"><text text-anchor="middle" x="0" y="419" transform="translate(80,0)" style="font-family: 'Open Sans', verdana, arial, sans-serif; font-size: 12px; fill: rgb(42, 63, 95); fill-opacity: 1; white-space: pre; opacity: 1;">0</text></g><g class="xtick"><text text-anchor="middle" x="0" y="419" style="font-family: 'Open Sans', verdana, arial, sans-serif; font-size: 12px; fill: rgb(42, 63, 95); fill-opacity: 1; white-space: pre; opacity: 1;" transform="translate(271.66999999999996,0)">1000</text></g><g class="xtick"><text text-anchor="middle" x="0" y="419" style="font-family: 'Open Sans', verdana, arial, sans-serif; font-size: 12px; fill: rgb(42, 63, 95); fill-opacity: 1; white-space: pre; opacity: 1;" transform="translate(463.33,0)">2000</text></g><g class="xtick"><text text-anchor="middle" x="0" y="419" style="font-family: 'Open Sans', verdana, arial, sans-serif; font-size: 12px; fill: rgb(42, 63, 95); fill-opacity: 1; white-space: pre; opacity: 1;" transform="translate(655,0)">3000</text></g><g class="xtick"><text text-anchor="middle" x="0" y="419" style="font-family: 'Open Sans', verdana, arial, sans-serif; font-size: 12px; fill: rgb(42, 63, 95); fill-opacity: 1; white-space: pre; opacity: 1;" transform="translate(846.67,0)">4000</text></g></g><g class="yaxislayer-above"><g class="ytick"><text text-anchor="end" x="79" y="4.199999999999999" transform="translate(0,406)" style="font-family: 'Open Sans', verdana, arial, sans-serif; font-size: 12px; fill: rgb(42, 63, 95); fill-opacity: 1; white-space: pre; opacity: 1;">1000</text></g><g class="ytick"><text text-anchor="end" x="79" y="4.199999999999999" style="font-family: 'Open Sans', verdana, arial, sans-serif; font-size: 12px; fill: rgb(42, 63, 95); fill-opacity: 1; white-space: pre; opacity: 1;" transform="translate(0,358.19)">1500</text></g><g class="ytick"><text text-anchor="end" x="79" y="4.199999999999999" style="font-family: 'Open Sans', verdana, arial, sans-serif; font-size: 12px; fill: rgb(42, 63, 95); fill-opacity: 1; white-space: pre; opacity: 1;" transform="translate(0,310.38)">2000</text></g><g class="ytick"><text text-anchor="end" x="79" y="4.199999999999999" style="font-family: 'Open Sans', verdana, arial, sans-serif; font-size: 12px; fill: rgb(42, 63, 95); fill-opacity: 1; white-space: pre; opacity: 1;" transform="translate(0,262.56)">2500</text></g><g class="ytick"><text text-anchor="end" x="79" y="4.199999999999999" style="font-family: 'Open Sans', verdana, arial, sans-serif; font-size: 12px; fill: rgb(42, 63, 95); fill-opacity: 1; white-space: pre; opacity: 1;" transform="translate(0,214.75)">3000</text></g><g class="ytick"><text text-anchor="end" x="79" y="4.199999999999999" style="font-family: 'Open Sans', verdana, arial, sans-serif; font-size: 12px; fill: rgb(42, 63, 95); fill-opacity: 1; white-space: pre; opacity: 1;" transform="translate(0,166.94)">3500</text></g><g class="ytick"><text text-anchor="end" x="79" y="4.199999999999999" style="font-family: 'Open Sans', verdana, arial, sans-serif; font-size: 12px; fill: rgb(42, 63, 95); fill-opacity: 1; white-space: pre; opacity: 1;" transform="translate(0,119.13)">4000</text></g></g><g class="overaxes-above"><g class="x2y-x"><g class="x2tick"><text text-anchor="middle" x="0" y="96.6" transform="translate(80,0)" style="font-family: 'Open Sans', verdana, arial, sans-serif; font-size: 12px; fill: rgb(42, 63, 95); fill-opacity: 1; white-space: pre; opacity: 1;">0</text></g><g class="x2tick"><text text-anchor="middle" x="0" y="96.6" style="font-family: 'Open Sans', verdana, arial, sans-serif; font-size: 12px; fill: rgb(42, 63, 95); fill-opacity: 1; white-space: pre; opacity: 1;" transform="translate(271.66999999999996,0)">10</text></g><g class="x2tick"><text text-anchor="middle" x="0" y="96.6" style="font-family: 'Open Sans', verdana, arial, sans-serif; font-size: 12px; fill: rgb(42, 63, 95); fill-opacity: 1; white-space: pre; opacity: 1;" transform="translate(463.33,0)">19</text></g><g class="x2tick"><text text-anchor="middle" x="0" y="96.6" style="font-family: 'Open Sans', verdana, arial, sans-serif; font-size: 12px; fill: rgb(42, 63, 95); fill-opacity: 1; white-space: pre; opacity: 1;" transform="translate(655,0)">29</text></g><g class="x2tick"><text text-anchor="middle" x="0" y="96.6" style="font-family: 'Open Sans', verdana, arial, sans-serif; font-size: 12px; fill: rgb(42, 63, 95); fill-opacity: 1; white-space: pre; opacity: 1;" transform="translate(846.67,0)">39</text></g></g><g class="x2y-y"/></g></g><g class="subplot x2y"/></g><g class="polarlayer"/><g class="smithlayer"/><g class="ternarylayer"/><g class="geolayer"/><g class="funnelarealayer"/><g class="pielayer"/><g class="iciclelayer"/><g class="treemaplayer"/><g class="sunburstlayer"/><g class="glimages"/><defs id="topdefs-91250a"><g class="clips"/><clipPath id="legend91250a"><rect width="802" height="53" x="0" y="0"/></clipPath></defs><g class="layer-above"><g class="imagelayer"/><g class="shapelayer"/></g><g class="infolayer"><g class="legend" pointer-events="all" transform="translate(139,475.4)"><rect class="bg" shape-rendering="crispEdges" style="stroke: rgb(68, 68, 68); stroke-opacity: 1; fill: rgb(255, 255, 255); fill-opacity: 1; stroke-width: 0px;" width="802" height="53" x="0" y="0"/><g class="scrollbox" transform="" clip-path="url(#legend91250a)"><g class="groups"><g class="traces" transform="translate(0,15.6)" style="opacity: 1;"><text class="legendtext" text-anchor="start" x="40" y="5.46" style="font-family: 'Open Sans', verdana, arial, sans-serif; font-size: 14px; fill: rgb(42, 63, 95); fill-opacity: 1; white-space: pre;">Test Data</text><g class="layers" style="opacity: 1;"><g class="legendfill"/><g class="legendlines"><path class="js-line" d="M5,0h30" style="fill: none; stroke: rgb(99, 110, 250); stroke-opacity: 1; stroke-width: 2px;"/></g><g class="legendsymbols"><g class="legendpoints"/></g></g><rect class="legendtoggle" x="0" y="-10.6" width="105.078125" height="21.2" style="fill: rgb(0, 0, 0); fill-opacity: 0;"/></g><g class="traces" transform="translate(220.953125,15.6)" style="opacity: 1;"><text class="legendtext" text-anchor="start" x="40" y="5.46" style="font-family: 'Open Sans', verdana, arial, sans-serif; font-size: 14px; fill: rgb(42, 63, 95); fill-opacity: 1; white-space: pre;">Old Model [(7, 3, 8, 0, 0)-0]</text><g class="layers" style="opacity: 1;"><g class="legendfill"/><g class="legendlines"><path class="js-line" d="M5,0h30" style="fill: none; stroke: rgb(239, 85, 59); stroke-opacity: 1; stroke-width: 2px;"/></g><g class="legendsymbols"><g class="legendpoints"><path class="scatterpts" transform="translate(20,0)" d="M3,0A3,3 0 1,1 0,-3A3,3 0 0,1 3,0Z" style="opacity: 1; stroke-width: 0px; fill: rgb(239, 85, 59); fill-opacity: 1;"/></g></g></g><rect class="legendtoggle" x="0" y="-10.6" width="212.1875" height="21.2" style="fill: rgb(0, 0, 0); fill-opacity: 0;"/></g><g class="traces" transform="translate(441.90625,15.6)" style="opacity: 1;"><text class="legendtext" text-anchor="start" x="40" y="5.46" style="font-family: 'Open Sans', verdana, arial, sans-serif; font-size: 14px; fill: rgb(42, 63, 95); fill-opacity: 1; white-space: pre;">New Model [(7, 3, 8, 0, 0)-0]</text><g class="layers" style="opacity: 1;"><g class="legendfill"/><g class="legendlines"><path class="js-line" d="M5,0h30" style="fill: none; stroke: rgb(0, 204, 150); stroke-opacity: 1; stroke-width: 2px;"/></g><g class="legendsymbols"><g class="legendpoints"><path class="scatterpts" transform="translate(20,0)" d="M3,0A3,3 0 1,1 0,-3A3,3 0 0,1 3,0Z" style="opacity: 1; stroke-width: 0px; fill: rgb(0, 204, 150); fill-opacity: 1;"/></g></g></g><rect class="legendtoggle" x="0" y="-10.6" width="218.453125" height="21.2" style="fill: rgb(0, 0, 0); fill-opacity: 0;"/></g><g class="traces" transform="translate(662.859375,15.6)" style="opacity: 1;"><text class="legendtext" text-anchor="start" x="40" y="5.46" style="font-family: 'Open Sans', verdana, arial, sans-serif; font-size: 14px; fill: rgb(42, 63, 95); fill-opacity: 1; white-space: pre;">Low gear ratio</text><g class="layers" style="opacity: 1;"><g class="legendfill"/><g class="legendlines"><path class="js-line" d="M5,0h30" style="fill: none; stroke: rgb(128, 128, 128); stroke-opacity: 1; stroke-dasharray: 9px, 9px; stroke-width: 2px;"/></g><g class="legendsymbols"><g class="legendpoints"/></g></g><rect class="legendtoggle" x="0" y="-10.6" width="135.859375" height="21.2" style="fill: rgb(0, 0, 0); fill-opacity: 0;"/></g><g class="traces" transform="translate(0,36.8)" style="opacity: 1;"><text class="legendtext" text-anchor="start" x="40" y="5.46" style="font-family: 'Open Sans', verdana, arial, sans-serif; font-size: 14px; fill: rgb(42, 63, 95); fill-opacity: 1; white-space: pre;">High gear ratio</text><g class="layers" style="opacity: 1;"><g class="legendfill"/><g class="legendlines"><path class="js-line" d="M5,0h30" style="fill: none; stroke: rgb(128, 128, 128); stroke-opacity: 1; stroke-dasharray: 9px, 9px; stroke-width: 2px;"/></g><g class="legendsymbols"><g class="legendpoints"/></g></g><rect class="legendtoggle" x="0" y="-10.6" width="139.375" height="21.2" style="fill: rgb(0, 0, 0); fill-opacity: 0;"/></g><g class="traces" transform="translate(220.953125,36.8)" style="opacity: 1;"><text class="legendtext" text-anchor="start" x="40" y="5.46" style="font-family: 'Open Sans', verdana, arial, sans-serif; font-size: 14px; fill: rgb(42, 63, 95); fill-opacity: 1; white-space: pre;">Governor</text><g class="layers" style="opacity: 1;"><g class="legendfill"/><g class="legendlines"><path class="js-line" d="M5,0h30" style="fill: none; stroke: rgb(255, 0, 0); stroke-opacity: 1; stroke-dasharray: 9px, 9px; stroke-width: 2px;"/></g><g class="legendsymbols"><g class="legendpoints"/></g></g><rect class="legendtoggle" x="0" y="-10.6" width="104.7802734375" height="21.2" style="fill: rgb(0, 0, 0); fill-opacity: 0;"/></g><g class="traces" transform="translate(441.90625,36.8)" style="opacity: 1;"><text class="legendtext" text-anchor="start" x="40" y="5.46" style="font-family: 'Open Sans', verdana, arial, sans-serif; font-size: 14px; fill: rgb(42, 63, 95); fill-opacity: 1; white-space: pre;">Idle</text><g class="layers" style="opacity: 1;"><g class="legendfill"/><g class="legendlines"><path class="js-line" d="M5,0h30" style="fill: none; stroke: rgb(128, 128, 128); stroke-opacity: 1; stroke-dasharray: 9px, 9px; stroke-width: 2px;"/></g><g class="legendsymbols"><g class="legendpoints"/></g></g><rect class="legendtoggle" x="0" y="-10.6" width="66.5234375" height="21.2" style="fill: rgb(0, 0, 0); fill-opacity: 0;"/></g></g></g><rect class="scrollbar" rx="20" ry="3" width="0" height="0" style="fill: rgb(128, 139, 164); fill-opacity: 1;" x="0" y="0"/></g><g class="g-gtitle"><text class="gtitle" x="540" y="27" text-anchor="middle" dy="0.7em" style="opacity: 1; font-family: 'Open Sans', verdana, arial, sans-serif; font-size: 17px; fill: rgb(42, 63, 95); fill-opacity: 1; white-space: pre;">Speed - Speed Diagram [73800-00]</text></g><g class="g-xtitle"><text class="xtitle" x="540" y="447.3" text-anchor="middle" style="opacity: 1; font-family: 'Open Sans', verdana, arial, sans-serif; font-size: 14px; fill: rgb(42, 63, 95); fill-opacity: 1; white-space: pre;">Secondary Speed [RPM]</text></g><g class="g-x2title"><text class="x2title" x="540" y="64.199609375" text-anchor="middle" style="opacity: 1; font-family: 'Open Sans', verdana, arial, sans-serif; font-size: 14px; fill: rgb(42, 63, 95); fill-opacity: 1; white-space: pre;">Vehicle Speed (km/h)</text></g><g class="g-ytitle"><text class="ytitle" transform="rotate(-90,31.146875,253)" x="31.146875" y="253" text-anchor="middle" style="opacity: 1; font-family: 'Open Sans', verdana, arial, sans-serif; font-size: 14px; fill: rgb(42, 63, 95); fill-opacity: 1; white-space: pre;">Engine/Primary Speed [RPM]</text></g></g></svg>