<svg class="main-svg" xmlns="http://www.w3.org/2000/svg" xmlns:xlink="http://www.w3.org/1999/xlink" width="1080" height="540" style="" viewBox="0 0 1080 540"><rect x="0" y="0" width="1080" height="540" style="fill: rgb(255, 255, 255); fill-opacity: 1;"/><defs id="defs-06be4b"><g class="clips"><clipPath id="clip06be4bxyplot" class="plotclip"><rect width="920" height="306"/></clipPath><clipPath id="clip06be4bx2yplot" class="plotclip"><rect width="920" height="306"/></clipPath><clipPath class="axesclip" id="clip06be4bx"><rect x="80" y="0" width="920" height="540"/></clipPath><clipPath class="axesclip" id="clip06be4by"><rect x="0" y="100" width="1080" height="306"/></clipPath><clipPath class="axesclip" id="clip06be4bxy"><rect x="80" y="100" width="920" height="306"/></clipPath><clipPath class="axesclip" id="clip06be4bx2"><rect x="80" y="0" width="920" height="540"/></clipPath><clipPath class="axesclip" id="clip06be4bx2y"><rect x="80" y="100" width="920" height="306"/></clipPath></g><g class="gradients"/><g class="patterns"/></defs><g class="bglayer"/><g class="layer-below"><g class="imagelayer"/><g class="shapelayer"/></g><g class="cartesianlayer"><g class="subplot xy"><g class="layer-subplot"><g class="shapelayer"/><g class="imagelayer"/></g><g class="minor-gridlayer"><g class="x"/><g class="y"/><g class="x2"/></g><g class="gridlayer"><g class="x"><path class="xgrid crisp" transform="translate(271.66999999999996,0)" d="M0,100v306" style="stroke: rgb(211, 211, 211); stroke-opacity: 1; stroke-width: 1px;"/><path class="xgrid crisp" transform="translate(463.33,0)" d="M0,100v306" style="stroke: rgb(211, 211, 211); stroke-opacity: 1; stroke-width: 1px;"/><path class="xgrid crisp" transform="translate(655,0)" d="M0,100v306" style="stroke: rgb(211, 211, 211); stroke-opacity: 1; stroke-width: 1px;"/><path class="xgrid crisp" transform="translate(846.67,0)" d="M0,100v306" style="stroke: rgb(211, 211, 211); stroke-opacity: 1; stroke-width: 1px;"/></g><g class="y"><path class="ygrid crisp" transform="translate(0,358.19)" d="M80,0h920" style="stroke: rgb(235, 240, 248); stroke-opacity: 1; stroke-width: 1px;"/><path class="ygrid crisp" transform="translate(0,310.38)" d="M80,0h920" style="stroke: rgb(235, 240, 248); stroke-opacity: 1; stroke-width: 1px;"/><path class="ygrid crisp" transform="translate(0,262.56)" d="M80,0h920" style="stroke: rgb(235, 240, 248); stroke-opacity: 1; stroke-width: 1px;"/><path class="ygrid crisp" transform="translate(0,214.75)" d="M80,0h920" style="stroke: rgb(235, 240, 248); stroke-opacity: 1; stroke-width: 1px;"/><path class="ygrid crisp" transform="translate(0,166.94)" d="M80,0h920" style="stroke: rgb(235, 240, 248); stroke-opacity: 1; stroke-width: 1px;"/><path class="ygrid crisp" transform="translate(0,119.13)" d="M80,0h920" style="stroke: rgb(235, 240, 248); stroke-opacity: 1; stroke-width: 1px;"/></g><g class="x2"><path class="x2grid crisp" transform="translate(271.66999999999996,0)" d="M0,100v306" style="stroke: rgb(235, 240, 248); stroke-opacity: 1; stroke-width: 1px;"/><path class="x2grid crisp" transform="translate(463.33,0)" d="M0,100v306" style="stroke: rgb(235, 240, 248); stroke-opacity: 1; stroke-width: 1px;"/><path class="x2grid crisp" transform="translate(655,0)" d="M0,100v306" style="stroke: rgb(235, 240, 248); stroke-opacity: 1; stroke-width: 1px;"/><path class="x2grid crisp" transform="translate(846.67,0)" d="M0,100v306" style="stroke: rgb(235, 240, 248); stroke-opacity: 1; stroke-width: 1px;"/></g></g><g class="zerolinelayer"><path class="xzl zl crisp" transform="translate(80,0)" d="M0,100v306" style="stroke: rgb(235, 240, 248); stroke-opacity: 1; stroke-width: 2px;"/><path class="x2zl zl crisp" transform="translate(80,0)" d="M0,100v306" style="stroke: rgb(235, 240, 248); stroke-opacity: 1; stroke-width: 2px;"/></g><g class="layer-between"><g class="shapelayer"/><g class="imagelayer"/></g><path class="xlines-below"/><path class="ylines-below"/><g class="overlines-below"><path class="x2y-x"/><path class="x2y-y"/></g><g class="xaxislayer-below"/><g class="yaxislayer-below"/><g class="overaxes-below"><g class="x2y-x"/><g class="x2y-y"/></g><g class="overplot"><g class="xy" transform="translate(80,100)" clip-path="url(#clip06be4bxyplot)"><g class="scatterlayer mlayer"><g class="trace scatter tracefdc423" style="stroke-miterlimit: 2; opacity: 1;"><g class="fills"/><g class="errorbars"/><g class="lines"><path class="js-line" d="M7.44,263.73L7.31,261.51L6.64,264.87L6.6,264.92L6.09,265.07L6.01,264.48L6.03,264.37L6.81,263.35L6.98,263.77L6.98,263.85L6.17,264.74L6.13,264.74L7.28,262.21L6.3,262.96L6.25,262.93L6.02,262.77L7.14,263.27L6.3,263.39L6.31,263.46L6.33,264.3L6.44,262.28L6.11,263.77L6.06,263.79L5.62,263.8L6.05,263.04L6.1,262.97L6.4,262.21L6.61,263.32L6.64,263.39L5.9,262.44L6.39,264.23L6.23,264.25L6.19,264.33L5.6,265.23L6.2,265.45L6.27,265.47L6.56,265.53L6.19,264.71L6.15,264.61L6.08,263.41L5.63,264.51L5.61,264.54L5.54,263.11L5.52,263.08L5.21,263.12L5.22,263.74L5.26,263.8L5.82,264.18L5.79,263.32L5.8,263.24L5.96,262.63L6.25,264.02L5.69,263.63L5.63,263.59L4.87,263.05L4.89,262.98L5.45,262.86L5.68,263.15L5.72,263.22L5.51,263.26L5.2,263.83L5.15,263.93L4.32,265.08L5.32,264.83L5.39,264.85L5.66,265.82L5.64,265.95L5.11,267.72L5.15,266.4L5.1,266.39L4.94,266.04L5.18,265.64L5.23,265.56L5.79,264.84L5.5,265.87L5.33,264.93L5.34,264.86L5.31,264.19L4.61,265.13L4.58,265.14L4.86,265.67L5,264.46L4.99,264.38L5.14,265.4L4.87,263.7L4.46,264.13L4.41,264.22L4.34,265.01L4.92,264.85L4.98,264.8L4.88,263.76L4.85,263.74L4.35,262.09L5.34,263.55L5.03,262.53L5.09,262.48L6.08,262.5L6.13,262.63L6.14,262.69L5.38,263.44L5.3,263.44L4.45,263.14L4.58,262.7L4.61,262.63L5.2,262L4.85,263.63L4.9,263.65L4.95,263.68L5.55,263.37L5.55,263.1L5.53,262.99L4.5,261.75L4.45,261.77L4.4,261.81L4.5,263.02L4.55,263.09L4.98,263.26L5.07,262.57L5.06,262.53L4.69,261.21L4.25,261.93L4.23,262L4.39,262.37L4.92,262.26L5.01,262.22L5.68,262L4.05,261.83L3.97,261.75L3.8,260.41L3.84,260.36L4.21,260.34L4.32,260.93L4.31,260.98L4.25,262.79L4.27,262.88L4.48,263.45L4.46,261.86L4.5,261.83L4.7,261.86L4.44,262.61L4.41,262.65L4.37,262.11L3.68,262.18L3.66,262.02L3.66,261.92L4.2,260.84L4.03,262.14L4.41,261.83L4.45,261.81L3.26,261.19L3.26,261.1L4.15,260.38L4.23,260.41L4.7,261.4L4.68,261.48L4.09,261.89L4.02,261.13L3.98,261.11L3.57,261.86L3.57,261.93L3.9,262.35L4.33,262.14L4.36,262.11L4.18,261.25L4.2,261.18L4.16,261.91L4.2,260.24L3.65,261.29L3.59,261.26L3.36,260.97L4.15,260.84L4.22,260.8L4.41,259.67L4.39,259.62L4.42,260.63L4.44,260.7L4.52,261.06L4.02,258.77L4.07,258.77L4.31,259.34L4.1,259.58L4.03,259.63L3.11,259.64L4.25,258.99L4.17,258.82L4.13,258.73L4.58,259.13L4.17,257.36L4.21,257.33L4.37,257.23L3.72,258.2L3.88,257.37L3.91,257.33L4.05,257.25L3.93,258.21L3.92,258.27L3.1,259.02L3.6,256.9L4.07,257.6L4.12,257.66L4.32,257.87L3.34,257.37L3.6,258.12L3.57,258.15L3.36,258.51L3.78,257.6L3.77,257.48L3.54,257.62L3.47,255.91L4.01,256.91L4.03,256.87L3.7,255.22L3.66,255.22L3.62,255.23L3.35,256.56L3.39,256.6L4.08,256.53L3.1,255.8L3.36,255.66L3.39,255.66L3.67,257.11L3.14,255.35L3.85,256.24L3.85,256.19L3.86,255.96L3.23,256.59L3.15,256.61L2.77,256.8L3.73,257.24L3.85,257.28L4.51,257.37L3.34,257.42L3.45,257.83L3.49,257.88L3.79,258.22L3.03,258.42L2.95,258.48L2.45,259.88L2.48,259.99L3.7,261.38L3.74,261.42L3.37,260.82L3.7,262.18L3.66,262.27L3.72,263.41L3.78,263.44L3.84,263.47L4.18,263.47L4.23,262.89L4.22,262.76L3.7,260.33L3.45,261.82L3.42,261.83L3.22,261.32L3.32,262.55L3.35,262.66L3.55,265.58L3.41,265.56L3.38,265.54L3.26,265.44L3.8,266.68L3.83,266.81L3.92,268.22L3.45,263.03L3.45,262.49L3.99,240.79L4.09,240.32L4.81,233.6L4.79,233.01L3.62,226.18L3.54,225.84L3.48,222.71L3.53,222.56L3.6,219.59L3.55,219.25L2.78,210.25L2.83,209.97L4.1,203.14L4.07,202.75L3.36,185.22L3.35,184.87L3.3,163.01L3.31,162.78L3.02,152.04L2.98,151.87L3.19,149.51L3.2,149.33L3.21,146.76L3.28,146.65L3.38,144.93L3.31,144.72L2.24,142.59L2.58,142.52L2.83,142.5L22.74,141.3L24.1,141.13L47.81,138.79L48.55,138.79L57.59,138.05L58.17,137.9L72.68,133.1L72.89,132.91L77.74,129.17L77.88,129.1L78.78,127.66L78.8,127.48L79.56,124.72L79.76,124.54L82.88,123.31L83.47,123.16L118.12,114.46L118.5,114.22L122.52,110.52L122.74,110.24L130.1,99.52L130.19,99.29L132.29,96.12L132.58,95.89L136.69,93.72L137.19,93.52L146.97,89.2L147.31,88.95L153.27,83.36L153.43,83.17L156.28,78.67L156.37,78.51L158.63,73.63L158.62,73.5L158.9,70.31L158.99,70.19L160.92,66.94L160.91,66.79L160.69,62.12L160.74,62.11L165.31,61.97L165.92,61.86L172.48,59.74L173.27,59.39L187.69,53.33L188.16,53.27L195.79,52.33L196.03,52.17L200.81,49.46L200.99,49.5L203.52,51.03L203.72,51.15L206.45,51.99L206.74,52.01L210.14,51.38L210.38,51.25L212.93,48.9L213.06,48.74L216.25,46.12L216.36,46.1L220.37,44.75L220.57,44.58L224.37,41.68L224.55,41.72L226.2,43.06L226.3,43.23L227.52,45.42L227.73,45.26L227.86,45.15L235.1,39.57L235.5,39.4L239.59,38.53L239.91,38.54L243.13,39.49L243.33,39.59L248.06,41.17L248.24,41.18L251.84,40.69L252.23,40.59L260.66,37.35L261.15,37.12L266.92,34.72L267.05,34.81L272.56,40.39L272.47,40.5L270.66,41.36L270.43,41.41L266.01,42.83L265.92,42.86L265.35,42.49L265.37,42.22L265.41,42.06L266.58,40.73L266.9,40.53L270.22,39.44L270.85,39.35L275.89,39.47L276.67,39.59L283.57,41.66L284.29,41.96L295.06,46.29L295.46,46.31L299.06,45.76L299.39,45.66L305.37,42.79L305.49,42.65L308.22,40.33L308.36,40.33L310.45,41.21L310.46,41.24L312.99,45.67L313.19,45.74L317.88,46.31L318,46.31L318.53,45.6L318.55,45.46L319.43,43.45L319.6,43.27L321.74,42.33L322.08,42.29L325.68,42.71L326.11,42.83L332.95,45.55L333.24,45.67L340.3,48.16L338.89,48.33L338.61,48.35L333.94,49.5L333.6,49.64L328.9,50.99L328.56,50.98L326.22,50.05L326.09,49.89L326.22,48.81L326.42,48.64L328.73,47.87L329.3,47.79L335.81,47.77L336.61,47.83L351.96,48.52L352.36,48.48L357.29,48.62L357.5,48.72L359.15,50.44L359.23,50.58L359.84,51.22L360.14,50.72L360.19,50.59L361.13,48.36L361.34,49.41L361.32,49.6L360.21,51.99L360.07,52.12L357.09,55.4L357.06,55.51L357.03,55.97L357.7,55.77L357.84,55.73L360.27,55.8L360.53,55.88L364.59,56.93L364.7,56.78L367.19,54.17L367.5,54L370.41,53.39L370.81,53.4L375.23,54.4L375.6,54.53L383.37,57.68L383.33,57.77L383.27,57.87L381.73,58.58L381.46,58.64L368.58,60.63L368.5,60.72L369.21,61.14L369.53,61.17L376.11,60.98L376.89,60.94L390.35,60.96L390.87,60.99L398.53,62.04L398.7,62.13L401.16,62.66L401.25,62.62L402.28,62.75L402.3,62.91L402.29,62.95L400.86,63.46L400.65,63.51L395.95,64.76L396.04,64.98L396.09,65.05L397.63,65.48L397.84,65.48L405,66.12L405.37,66.17L413.81,66.44L414.04,66.38L415.92,65.72L414.13,65.6L413.79,65.58L401.39,65.63L400.87,65.68L397.08,66.22L401.47,66.37L402.18,66.38L418.76,65.87L419.37,65.83L425.79,66.2L426.12,66.3L429.29,67.45L429.32,66.82L429.33,66.76L429.05,65.14L428.94,65.05L426.99,64.44L426.77,64.42L421.23,64.71L421.77,65.17L421.91,65.25L427.86,68.3L428.07,68.28L438.17,66.63L438.36,66.47L439.46,64.55L439.46,64.34L438.64,63.07L438.41,62.92L435.61,62.21L435.16,62.18L428.83,62.61L428.29,62.7L423.22,64.23L423.12,64.35L423.71,65.03L424.03,65.13L430.81,66.03L431.63,66.1L452.83,67.54L452.97,67.5L453.38,67.3L452.71,68.18L452.67,68.3L451.34,70.44L451.2,70.49L449.05,70.36L448.85,70.3L444.81,68.95L445,68.65L445.1,68.52L449.57,64.02L449.65,63.97L450.78,64.2L450.94,64.29L457.48,66.79L457.76,66.85L460.79,67.73L460.61,67.94L460.49,68.02L457.59,68.81L457.15,68.89L442.98,70.62L442.7,70.61L442.09,70.48L445.56,70L446.25,69.96L473.9,69.18L473.91,69.26L473.57,70.46L473.28,70.19L473.2,70.11L469.39,67.49L469.06,67.34L465.11,66.63L464.89,66.65L463.7,67.26L464.06,67.56L464.17,67.62L469.1,69.55L469.31,69.56L473.17,68.84L473.46,68.76L481.21,67.48L481.49,67.5L482.75,68.31L482.72,68.46L481.41,69.67L481.07,69.85L477.1,70.97L476.48,71.05L469.59,71.27L468.91,71.24L463.16,70.55L463.91,70.25L464.26,70.19L473.25,69.33L474.12,69.28L486.61,69.23L487.21,69.29L492.18,70.56L492.41,70.7L493.26,72.21L493.22,72.3L492.7,72.57L492.44,72.25L492.39,72.15L490.26,69.55L490.02,69.38L486.34,67.85L486.07,67.81L483.4,68.08L483.26,68.17L482.72,69.41L482.77,69.54L484,70.64L484.21,70.73L487.63,71.44L487.83,71.46L498.34,71.85L498.61,71.79L499.84,70.94L499.71,70.72L499.58,70.62L497.44,70.15L496.97,70.14L491.26,70.81L490.52,70.96L478.11,73.52L482.35,73.31L483.09,73.29L499.12,73.54L499.9,73.61L508.28,74.72L508.29,74.46L508.28,74.31L507.48,69.1L507.32,69.08L502.74,69.53L502.39,69.58L498.46,70.94L498.41,71.07L498.83,72.22L498.99,72.4L502.15,74.71L502.4,74.83L504.6,75.19L504.75,75.12L507.33,72.59L507.59,72.38L511.28,70.63L511.66,70.54L516.01,70.22L509.76,71.06L509.09,71.16L498.95,73.36L498.48,73.53L496.92,74.77L497.03,74.89L497.21,75.01L500.3,75.53L500.96,75.57L519.79,75.38L520.42,75.36L526.63,74.47L526.69,74.4L526.47,73.93L526.07,73.98L526,74.01L523.38,74.72L523.11,74.73L514.36,74.21L517.45,74.85L517.62,74.96L520.69,77.82L520.96,78.03L524.15,79.38L524.58,79.45L528.25,79.25L528.7,79.14L532.46,77.38L532.55,77.26L532.05,76.79L531.79,76.77L525.75,77.11L524.97,77.17L511.5,77.16L510.96,77.12L508.97,76.95L522.49,77.11L523.43,77.1L536.89,76.68L536.43,76.24L536.37,76.2L535.52,76.57L535.39,76.61L532.52,76.72L532.14,76.7L524.21,75.56L529.96,76.58L530.1,76.6L533.47,76.36L533.75,76.34L539.51,75.72L538.68,75.41L538.38,75.36L532.06,75.29L531.27,75.32L516.57,76.19L533.06,75.97L534.08,75.95L545.35,76.56L545.68,76.66L547.11,77.76L546.99,77.88L546.94,77.9L535.55,76.88L539.82,77.62L540,77.74L543.69,79.61L543.99,79.66L552.27,80.24L552.29,80.2L550.1,79.6L549.58,79.52L539.33,78.76L538.43,78.73L530.36,78.48L542.34,78.03L543.23,78.03L555.46,78.32L555.45,78.51L555.43,78.61L554.55,79.7L554.45,79.68L545.37,77.96L549.91,78.4L550.15,78.39L559.33,78.56L535.57,78.31L535.63,78.3L562.56,78.77L562.58,78.83L562.92,80.98L562.25,80.81L562.06,80.75L556.57,79.75L556.25,79.75L554.24,80.3L556.55,79.48L556.72,79.4L560.71,78.44L560.94,78.41L567.9,77.99L568.15,77.99L569,77.97L548.98,78.56L548.56,78.59L547.5,78.68L558.14,78.46L559.1,78.44L575.02,78.2L575.05,78.3L575.44,79.23L574.89,79.23L574.7,79.23L564.6,79.05L566.49,79.58L566.69,79.64L570.79,79.98L571.03,79.99L578.67,79.58L578.95,79.52L579.63,79.2L578.47,78.87L578.06,78.83L569.11,78.94L568.16,79L556.82,80.53L556.36,80.66L555.21,81.3L555.76,81.51L556.12,81.56L563.58,81.5L564.6,81.44L583.17,81.04L581.84,80.47L581.64,80.43L573.42,79.69L573.08,79.64L570.11,79.11L574.34,79.06L574.57,79.05L579.68,79.28L580.03,79.36L584.96,81.25L585.26,81.43L586.36,82.64L586.16,82.82L585.99,82.88L583.17,82.84L582.55,82.76L562.57,80.68L562.63,80.71L567.01,80.9L567.85,80.89L584.18,80.02L584.92,79.94L590.81,78.53L590.85,78.48L590.98,78.24L590.05,78.53L589.87,78.55L585.38,78.32L585.01,78.29L580.34,78.72L580.18,78.81L579.92,79.55L580.12,79.76L580.27,79.86L583.18,80.74L583.42,80.78L585.5,80.42L585.6,80.32L588.2,79.37L588.64,79.3L594.12,79.29L594.53,79.36L596.1,80.11L595.86,80.3L595.63,80.38L591.41,80.79L590.62,80.8L573.14,80.46L592.12,80.91L592.99,80.98L600.3,81.54L600.21,81L600.2,80.95L599.12,80.4L598.91,80.36L592.99,80L592.55,80.02L585.69,80.48L586.28,80.05L586.4,80.03L588.88,80.75L589.09,80.81L592.3,81.1L592.68,81.07L600.93,79.84L599.31,79.81L598.83,79.83L578.97,80.49L580.17,80.1L580.66,80.02L589.6,79.29L590.57,79.27L605.19,78.34L605.27,78.27L605.74,77.99L603.88,78.95L603.56,79.01L593.47,80.2L593.93,79.95L594.07,79.92L596.58,80.28L596.82,80.37L601.35,81.42L601.65,81.4L609.33,81.38L609.52,81.41L609.78,81.48L605.56,81.07L604.77,80.99L588.69,80L588.01,80.01L585.52,80.2L610.58,79.6L610.47,79.98L610.49,80.05L610.4,80.82L610.04,80.86L609.88,80.86L601.08,79.81L601.13,79.66L601.18,79.58L602.63,78.96L602.77,78.98L609.72,79.77L610.15,79.76L614.55,79.85L590.46,80.76L599.81,79.83L600.88,79.73L619.66,78.54L619.18,78.74L619.15,78.81L617.6,80.17L617.34,80.27L612.52,81.16L612.03,81.2L605.74,81.51L612.56,81.36L612.93,81.43L622.15,83.59L609.43,81.49L608.58,81.43L603.08,81.3L609.34,81.02L610.25,80.95L628.12,78.67L628.11,78.64L627.14,78.63L627.03,78.67L623.14,79.42L622.75,79.44L615.93,79.05L615.7,79L614.18,78.6L616.26,79.8L616.51,79.9L619.96,80.36L620.27,80.33L627.14,79.95L627.18,80.03L626.23,80.56L625.84,80.63L619.26,80.86L618.26,80.82L605.75,79.63L605.16,79.53L603.73,79.07L605.01,78.77L605.58,78.73L623.94,78.62L624.74,78.64L631.85,79.48L631.79,79.57L631.73,79.62L628.9,80.62L628.49,80.7L622.14,80.84L621.69,80.79L618.03,80.19L619.54,79.85L619.73,79.79L624.13,78.97L624.41,79.03L630.92,80.67L630.19,80.89L629.85,80.94L620.24,81.17L619.24,81.14L608.39,80L608.27,79.93L609.67,79.65L610.24,79.64L636.84,79.14L636.94,79.08L637.08,78.67L636.38,78.61L636.24,78.63L625.91,80.52L625.56,80.5L623.6,80.01L625.53,80.87L625.72,80.98L628.36,81.75L628.53,81.72L635.36,80.64L634.48,80.3L634.11,80.22L625.16,79.51L624.17,79.47L611.8,79.59L631.48,79.39L632.4,79.33L641.55,78.83L641.54,78.92L641.52,79.01L639.73,80.3L639.39,80.45L633.83,82.08L633.33,82.16L628.99,81.96L628.75,81.86L628.03,80.73L628.07,80.6L629.56,79.61L629.72,79.58L632.43,80.13L632.73,80.24L641.52,82.88L641.91,82.94L643.39,82.96L628.19,81.14L627.17,81.1L619.76,80.79L622.97,80.27L623.76,80.17L647.72,78.36L648.09,78.36L649.54,78.59L647.83,79.1L647.61,79.13L641.39,79.28L640.93,79.22L635.23,77.66L634.82,77.48L632.43,75.52L632.47,75.4L633.88,74.82L634.11,74.8L638.3,75.2L638.53,75.25L645.15,75.86L645.41,75.85L646.04,75.77L624.52,77.19L624.23,77.27L623.99,77.42L624.79,77.61L625.26,77.64L636.37,77.15L637.51,77.05L652.17,74.88L652.37,74.81L652.82,74.32L652.42,73.97L652.33,73.91L649.91,73.53L649.62,73.56L641.82,75.34L641.4,75.42L637.48,75.55L642.31,75.26L642.61,75.32L649.83,77.38L648.67,77.44L648.24,77.42L623.37,76.46L632.04,76.2L633.13,76.2L649.84,77.09L650.33,77.19L653.37,78.74L653.45,78.82L653.71,79.1L652.4,78.68L652.13,78.61L643.83,77.7L643.55,77.69L642.33,77.84L642.84,78.41L642.99,78.52L645.72,79.7L645.89,79.68L647.66,78.68L647.84,78.56L650,77.82L650.31,77.82L653.05,78.56L653.28,78.7L653.68,79.58L653.54,79.71L653.32,79.82L650.42,80.2L649.67,80.21L635.99,79.31L634.96,79.21L629.26,78.5L632.82,78.29L633.73,78.27L657.97,77.13L658.61,77.03L662.03,75.73L662.05,75.64L661.2,75.04L661.08,75.03L645.5,75.74L648.82,76.2L649.06,76.23L658.08,78.03L658.42,78.15L659.57,79.02L659.37,79.23L659.17,79.33L655.7,79.71L654.92,79.73L640.21,79.02L639.39,78.95L635.7,78.5L643.13,78.5L644.13,78.54L657.89,79.75L658.64,79.87L664.63,80.64L664.59,80.32L664.55,80.2L663.24,78.84L663,78.72L659.78,78.05L659.32,78.02L652.3,78.47L651.96,78.54L650.33,79.44L650.41,79.59L650.47,79.65L652.1,79.82L652.22,79.77L656.17,78.58L656.51,78.58L661.34,79.43L661.54,79.55L661.75,80.18L661.61,80.32L661.4,80.47L657.95,81.47L657.19,81.59L648.69,82.3L647.72,82.31L640.99,81.5L640.92,81.37L642.12,80.68L642.66,80.56L649.5,79.8L650.55,79.75L668.48,78.78L668.48,78.71L667.72,77.88L667.57,77.85L662.37,77.98L661.88,78.02L655.72,78.59L669.72,77.27L669.87,77.34L669.9,77.57L669.54,77.73L669.24,77.81L663.01,78.25L661.99,78.26L645.49,78.6L645.87,78.93L646.22,79.05L651.19,79.92L652.17,80.02L664.04,80.5L665.01,80.49L673.6,80.51L671.4,79.85L671.16,79.77L666.9,78.93L666.58,78.93L662.63,79.9L662.41,80.02L660.58,81.89L660.56,81.97L660.64,82.22L661.22,81.86L661.33,81.78L663.75,80.76L664.07,80.71L670.01,80.74L670.42,80.76L672.11,80.74L648.44,79.12L649.65,78.91L650.17,78.87L667.86,78.73L668.7,78.73L675.24,77.95L673.76,78.64L673.6,78.68L670.12,78.8L669.77,78.8L665.47,79.19L666.75,78.47L666.89,78.4L669.39,77.97L669.66,77.97L676.4,77.31L676.2,77.22L676.01,77.21L663.88,77.47L662.82,77.49L650.91,77.78L677.13,77.53L675.54,77.04L675.27,77.02L666.61,76.79L672.37,76.75L672.7,76.71L677.37,76.81L677.63,76.89L678.24,77.46L678.05,77.76L677.84,77.93L674.1,79.27L673.26,79.48L661.4,81.47L660.36,81.59L654.49,82.09L671.52,80.85L672.47,80.83L683.06,79.94L683.11,79.86L682.75,79.01L682.61,78.93L679.25,78.16L678.84,78.1L670.43,77.87L670.29,77.91L670.09,78.14L670.86,78.33L671.04,78.34L678.29,77.63L678.73,77.57L683.72,76.6L677.32,77.04L676.29,77.12L659.81,78.09L668.03,78.21L669.11,78.22L687.5,79.26L687.7,79.32L688.32,79.78L686.46,79.61L686.22,79.57L681.65,79.54L681.16,79.58L673.89,80.31L676.03,80.56L676.17,80.66L678.78,81.93L679.07,81.96L683.61,81.59L683.9,81.53L684.66,81.25L683.49,80.95L683.03,80.91L669.38,80.62L668.36,80.63L661.55,80.95L672.61,80.01L673.7,79.89L689.41,78.79L677.13,79.35L676.84,79.31L675.8,78.99L679.62,78.98L679.85,78.99L687.87,80.41L688.26,80.48L690.19,80.81L685.91,80.69L685.04,80.68L669.23,81.25L668.44,81.33L665.64,81.82L667.89,82.07L668.55,82.08L684.54,81.34L684.94,81.31L687.08,81.6L687.04,81.81L687.01,81.89L685.88,82.6L685.68,82.63L680.98,82.31L680.68,82.28L678.22,82.51L683.84,82.41L684.17,82.38L692.4,80.73L692.32,80.67L689.04,80.52L688.18,80.53L665.32,81.37L669.24,81.66L670.14,81.71L687.19,83.14L687.65,83.25L690.01,84.64L690.05,84.72L690.29,84.98L688.98,83.84L688.76,83.76L685.13,83.54L684.86,83.57L682.89,83.63L685.52,83.61L685.7,83.66L688.31,83.81L688.61,83.76L692.3,82.42L692.32,82.33L691.08,81.89L690.63,81.83L679.53,81.23L678.5,81.21L670.76,81.38L688.39,81.49L689.26,81.43L695.32,81.19L692.28,81.16L692.01,81.1L686.01,80.63L685.72,80.62L684.12,80.59L688.7,80.19L689.03,80.13L693.64,80.06L693.95,80.12L694.75,80.67L694.24,80.98L693.91,81.08L688.4,81.65L687.41,81.68L671.2,81.57L680.76,82.01L681.8,82.07L699.03,83.06L698.99,82.88L698.93,82.79L697.47,82.15L697.2,82.13L692.89,82.52L692.41,82.6L684.49,83.51L685.53,84.01L685.68,84.05L690.04,84.44L690.43,84.46L698.9,84.74L683.82,84.2L682.71,84.21L674.4,84.09L676.92,83.59L677.64,83.51L691.23,82.9L692.11,82.91L699.34,83.24L682.34,83.53L682.12,83.6L681.34,84.09L684.2,83.53L684.46,83.55L687.56,83.5L677.2,83.31L676.08,83.36L661.99,84.15L676.11,84.1L676.95,84.08L686.67,84.29L683,83.75L682.67,83.68L677.7,83.44L678.46,82.89L678.59,82.82L681.19,82.55L681.54,82.58L694.51,83.17L695.24,83.15L699.71,82.95L685.09,82.57L684.02,82.51L676.98,81.79L679.36,81.54L680.04,81.52L697.32,80.96L696.76,80.47L696.69,80.42L694.8,79.92L694.55,79.92L688.46,80.71L691.17,80.77L691.41,80.83L698.48,81.78L699.06,81.79L705.76,81.52L701.87,81.06L701.01,80.99L680.8,80.1L681.53,80.27L681.99,80.33L707.83,81.9L707.89,81.9L706.09,81.71L705.83,81.72L691.4,82.14L695.32,81.86L695.56,81.76L700.87,79.6L699,79.64L698.44,79.67L676.28,81.02L685.07,81.12L686.06,81.14L698.6,82L699,82.07L700.87,82.6L695.94,82.09L695.5,82.1L687.4,81.97L695.39,81.36L695.86,81.34L701.36,81.8L701.35,81.89L699.57,82.59L698.97,82.72L689.43,84L688.3,84.09L678.33,84.12L678.06,84.03L677.94,83.71L678.42,83.46L678.83,83.33L685.18,82.39L686.25,82.3L700.99,81.97L701.78,81.98L708.38,81.34L708.42,81.3L707.6,81.38L707.39,81.44L699.4,82.68L698.95,82.74L693.67,83.39L693.66,83.32L694.61,83.03L694.86,83.05L702.29,83.96L695.07,83.79L694,83.8L676.7,84.49L695.86,83.64L696.46,83.57L700.55,82.82L697.18,82.81L696.82,82.75L689.86,82.12L689.66,82.15L689.15,82.39L699.61,80.38L700.17,80.33L709.9,79.96L697.82,80.36L696.67,80.35L685.34,79.68L695.85,80.42L696.7,80.5L705.88,81.46L704.59,81.93L704.4,81.95L694.43,83.18L696.61,83.44L696.94,83.49L703.6,83.48L704.31,83.42L711.31,82.32L710.82,82.16L710.46,82.11L690.08,81.03L689.05,80.98L683.87,80.83L700.28,80.9L701.03,80.84L705.85,79.98L695.88,80.63L695.6,80.6L694.33,80.3L705.63,81.54L696.33,81.05L695.31,81.01L684.74,81.1L685.52,81.34L685.95,81.4L694.92,81.92L695.91,81.93L707.44,81.35L707.86,81.28L710.37,81.24L710.37,81.56L710.35,81.69L709.19,83.43L708.96,83.61L706.11,84.76L705.74,84.82L701.63,84.54L701.38,84.47L699.75,84.01L702.58,84.45L702.9,84.41L711.82,82.96L706.37,84.37L705.39,84.57L688.59,87.03L687.84,87.08L685.72,87.01L688.62,86.29L689.43,86.15L709.28,83.62L706.13,83.51L705.79,83.54L695.81,84.05L696.24,83.53L696.36,83.42L699.72,81.69L700.07,81.59L705.65,81.11L706.17,81.11L710.71,81.33L693.7,81.55L692.69,81.61L687.1,82.24L688.87,82.55L689.52,82.59L708.2,82.61L708.71,82.59L711.52,82.39L700,82.79L700.61,83.26L700.81,83.35L703.8,83.88L704.02,83.86L712.73,82.94L709.99,82.69L709.26,82.66L688.52,82.1L691.08,81.69L691.83,81.64L708.36,81.56L708.99,81.58L713.12,81.27L712.99,80.98L712.92,80.9L710.97,80.17L710.68,80.13L705.19,80.34L704.78,80.41L700.57,81.5L706.8,80.64L707.28,80.62L712.11,79.69L712.2,79.59L711.54,79.13L711.17,79.07L705.48,78.95L704.48,78.98L688.14,80.13L690.26,80.39L690.93,80.44L712.61,81.88L711.26,82.51L711.09,82.6L707.39,83.85L707.09,83.88L701.42,83.5L701.34,83.44L701.45,82.77L701.56,82.69L701.68,82.61L704.19,82.15L704.53,82.15L714.73,82.39L704.29,82.83L703.12,82.89L689.04,83.21L701.08,83.26L702.09,83.3L712.16,84.52L712.27,84.61L711.9,85.33L711.78,85.38L710.06,85.26L709.89,85.19L705.52,83.97L705.14,83.93L701.58,84.08L703.34,83.57L703.55,83.48L707.4,82.16L707.75,82.18L713.6,83.56L713.98,83.71L715.06,84.65L714.97,84.79L714.8,84.93L712.5,85.46L711.77,85.53L700.86,85.71L699.62,85.69L688.85,85.55L706.32,85.38L707.18,85.31L715.2,84.85L707.16,84.88L706.78,84.87L704.73,84.91L705.7,85.55L705.87,85.67L709.58,87.85L709.86,87.83L716.8,86.42L717.09,86.34L717.64,86.12L716.13,85.89L715.57,85.85L697.09,83.94L697.02,83.87L699.02,83.69L699.71,83.7L719.17,83.45L719.35,83.37L719.61,83.11L718.45,84.46L718.36,84.59L716.87,85.36L716.56,85.43L708.76,85.84L708.27,85.85L704.55,85.44L705.05,85.1L705.17,85.07L717.91,83.25L717.85,83.2L717.7,83.16L711.36,83.08L710.31,83.1L696.79,84.03L696.38,84.15L695.88,84.53L696.17,84.8L696.5,84.94L701.62,85.76L702.64,85.85L714.3,85.95L715.17,85.89L721.74,85.06L719.41,84.89L719.07,84.82L709.9,83.82L709.32,83.83L704.38,84.3L706.71,83.51L706.89,83.44L711.48,82.45L711.92,82.42L717.58,82.76L717.55,82.82L714.97,83.19L714.25,83.23L693.87,82.99L693.15,83L691.15,83.24L693.44,83.66L694.19,83.72L704.63,83.78L705.73,83.71L714.86,82.28L715.2,82.17L716.17,81.69L712.57,82.38L712.26,82.38L706,82.78L715.51,83.01L716.01,83.03L720.09,83.08L708.61,82.15L707.44,82.06L695.39,81.54L708.42,81.89L709.27,81.86L717.01,81.74L711.22,82.23L710.82,82.35L706.27,83.14L706.28,83L706.3,82.93L707.45,82.3L707.63,82.28L716.24,81.63L716.69,81.62L719.19,81.77L700.98,81.87L700.09,81.79L696.02,81.03L696.82,80.77L697.26,80.71L706.95,80.49L707.87,80.51L717.48,81.53L717.78,81.6L719.12,81.86L714.2,80.69L713.84,80.73L709.34,81.69L716.2,81.11L716.61,81.14L720.15,81.75L719.24,82.02L718.84,82.06L707.23,82.31L706.27,82.32L700.24,82.7L701.89,83.11L702.48,83.18L714.5,83.72L715.27,83.71L721.83,82.9L721.89,82.86L722.18,82.55L721.16,82.52L720.92,82.53L712.1,82.76L712.06,82.71L712.17,82.51L712.7,82.62L712.82,82.66L716.53,83.36L716.9,83.35L721.54,82.49L721.84,82.37L722.75,81.49L722.5,81.26L722.27,81.15L718.58,80.51L717.76,80.44L704.77,80.07L703.68,80.09L696.73,80.85L696.83,80.94L697.05,81.04L701.41,81.58L702.36,81.63L715.21,81.46L716.14,81.39L724.26,80.73L722.27,80.2L721.93,80.13L713.81,79.46L713.67,79.48L713.36,79.69L713.83,80.18L713.92,80.25L715.82,81.01L716.01,80.99L721.61,80.43L720.58,81.05L720.16,81.21L711.05,83.6L709.94,83.84L697.07,85.9L705.52,84.73L706.6,84.63L721.5,84.03L721.86,84.04L723.87,83.51L723.87,83.42L723.86,83.33L722.79,82.41L722.54,82.32L718.08,81.7L717.58,81.69L711.19,82.17L712.66,81.47L712.85,81.41L717.15,80.96L717.61,80.97L722.43,81.43L706.14,81.43L704.99,81.45L696.92,81.72L712.81,80.69L713.8,80.65L722.33,81.2L722.37,81.22L721.13,81.04L720.87,81.04L712.63,81.28L713.23,81.82L713.34,81.89L716.02,82.76L716.3,82.78L722.3,82.75L721.77,82.59L721.44,82.53L709.69,81.75L708.57,81.72L698.52,81.94L723.82,82.29L722.21,82.69L722.01,82.7L716.01,82.31L715.58,82.25L711.18,81.82L715.9,82.14L716.27,82.09L722.77,81.62L716.46,81.78L715.49,81.8L698.61,82.27L718.07,82.45L718.89,82.51L723.63,83.13L721.71,82.24L721.59,82.14L719.47,81.42L719.29,81.46L717.24,82.59L717.12,82.74L715.86,84.78L716.88,84.01L717.16,83.94L721.89,83.7L722.5,83.73L728.67,84.26L706.04,83.03L707.62,83.51L708.19,83.62L726.84,86.92L726.89,86.8L726.55,84.66L726.46,84.55L724.88,84.01L724.6,84L715.57,83.84L716.38,83.31L716.47,83.25L719,82.15L719.33,82.1L725.41,81.8L723.08,81.44L722.41,81.37L706.33,80.56L705.49,80.57L702.16,80.82L707.45,81.29L708.41,81.32L726.19,81.13L726.6,81.09L728.11,80.76L724.72,81.82L724.47,81.89L720.92,82.07L720.63,82.02L718.18,81.21L722.06,81.93L722.46,81.87L730.9,80.74L723.73,81.26L722.63,81.34L708.12,83.08L708.07,83.16L710.21,83.41L710.91,83.41L729.98,82.64L729.64,82.42L729.55,82.35L726.08,80.64L725.73,80.56L719.31,79.84L719.17,79.84L718.92,79.89L721.26,80.36L721.49,80.37L730.21,80.69L730.54,80.81L731.81,81.72L731.55,81.89L731.31,81.96L726.47,82.19L725.52,82.19L707.87,82.73L707.13,82.84L704.95,83.86L705.09,84.03L707.36,84.92L708.08,85.1L726.33,89.5L726.57,89.7L727.35,91.24L727.35,91.42L726.42,93.29L726.27,93.42L722.93,95.27L722.54,95.46L716.6,99.02L716.38,99.25L715.45,101.19L715.45,101.39L716.6,104.4L716.7,104.61L718.84,107.37L719.11,107.58L723.07,110.93L722.94,111.09L720.56,111.94L719.88,112.05L710.52,112.64L709.24,112.65L692.68,112.23L700.28,112.96L701.22,113.03L713.72,113.57L709.61,112.82L709.19,112.75L702.79,112.4L702.41,112.43L698.7,112.81L698.78,112.54L698.84,112.47L700.42,112.19L700.73,112.2L707.85,113.22L707.69,113.33L707.49,113.38L700.97,113.89L699.91,113.94L679.97,114.52L682.63,115.04L683.33,115.14L702.89,118.43L702.91,118.53L702.07,119.6L701.88,119.73L698.64,121.02L698.22,121.11L688.56,122.11L688.04,122.19L683.44,123.61L683.21,123.76L681.77,125.71L681.73,125.84L682.07,127.37L682.22,127.42L688.41,128.83L688.07,129.16L687.79,129.28L682.46,130.35L681.43,130.49L660.23,133.27L661.41,133.58L661.93,133.63L679.15,135.43L679.47,135.6L681.38,137.46L681.48,137.65L681.7,139.26L681.6,139.31L681.47,139.36L677.15,139.7L676.61,139.73L661.5,140.14L661.09,140.1L654.2,140.19L654.12,140.27L654.45,141.15L654.64,141.28L657.96,142.65L658.37,142.77L661.23,143.52L659.17,143.59L658.54,143.6L643.63,144.51L642.45,144.63L633.52,146.03L641.41,145.48L642.39,145.4L658.04,144.09L656.93,143.62L656.75,143.57L651.69,142.93L651.31,142.94L642.41,144.11L642.12,144.18L636.4,146.38L636.27,146.48L635.75,147.58L635.82,147.66L635.92,147.75L638.31,148.35L638.54,148.37L639.45,148.48L635.52,148.75L634.73,148.78L607.32,150.22L608.98,150.55L609.57,150.59L624.45,150.75L625.22,150.75L631.83,151.42L632.01,151.51L633,152.94L632.97,153L631.51,153.52L631.24,153.57L613.99,156.34L613.53,156.3L601.48,155.98L601.25,156.02L600.78,156.19L602.29,156.5L602.69,156.53L614.01,157.39L612.35,157.76L611.81,157.82L595.04,158.47L594.16,158.45L588.89,157.77L589.11,157.6L589.32,157.51L593.75,156.81L594.42,156.75L606.12,156.43L594.31,157.5L593.9,157.6L581.76,161L583.56,160.86L583.78,160.84L589.96,161.01L590.26,161.06L591.36,161.54L590.79,161.85L590.47,161.92L583.35,162.66L582.3,162.73L561.87,164.24L563.37,164.48L563.85,164.51L578.06,164.82L570.46,165.08L570.15,165.12L548.04,167.14L547.89,167.13L545.42,167.45L545.48,167.69L545.52,167.76L547.21,168.51L547.41,168.56L553.2,169.31L550.9,169.57L550.35,169.61L523.32,172.15L539.05,171.28L539.55,171.27L542.06,171.6L541.65,171.98L541.5,172.07L537.47,173.28L537.25,173.23L530.28,172.72L529.66,172.74L510.1,174.37L510,174.42L508.86,175.19L510.56,174.74L510.57,174.77L510.56,174.81L508.33,175.16L507.84,175.18L497.56,174.89L496.56,174.84L480.36,174.75L479.9,174.83L478.4,175.62L478.63,175.82L478.83,175.92L482.64,176.45L483.22,176.46L493.1,175.72L493.43,175.7L494.63,175.94L494.05,176.36L493.82,176.46L488.78,177.61L488.33,177.67L466.52,179.04L466.24,178.98L455.24,176.57L455.08,176.61L450.68,178.06L450.57,178.16L447.11,179.84L446.68,179.98L437.54,182.5L436.82,182.67L426.11,185.44L426.64,185.69L426.93,185.74L434.54,186.34L435.4,186.39L455.3,187.52L454.46,187.99L454.27,188.06L448.79,189.39L448.63,189.39L444.33,189.86L444.28,189.92L443.24,190.99L443.06,191L432.75,190.78L432.57,190.76L431.08,190.04L431.11,189.88L431.14,189.79L432.8,188.03L432.93,187.94L433.95,186.65L433.86,186.55L433.74,186.45L430.08,184.8L429.54,184.61L419.12,181.93L418.39,181.8L403.58,179.46L403.61,179.32L404.88,178.23L405.19,178.07L410.56,176.36L410.93,176.29L419.9,174.51L419.87,174.41L418.24,173.12L418.11,173.04L415.97,172.73L415.85,172.78L411.38,175.29L411.2,175.42L406.78,177.64L406.71,177.6L406.24,177.13L405.94,177.82L405.92,177.87L405.9,178.05L406.69,177.67L406.83,177.6L413.05,173.59L413,173.54L410.89,173.21L410.44,173.19L389.1,171.61L388.62,171.47L385.78,169.85L385.76,169.72L386.77,169L387.06,168.93L392.98,168.71L393.44,168.71L399.11,167.79L399.47,167.67L404.55,165.69L403.25,165.6L403.03,165.57L400.29,164.47L400.18,164.36L398.25,163.01L398.06,162.99L394.49,161.99L394.27,161.84L390.37,159.22L390.18,159.27L387.34,159.27L387.24,159.17L387.03,157.62L387.07,157.53L388.51,155.79L388.75,155.72L392.75,155.21L393.07,155.2L398.46,154.32L398.47,154.27L397.37,153.88L397.05,153.83L372.23,150.7L372.07,150.64L371.88,150.46L372.96,150.33L373.29,150.32L384.51,149.57L384.91,149.5L392.17,149.08L392.29,149.12L392.52,149.31L391.75,149.6L391.58,149.63L388.67,151.06L388.63,151.14L387.4,152L387.23,152.04L374.56,155.19L374.36,155.3L371.26,156.1L371.14,156.08L369.71,156.53L369.65,156.61L368.03,159.42L368.15,159.51L374.68,162.85L374.86,162.91L375.8,163.52L375.42,163.8L375.23,163.88L369.76,165.09L369.17,165.19L354.03,166.96L353.53,166.98L346.97,167.64L347.53,167.97L347.76,168.04L353.55,169L354.03,169.04L363.27,170.17L360.39,170.23L360.18,170.28L357.45,170.57L357.34,170.51L354.34,169.83L354.02,169.79L344.33,168.23L344.31,168.14L345.43,165.01L345.51,165L355.52,164.07L355.2,163.81L355.05,163.76L351,163.2L350.51,163.16L336.36,161.64L335.99,161.54L332.11,159.8L332.13,159.73L333.78,159.22L334.12,159.18L345.96,158.32L346.44,158.28L353.31,158.48L350.54,157.95L350.4,157.92L347.4,156.71L347.32,156.66L345.32,156.23L345.11,156.22L339.52,155.21L339.46,155.2L337.36,155.4L339.02,154.94L339.22,154.89L343.06,154.88L343.26,154.92L346.48,154.97L346.63,154.9L347.54,154.21L346.6,154.15L346.33,154.17L334.57,154.58L334.04,154.54L323.3,153.94L323.19,153.99L323.04,154.13L323.97,154.3L324.24,154.3L339.94,154.01L340.27,154.04L343.28,153.74L343.13,153.57L343.05,153.54L341.33,153.89L341.2,153.96L338.88,154.64L338.84,154.64L334.12,155.46L333.9,155.45L329.46,155.68L329.39,155.71L327,155.69L326.92,155.66L326.55,155.46L329.51,155.89L329.77,155.92L334.43,155.71L334.61,155.7L337.65,156.01L337.61,156.09L337.54,156.13L333.99,156.54L333.49,156.57L312.83,157.03L312.52,156.99L310.43,156.27L310.67,156L310.82,155.94L314.19,155.52L314.61,155.51L328.66,155.91L328.73,155.93L326.36,155.33L326.24,155.29L324.51,155.46L324.46,155.5L322.72,155.7L322.53,155.7L318.18,156.19L317.96,156.26L311.99,157.75L311.93,157.72L310.69,157.21L311.31,156.87L311.44,156.82L314.74,156.52L314.96,156.54L319.51,156.44L319.68,156.36L320.79,155.04L320.74,154.97L319.23,154.74L318.94,154.75L308.64,154.69L308.11,154.64L298.4,154.21L298.13,154.25L295.57,154.63L298.82,154.77L299.26,154.81L307.51,156.27L307.9,156.35L314.17,156.76L314.33,156.76L315.13,157.13L314.91,157.52L314.86,157.57L313.66,157.59L313.55,157.54L310.64,156.84L310.57,156.88L308.71,157.35L308.55,157.35L304.27,157.83L304.09,157.87L301.02,157.98L300.91,157.94L297.75,157.48L297.69,157.53L296.96,158.49L297.24,158.65L297.35,158.69L306.47,159.71L306.65,159.69L308.26,159.83L305.22,160.5L304.74,160.54L295.66,160.39L295.17,160.35L282.37,159.37L292.47,160.76L292.8,160.8L299.64,160.93L299.87,160.9L302.33,160.82L298.11,160.54L298.03,160.53L295.63,161.5L295.55,161.57L292.48,163.17L292.2,163.25L284.05,164.8L283.91,164.78L281.41,165.36L281.33,165.37L280.29,165.35L280.79,166.04L280.84,166.1L281.04,166.42L279.94,165.49L280.71,165.42L280.82,165.41L283.42,166.05L283.45,166.12L285,167.65L285.12,167.72L285.74,167.95L282.79,167.18L282.38,167.13L276.09,167.12L275.62,167.18L266.71,167.79L266.39,167.74L260.47,167.37L265.53,167.54L265.98,167.53L281.06,167.22L281.08,167.13L280.37,166.06L280.27,166L276,164.68L275.95,164.71L274.55,164.8L274.43,164.76L271.78,164.64L271.65,164.67L269.95,164.31L269.89,164.23L268.19,162.74L268.14,162.79L268.08,162.84L267.58,163.87L267.92,164.14L267.94,164.18L268.08,164.96L267.69,162.94L267.98,162.91L268.08,162.93L271.93,164.17L269.3,164.02L268.89,164.01L253.65,162.59L253.15,162.53L244.25,162.19L243.97,162.22L239.32,162.99L241.25,162.08L241.57,161.95L250.44,159.55L250.63,159.56L257.21,160.09L253.43,160.13L253.35,160.21L252.08,160.47L252,160.41L250.45,159.28L250.32,159.29L247.51,158.45L247.44,158.4L245.03,157.6L244.96,157.59L244,157.7L245.53,157.82L245.36,157.59L245.28,157.52L244.54,155.97L244.63,155.89L244.73,155.82L247.1,155.71L247.36,155.75L254.7,157.15L254.7,157.17L249.54,157.09L249.26,157.17L244.11,158.28L243.87,158.2L238.61,156.37L238.58,156.42L239.45,156.65L239.66,156.65L255.22,156.2L255.35,156.17L257.29,156.46L255.58,156.19L255.33,156.12L249.65,154.88L249.5,154.94L245.26,155.75L245.11,155.74L235.57,154.93L235.52,154.85L235.78,153.83L235.87,153.71L236.85,152.89L235.52,153.32L235.28,153.38L232.3,153.32L232.29,153.26L232.3,153.19L233.51,152.77L233.69,152.76L235.38,153.42L234.39,153.55L234.42,153.64L235.66,154.68L235.83,154.73L239.83,155.02L240.02,155.02L244.51,155.59L232.32,154.47L231.85,154.41L219.72,153.81L219.63,153.85L219.29,154.19L220.24,154.31L220.48,154.31L233.27,154.03L233.55,154.06L239.29,153.53L239.49,153.53L241.72,154.26L241.82,154.36L242.07,155.27L241.67,155.33L241.56,155.31L238.1,154.95L238.05,155.02L236.71,155.39L236.62,155.36L234.78,155.7L234.71,155.72L230.8,155.99L230.75,155.96L229.02,154.56L228.89,154.54L228.2,154.62L229.22,155.31L229.38,155.37L231.64,155.18L231.69,155.14L232.56,155.26L232.65,155.31L234.04,155.69L234.02,155.27L234,155.24L234.95,155.77L235.03,155.76L236.73,155.95L236.8,156.03L238.48,157.55L238.62,157.05L238.62,157L238.49,156.74L237.95,156.97L237.82,157.03L232.65,158.48L232.24,158.56L223.59,161.19L223.42,161.31L219.73,163.28L219.48,163.33L216.24,163.96L219.32,164.08L219.7,164.09L226.71,165.17L226.98,165.26L234.55,167.26L234.72,167.22L236.48,166.49L230.66,167.63L230.39,167.6L224.9,167.49L224.73,167.49L221.27,167.56L221.22,167.65L219.82,168.51L219.77,168.48L218.8,168.72L218.77,168.73L218.23,167.99L218.21,167.93L218.02,167.43L217.51,168.08L217.46,168.11L216.94,168.06L216.8,167.6L216.78,167.57L216.02,167.71L215.95,167.87L215.95,167.91L215.82,168.11L215.22,167.93L215.15,167.92L214.89,167.97L218.27,167.98L218.38,167.88L220.17,167.31L220.23,167.38L221.39,167.85L221.51,167.72L221.57,167.65L222.33,166.49L221.18,167.25L220.99,167.25L217.23,166.51L216.86,166.41L211.27,165.62L210.95,165.64L204.91,166.2L204.78,166.13L202.69,165.35L203.77,165.12L203.97,165.08L210.59,164.17L210.81,164.22L216.59,165.49L216.69,165.48L218.37,165.98L211.29,166.03L211.2,165.97L209.37,165.63L209.3,165.67L208.81,166.14L208.98,165.15L208.98,165.06L208.52,164.37L208.33,165.39L208.29,165.45L208.09,165.66L208.65,164.72L207.97,164.71L207.81,164.75L204.08,165.7L203.99,165.64L202.25,165.46L202.19,165.49L201.96,165.7L201.81,164.89L201.81,164.84L202.28,164.43L202.47,164.43L202.58,164.43L206.53,165.35L206.65,165.38L209.12,166.42L209.16,166.48L210.47,168.01L210.33,168.13L207.21,169.81L206.8,169.96L200.93,171.35L200.49,171.41L193.54,173.11L193.31,173.22L188.67,176.43L188.58,176.58L185.72,182.67L185.83,182.79L190.18,187.37L190.25,187.48L191.72,190.74L191.72,190.85L191.94,193.79L191.76,193.84L182.86,196.79L182.63,196.94L175.69,201.66L175.63,201.79L173.02,205.53L172.84,205.65L169.4,206.94L169.09,207L159.83,209.16L159.69,209.27L156.4,212.98L156.37,213.09L154.93,216.1L154.77,216.15L150.7,216.51L150.34,216.53L145.35,217.68L145.13,217.8L139.9,220.33L139.78,220.36L138.33,221.7L138.27,221.8L134.12,228.09L133.97,228.15L130.62,228.91L130.48,228.91L128.65,229.51L128.58,229.62L126.19,232.28L126.06,232.3L124.57,232.03L125.2,232.53L125.2,232.63L124.27,234.47L124.22,234.53L124.37,235.59L124.4,235.61L123.78,234.95L123.69,234.94L122.65,235.69L122.56,235.81L120.57,237.36L120.36,237.43L113.19,238.57L112.84,238.61L102.66,240.2L102.41,240.33L97.91,241.95L97.7,241.96L92.43,242.73L92.4,242.82L91.4,243.94L91.29,243.98L89.56,244.55L89.81,245.08L89.83,245.17L89.61,246.41L89.57,246.44L89.39,247.32L89.42,247.41L89.31,248.3L88.85,248.24L88.75,248.21L84.9,248.05L84.72,248.03L80.88,248.12L80.78,248.19L78.49,249.42L78.42,249.42L77.38,248.68L77.35,248.64L77.17,248.48L76.81,249.16L76.77,249.23L75.78,252.04L75.8,252.13L75.67,251.44L75.59,252.78L75.55,252.82L75.44,253.08L75.93,253.45L75.97,253.49L75.96,253.71L75.23,253.61L75.1,253.57L72.24,253.24L72.13,253.33L69.22,254.85L69.05,254.87L63.35,254.76L63.19,254.71L59.78,254.58L59.6,254.64L54.19,256.29L54.03,256.27L49.56,255.8L49.48,255.89L47.64,257.12L47.51,257.09L41.9,255.93L41.86,256L40.79,256.64L40.69,256.63L37.9,255.82L37.83,255.75L37.05,255.38L36.84,255.76L36.81,255.84L35.7,256.71L35.63,256.71L32.82,256L32.76,255.95L32.51,255.85L32.57,256.69L32.56,256.78L31.93,257.37L31.79,257.35L31.71,257.35L29.39,257.08L29.34,257.39L29.32,257.47L28.47,258.05L28.37,258.06L25.51,257.91L25.59,257.74L25.64,257.68L26.78,257.6L26.84,257.78L26.83,257.85L25.76,258.64L25.72,258.56L25.72,258.53L24.98,258.38L24.92,258.37L24.01,258.11L23.91,258.34L23.9,258.38L22.93,257.48L22.91,257.42L22.18,257.27L22.01,257.44L21.97,257.51L21.22,258.42L21.01,258.22L20.99,258.17L20.28,256.41L19.92,257.29L19.87,257.28L19.43,257.16L19.91,256.59L19.9,256.49L19.31,255.4L19.04,255.71L19.01,255.77L19.03,256.64L18.55,255.96L18.5,255.89L18.09,255.12L18.03,256.21L18,256.23L17.29,255.41L17.26,255.38L17.01,254.77L17.04,254.68L16.56,253.72L16.53,253.68L16.18,252.23L16.18,252.18L15.8,253L15.87,253.09L15.9,253.11L16.21,253.15L15.11,252.19L15.63,253.12L15.62,253.13L14,252.94L14.74,252.37L14.79,252.32L14.93,252.08L14.02,253.05L14.03,252.37L14.02,252.37L13.44,252.8L13.51,252.35L13.51,252.29L13.37,251.75L13.22,253.58L13.76,253.39L13.8,253.36L13.44,252.44L13.37,252.36L12.7,251.95L12.82,252.83L12.82,252.88L12.6,253.25L12.39,252.08L12.2,252.19L12.16,252.23L12.02,253.16L12.42,253.22L12.45,253.21L11.94,252.09L11.89,252L11.11,249.18L11.88,250.56L11.93,250.58L12.12,250.53L11.72,249.83L11.64,249.74L10.04,247.56L10.51,247.54L10.58,247.56L10.97,247.93L10.33,247.01L10.28,246.9L9.54,242.74L9.54,242.65L9.06,238.75L9.04,238.73L8.95,237.09L8.99,237.04L9.68,237.16L9.14,236.99L9.08,236.91L8.66,234.89L8.69,234.8L8.67,233.34L8.55,233.33L8.51,233.34L8.32,234.14L8.41,234.25L8.46,234.3L9.05,234.5L8.07,234.03L8.43,234.75L8.39,234.8L8.53,236.06L8.55,236.12L8.04,237.8L8.02,237.91L7.77,239.86L7.72,239.9L7.68,241.15L7.7,241.23L7.39,241.96L7.73,240.86L7.8,240.76L8.31,239.76L8.19,241.28L8.21,241.31L8.17,241.52L7.66,241.15L7.47,241.43L7.45,241.5L7.59,243.06L7.73,243.07L7.77,243.05L7.67,242.01L7.63,241.95L7.25,241.53L7.65,242.7L6.73,242L6.71,242.05L7.08,243.32L7.31,243.3L7.36,243.29L8.34,242.97L8.25,243.13L8.31,243.21L8.31,243.97L8.02,244.07L7.94,244.08L7.14,243.56L7.09,243.51L6.65,243.47L6.62,244.07L6.63,244.15L6.97,244.95L7,242.74L7.24,243.53L7.28,243.5L7.19,242.85L6.95,242.72L6.91,242.71L6.71,242.86L7.17,242.97L6.79,242.42L6.79,242.39L6.91,242.26L5.79,244.06L5.73,244.07L5.4,244.05L6.62,244.2L6.64,244.3L6.33,245.53L6.11,245.52L6.06,245.51L5.74,245.53L6.28,245.44L6.13,245.94L6.13,246.01L6.3,246.88L5.59,246.45L5.57,246.54L6.14,248.34L6.15,248.36L5.98,248.14L5.79,249.19L5.76,249.26L5.46,249.51L5.83,247.88L5.81,247.83L6.45,248.52L5.32,246.56L5.28,246.46L4.78,245.17L4.77,245.17L5.32,246.16L5.61,245.48L5.63,245.51L5.34,246.46L5.23,246.49L5.2,246.49L5.8,246.11L5.44,245.64L5.35,245.56L4.4,244.91L6.07,246.11L4.86,244.39L4.92,244.34L5.9,244.42L5.94,244.57L5.94,244.62L4.9,245.24L5.7,245.18L5.8,245.15L6.72,244.32L5.75,245.44L5.74,245.51L5.35,246.17L5.29,244.25L5.21,244.17L5.84,244.32L4.88,243.33L4.88,243.26L4.79,242.52L5.36,244.99L4.57,244.02L4.52,243.99L4.3,243.47L4.99,243.42L5.02,243.42L4.92,244.71L4.99,242.57L5.05,242.41L5.3,238.92L5.26,238.79L5.12,237.11L5.14,236.94L4.97,231.87L4.95,231.82L4.87,228.22L4.89,227.83L4.94,214L4.9,213.79L4.3,206.71L4.31,206.29L5.21,200.13L5.22,199.96L4.47,185.07L4.41,184.85L3.94,179.97L3.97,179.67L4.79,173.73L4.77,173.49L4.09,168.87L4.02,168.72L3.6,165.37L3.61,165.15L3.86,159.99L3.84,159.71L4.13,153.46L4.17,153.27L4.53,151L4.45,150.84L4.04,147.9L4.1,147.8L4.66,147.01L4.54,146.88L3.45,144.56L3.47,144.3L4.55,142.84L4.93,142.63L8.6,141.66L9.46,141.55L20.97,141.06L22.32,141.04L39.17,139.93L40.28,139.77L58.1,137.57L58.66,137.59L65.33,137.19L65.77,137.07L70.75,134.91L71.03,134.78L77.14,131.67L77.3,131.51L79.96,128.13L79.97,127.96L80.82,126.29L81.08,126.08L84.16,124.67L84.79,124.5L94.77,122.74L95.68,122.58L104.04,120.47L104.76,120.2L114.62,115.62L115.06,115.42L122.26,111.3L122.56,111.05L129.27,104.75L129.4,104.49L130.69,100.34L130.75,100.09L132.33,97.54L132.55,97.36L138.92,93.24L139.41,92.97L150.8,85.82L151.01,85.62L154.89,80.99L154.99,80.77L158.64,70.78L158.67,70.58L159.82,67.76L159.89,67.64L160.59,64.41L160.64,64.21L161.99,57.81L161.92,57.75L161.23,57.37L162.36,57.35L162.69,57.37L184.69,57.58L185.43,57.48L194.26,55.41L194.74,55.27L204.38,53.23L204.61,53.21L208.42,52.32L208.65,52.2L214.64,49.18L214.86,49.19L218.96,49.33L219.07,49.18L220.82,44.75L220.87,44.59L221.48,43.93L221.78,44.08L221.9,44.16L227.31,48.02L227.45,47.99L234.28,46.44L234.59,46.45L242.26,45.96L242.67,45.92L248.65,44.44L248.87,44.31L254.08,41.3L254.42,41.18L259.92,38.58L260.37,38.33L265.86,35.98L266.26,35.94L269.67,36.46L270.03,36.58L274.59,37.6L274.8,37.54L277.89,36.89L277.97,37.03L277.92,38.93L277.83,39.11L276.48,40L276.28,40L274.07,38.92L273.87,38.79L271.57,37.96L271.38,38L269.94,39.13L269.88,39.3L270.28,40.49L270.48,40.65L272.99,41.5L273.51,41.58L281.91,41.91L282.7,41.92L301.06,41.6L301.43,41.47L309.3,39.18L309.53,39.22L312.69,40.55L312.8,40.6L314.24,41.92L314.32,42.04L315.95,43.14L316.08,43.13L316.95,42.18L316.98,42.03L316.73,40.57L316.69,44.6L316.8,44.69L318.53,45.21L318.8,45.23L323.74,44.85L324.01,44.79L327.87,44.52L328.06,44.61L332.63,46.26L333.04,46.34L338.32,46.53L338.75,46.49L350.26,45.58L350.42,45.66L350.73,46.41L350.51,46.58L350.36,46.66L347.81,47.01L347.44,47L337.61,46.69L337.57,46.77L338.22,47.31L338.5,47.41L343.96,48.21L344.73,48.27L355.36,48.27L356.1,48.21L369.6,47.27L369.92,47.34L373.19,49.03L373.26,49.13L374.35,52.23L374.33,52.28L373.89,51.65L373.85,51.51L372.34,48.94L372.22,48.91L371.36,49.58L371.31,49.74L371.54,51.61L371.65,51.77L373.19,52.67L373.41,52.7L394.66,54.85L394.99,54.96L398.34,56.52L397.73,56.67L397.53,56.67L391.07,55.94L390.63,55.87L381.24,54.22L388.58,54.8L389.43,54.85L414.33,56.57L414.49,56.63L416.61,57.9L416.37,58.1L416.32,58.12L411.79,59.71L411.8,59.71L411.82,59.72L416.56,60.43L416.79,60.49L427.12,62.72L427.61,62.71L436.98,62.6L435.86,61.96L435.56,61.82L428.04,59.42L427.44,59.3L419.35,58.09L420.23,57.69L420.6,57.6L427.16,56.95L428.02,56.93L439.02,57.53L439.73,57.63L447.83,59.53L448.05,59.61L450.8,61.27L450.78,61.32L449.93,61.08L449.83,60.99L446.84,59.39L446.71,59.41L445.39,60.49L445.36,60.6L445.91,61.7L446.05,61.76L449.68,62.52L449.9,62.59L455.99,64.41L456.25,64.43L459.53,65.51L459.8,65.67L463.01,68.25L462.36,68.2L462.15,68.17L455.12,67.7L454.44,67.69L446.01,67.93L478.31,68.74L478.04,69.13L477.99,69.18L477.62,69.5L477.31,68.93L477.24,68.83L475.26,67.42L475,67.32L470.3,66.51L470.2,66.53L470.09,66.7L470.47,67.09L470.59,67.19L472.19,69.63L472.21,69.72L473.14,70.27L473.34,70.3L479.07,70.06L479.48,70.01L486.68,70.05L486.92,70.08L489.14,70.14L476.67,69.12L475.95,69.09L470.78,69.14L472.41,69.73L472.94,69.85L484.96,71.89L485.92,72L496.04,72.33L496.56,72.3L500.11,71.87L496.34,71.92L496.17,71.77L491.77,67.51L494.34,69.49L494.53,69.54L498.45,69.88L498.72,69.92L508.27,70.65L508.69,70.63L511.69,70.36L500.85,70.51L500,70.51L491.53,71.22L491.56,71.32L492.88,71.85L493.35,71.95L500.87,72.59L501.79,72.6L521.62,72.48L521.24,72.08L521.17,72.03L519.64,71.6L519.48,71.61L514.39,72.62L514.13,72.69L511.56,73.13L513.13,73.46L513.36,73.5L525.89,75.15L526.26,75.08L530.9,74.34L530.73,74.65L530.57,74.78L527.98,75.74L527.39,75.86L520.4,76.43L519.54,76.44L511.85,76.15L521.33,75.7L522.26,75.61L535.22,73.51L535.79,73.4L540.65,72.7L534.6,73.26L534.34,73.3L528.25,73.96L534.16,73.62L534.41,73.61L544.47,73.55L544.5,73.42L543.6,72.52L543.26,72.36L538.65,71.37L537.88,71.3L529.44,71.34L528.64,71.41L523.01,72.72L523.1,72.81L525.39,73.29L526.06,73.36L554.53,75.2L549.32,75.47L548.93,75.5L544.45,76.16L545.99,75.4L546.23,75.27L551.25,72.88L551.45,72.91L558.43,74.5L557.74,74.88L557.46,74.97L551.29,76.18L550.52,76.28L541.66,76.69L541.16,76.66L539.65,76.31L541.08,75.98L541.6,75.94L554.14,76.26L555.16,76.31L567.85,76.08L568.06,76.03L568.52,75.86L565.17,75.98L564.95,75.96L556.76,75.99L556.72,76.02L557.81,76.62L557.96,76.67L560.29,76.51L560.42,76.49L565.29,76.89L565.71,76.93L552.83,76.07L579.4,78.12L579.91,78.21L583.25,79.02L570.03,76.99L569.68,76.99L567.31,77.41L583.56,76.84L583.85,76.86L584.81,77.04L581.73,77.3L581.05,77.31L559.24,77.27L559.33,77.18L559.51,77.13L565.68,76.44L566.64,76.37L584.99,75.81L585.76,75.8L592.35,75.65L592.31,76.17L592.29,76.26L591.47,76.83L591.3,76.84L582.88,76.41L582.99,76.15L583.07,76.05L586.78,73.11L586.96,73.01L589.6,72.63L589.9,72.67L598.07,74.46L598.42,74.54L599.97,74.99L597.81,75.09L597.28,75.1L577.41,75.57L594.5,75.83L595.45,75.88L605.06,77.12L605.06,77.15L604,76.83L603.86,76.79L599.8,76.46L599.52,76.46L595,76.21L599.38,76.59L599.6,76.64L605.21,77.22L605.63,77.23L609.32,77.26L589.27,77.04L589.63,76.78L589.95,76.69L596.48,75.97L597.51,75.91L612.41,75.79L613.1,75.85L617.11,76.92L617.21,77.05L617,78.36L616.96,78.39L615.86,77.75L615.67,77.64L612.63,76.88L612.23,76.86L607.4,77.58L607.08,77.69L605.46,78.59L606.59,78.65L606.79,78.63L611.29,77.32L611.49,77.23L614.91,76.61L615.25,76.62L620.12,77.25L612.6,77.19L611.64,77.19L596.58,76.76L599.57,76.44L600.36,76.43L613.39,77.3L614.53,77.42L627.04,78.03L627.25,77.96L627.89,77.27L627.15,77.22L627.01,77.21L613.51,76.46L613.45,76.41L614.53,76.01L614.82,75.98L620.95,76.29L621.25,76.33L631.97,76.69L632.35,76.69L633.64,76.45L632.09,75.96L631.56,75.87L622.65,75.11L621.53,75.09L609.71,75.57L609.08,75.65L607.24,76.06L610.11,76.19L610.85,76.17L633.7,74.98L633.7,74.87L633.76,72.62L633.54,72.6L628.6,73.13L628.23,73.22L625.78,74.41L625.92,74.57L626.01,74.61L628.54,74.5L628.74,74.46L635.06,73.85L635.53,73.87L641.54,75.04L641.84,75.17L642.46,75.99L642.33,76.12L642.13,76.23L638.73,76.83L637.99,76.88L621.83,77.39L649.95,75.88L649.94,75.81L649.92,75.74L648.94,75.54L648.74,75.57L641.01,76.68L640.76,76.69L639.27,76.88L640.31,77.44L640.41,77.47L644.89,78.05L645.31,78.06L630.08,77.2L654.3,77.52L655,77.52L658.86,77.7L657.78,78.24L657.67,78.29L653.79,79.51L653.45,79.55L648.04,79.49L647.76,79.44L646.4,78.91L647.54,78.66L647.73,78.66L655.76,79.38L656.22,79.43L661.05,79.76L653.94,79.58L653.02,79.6L638.52,80.15L644.14,79.37L645.07,79.28L662.46,78.55L663.01,78.55L666.31,78.56L656.39,79.26L656.23,79.32L655.85,79.76L656.53,79.97L656.68,79.97L662.56,79.22L663,79.18L670.5,78.47L654.12,79.27L653.04,79.27L642.96,79.04L666.93,78.54L667.62,78.5L670.88,78.39L670.26,79.05L670.2,79.11L667.76,80.02L667.45,80.08L663.57,80.07L663.43,80L663.46,79.12L663.58,79.03L665.69,78.44L665.91,78.43L679.25,78.98L675.39,79.17L674.58,79.21L656.68,80.36L674.74,79.85L675.61,79.92L681.5,81.18L681.64,81.27L681.83,81.65L681.02,81.67L680.92,81.65L672.04,80.19L672.34,79.97L672.45,79.92L676.95,78.53L677.27,78.54L686.27,78.38L686.32,78.32L684.95,78.01L684.43,77.98L671.92,78.07L670.78,78.09L661.62,78.32L671.82,78.71L672.96,78.74L687.52,78.53L687.73,78.49L688.33,78.34L679.75,79.62L679.36,79.64L691.61,79.02L674.21,79.87L673.06,79.9L664.59,80.49L693.25,79.67L692.66,79.93L692.5,79.95L684.64,80.05L684.33,80.02L682.28,79.44L684.62,79.33L684.81,79.32L694.62,79.23L689.37,78.83L688.44,78.78L671.76,78.65L671.45,78.68L671.2,78.73L676.3,78.62L677.26,78.55L690.46,76.75L691.27,76.57L697.96,74.97L697.76,75.53L697.69,75.62L695.74,76.5L695.48,76.54L689.02,77.59L689.02,77.73L690,79.22L690.18,79.34L692.7,80.16L692.98,80.19L701.25,79.76L701.51,79.72L702.02,79.57L700.21,79.34L699.63,79.31L679.84,79.43L679.74,79.48L681.44,79.84L682.07,79.9L695.54,80.57L696.5,80.57L705.4,79.67L705.56,79.61L705.91,79.41L702.64,80.09L702.31,80.14L693.55,80.96L693.41,80.94L693.03,80.63L693.36,80.23L693.46,80.16L696,79.57L696.29,79.56L706.48,78.96L691.68,79.03L690.65,79.02L684.19,78.77L703.36,78.54L704.02,78.49L709.96,78.35L708.45,77.85L708.14,77.77L702.51,77.33L702.07,77.35L699.12,77.98L703.15,77.99L703.4,78L716.75,78.49L694.88,78.67L694.91,78.74L695.05,78.81L699.59,79.54L700.46,79.63L711.5,79.98L712.24,79.94L717.18,78.85L717.36,78.72L717.89,77.33L717.85,77.22L716.67,76.54L716.45,76.54L711.51,77.24L711,77.34L703.21,78.42L706.4,78.45L706.69,78.48L718.01,80.32L716.75,80.48L716.25,80.48L698.79,79.67L718.06,80.02L718.84,79.92L722.96,78.59L723.12,78.42L723.06,77.18L722.96,77.06L721.35,76.57L721.2,76.61L709.31,79.64L710.92,79.92L711.09,79.97L715.47,80.5L715.88,80.5L721.6,80.54L716.1,81.22L715.14,81.28L699.51,82.22L709.1,82.2L710.06,82.16L724.86,81.9L723.46,81.33L723.13,81.26L717.45,81.19L716.93,81.25L712.02,82.68L712.03,82.72L713.48,82.83L713.65,82.8L726.78,80.93L725.6,80.55L725.1,80.46L714.67,79.44L713.47,79.38L701.75,79.59L701.64,79.66L702.88,79.99L703.46,80.05L715.27,80.05L716.35,80.01L728.35,80.18L728.37,80.19L718.16,80.89L718.75,81.27L718.91,81.33L721.81,81.91L722.09,81.89L731.74,81.03L724.63,81.01L723.59,80.98L708.04,79.66L708.04,79.59L710.98,79.14L711.75,79.08L726.68,78.87L727.54,78.92L734.31,80.16L734.35,80.19L732.95,80.16L732.7,80.16L724.99,80.91L724.66,80.94L722.8,80.93L733.54,80.08L734.02,80.02L736.55,79.83L729.53,79.89L728.47,79.87L712.65,79.2L716.12,78.92L716.98,78.89L739.01,78.65L739.32,78.71L740.61,79.36L738.66,79.27L738.33,79.26L731.43,79.77L730.91,79.86L726.81,81.08L727.26,81.27L727.38,81.3L732.17,81.23L732.59,81.19L740.55,81.16L740.76,81.22L740.95,81.42L740.09,81.7L739.67,81.77L730.3,82.17L729.41,82.17L723.88,82.04L745.58,81.52L744.86,81.42L744.73,81.4L739.21,80.78L738.77,80.8L732.79,81.59L746.35,80.84L746.38,80.86L742.91,81.12L742.1,81.15L724.13,80.64L723.4,80.58L721.12,80.35L740.4,82.46L740.94,82.59L744.72,84.03L744.09,83.26L743.91,83.15L740.94,82.38L740.58,82.35L736.53,82.4L737.71,81.79L737.88,81.76L744.57,81.82L745.21,81.81L751.23,81.56L722.37,81.26L744.61,81.95L744.55,82L742.57,82.79L742.31,82.83L735.99,82.76L735.73,82.75L734.44,82.65L744.28,82.41L744.78,82.38L749.14,81.75L740.24,82.02L739.22,82.07L729.17,82.37L740.98,82.51L741.95,82.52L751.76,81.88L751.85,81.82L752.02,81.58L750.94,81.58L750.75,81.59L742.9,82.19L742.86,82.29L742.47,83.17L743.26,82.98L743.47,82.94L751.51,82.72L751.73,82.71L752.02,82.67L737.89,82.78L736.91,82.81L731.17,82.85L749.15,82.48L749.83,82.59L753.95,84.05L754.08,84.17L754.45,84.78L753.33,84.41L753.11,84.35L744,82.61L745.91,82.35L746.12,82.3L751.52,81.87L752.01,81.87L755.06,81.8L747.95,81.16L746.9,81.11L733.5,81.11L743.18,80.8L744.22,80.75L757.27,80.97L757.38,81L757.55,81.02L750.74,80.25L750.59,80.28L749.11,80.96L751.07,80.97L751.43,80.93L761.08,80.37L748.01,81.07L746.83,81.13L737.77,82.12L738.3,82.32L738.71,82.38L747.16,82.48L748.23,82.45L760.98,82.04L757.37,81.46L757.07,81.43L751.6,81.59L751.23,81.62L747.73,81.38L761.18,80.35L761.55,80.26L762.37,79.88L761.11,79.75L760.58,79.75L736.61,80.26L761.66,80.34L761.55,80.46L761.46,80.5L758.04,80.78L757.71,80.78L753.15,81.17L756.1,80.34L756.4,80.3L764.06,79.67L755.43,80.47L754.26,80.52L738.56,80.43L738.29,80.38L738.12,80.29L739.73,80.13L740.36,80.11L761.07,79.53L761.18,79.47L761.35,79.27L759.72,79.77L759.5,79.82L754.07,80.2L753.86,80.22L752.82,80.59L757.1,80.61L757.52,80.62L743.9,81.03L768.21,81.6L768.32,81.65L768.49,81.8L767.09,81.71L766.88,81.71L760.19,82.46L759.87,82.49L757.62,82.77L768.97,81.62L763.01,81.73L762.02,81.7L748.31,80.47L748.81,80.34L749.2,80.31L764.96,80.41L765.74,80.43L770.89,81.08L764.01,81.08L763.61,81.11L758.66,81.89L771.32,80.69L759.29,81.47L758.02,81.51L744.73,81.6L766.59,81.39L765.88,81.68L765.74,81.72L763.14,81.68L762.93,81.64L759.07,81.6L758.94,81.65L758.61,81.91L759.76,82.05L759.98,82.04L769.87,82.32L770.39,82.37L773.77,82.81L768.57,82.87L767.56,82.86L748.43,83.13L766,82.83L766.7,82.73L771.88,81.31L762.73,82.53L762.48,82.53L775.04,81.99L756.35,82.69L755.3,82.73L750.05,82.84L773.79,82L772.84,81.44L772.71,81.42L767.75,82L767.52,82L766.28,81.79L771.45,81.28L771.9,81.23L778.32,80.67L772.21,80.72L771.12,80.71L750.79,80.85L771.61,80.52L772.21,80.49L775.35,80.71L765.81,80.68L765.63,80.67L764.99,80.57L777.14,81.89L777.53,81.83L778.87,81.41L777.1,81.23L776.51,81.23L753.94,80.9L754.09,80.76L754.33,80.69L760.7,80.3L761.7,80.29L778.35,79.51L768.18,80.39L768.11,80.46L768.16,80.77L768.62,80.84L768.79,80.84L781.48,79.65L775.92,79.55L774.92,79.54L759.44,79.59L782.55,80.35L782.7,80.41L782.92,80.65L782.05,80.89L781.87,80.91L775.14,81.23L774.83,81.2L772.12,80.35L774.47,80.45L774.82,80.43L784.85,79.26L783.05,79.03L782.42,78.99L764.33,78.54L779.91,78.77L780.73,78.74L785.91,78.95L785.78,79.28L785.7,79.4L783.73,81.03L783.51,81.1L779.65,81.51L779.3,81.53L773.87,81.39L773.86,81.31L774.63,80.72L774.84,80.7L780,81L780.49,81.04L783.52,81.15L768.38,80.92L767.49,80.9L763.4,80.56L768.57,80.23L769.48,80.22L786.66,80.03L776.54,79.78L776.27,79.74L774.45,79.71L775.85,79.22L776.13,79.16L781.12,78.87L781.68,78.91L785.97,79.87L786,79.98L784.82,80.44L784.29,80.51L774.75,80.71L773.55,80.69L761.9,80.16L788.42,80.47L784.95,81.07L784.62,81.15L778.54,81.86L778.32,81.81L776.68,80.6L776.66,80.54L777.17,80.26L777.33,80.27L777.52,80.27L788.58,80.54L765.51,79.03L766.84,79.04L767.45,79.06L786.87,78.88L787.44,78.84L790.3,78.82L790.1,79.26L790.02,79.36L788.01,80.84L787.75,80.93L783.01,81.49L782.61,81.5L778.61,80.92L778.74,80.77L778.84,80.73L782.32,80.36L782.81,80.34L794.19,79.2L794.1,79.15L788.9,79.01L787.88,79.01L768.41,78.52L768.49,78.45L768.68,78.38L774.4,77.9L775.32,77.88L787.8,78.29L788.23,78.36L790.57,79.27L790.32,79.49L790.2,79.51L786.83,79.07L786.46,78.99L781.01,77.9L783.33,77.84L783.67,77.8L793.87,77.27L788.45,77.04L787.42,77.02L767.14,77.24L788.65,77.71L789.14,77.8L790.88,78.39L786.17,77.89L785.79,77.9L777.96,79.05L777.76,79.09L777.09,79.28L781.84,79.12L782.4,79.08L794.69,78.3L784.48,78.28L783.34,78.24L773.08,77.85L793.36,78.73L792.51,79.07L792.3,79.12L788.89,79.07L788.56,79.02L780.86,78.57L780.68,78.56L779.66,78.2L781.08,77.84L781.48,77.81L797.97,77.8L784.5,77.49L783.32,77.48L774.79,77.14L797.41,77.57L786.37,77.69L786.2,77.72L785.56,78.07L791.11,77.49L791.63,77.44L797.84,77.58L784.07,77.99L782.89,78L774.63,78.31L799.15,78L788.21,77.58L788.18,77.56L789.59,77.24L789.8,77.23L803.1,76.83L778.01,77.39L786.21,77.53L787.32,77.58L803.09,77.85L800.68,78.47L800.36,78.54L795.54,78.87L795.09,78.84L788.28,77.78L788.53,77.68L788.64,77.65L797.87,76.78L798.3,76.75L799.73,76.65L781.06,76.91L780.22,76.9L777.2,76.71L781.92,76.19L782.81,76.15L797.83,76.39L798.09,76.43L798.66,76.55L793.53,76.47L793.01,76.46L780.56,76.84L780.59,76.94L780.63,77L782.54,77.73L782.84,77.78L788.53,77.81L789.02,77.78L791.64,77.52L785.17,77.31L784.09,77.29L767.5,76.52L770.62,76.21L771.51,76.17L799.75,75.65L790.18,75.35L790.02,75.32L789.11,75L796.08,75.71L796.62,75.71L799.79,75.4L783.43,75.22L782.13,75.21L772.94,74.84L787.69,75.37L788.65,75.48L795.59,77.07L795.63,77.16L794.74,77.75L794.54,77.81L790.31,78.23L789.98,78.2L781.16,76.82L781.46,76.72L781.58,76.7L786.41,76.44L786.83,76.46L790.54,76.98L787.7,77.2L786.95,77.23L769.48,78.36L768.58,78.5L765.1,79.9L765.19,80.09L767.27,81.04L767.96,81.22L785.29,85.59L785.43,85.79L785.4,87.05L785.28,87.26L782.98,89.43L782.66,89.65L777.5,92.08L776.97,92.27L765.17,97.13L764.88,97.31L759.85,100.93L759.87,101.09L761.05,102.35L761.26,102.52L762.23,103.94L762.09,104.08L761.88,104.22L758.73,105L757.87,105.11L741.66,106.29L740.08,106.39L725.35,108.07L724.97,108.23L724.71,108.95L724.94,109.14L725.28,109.33L729.96,110.72L730.84,110.91L743.18,114.24L743.22,114.37L742.42,115.83L742.26,115.99L739.65,117.67L739.31,117.79L733.97,118.82L733.46,118.89L725.72,120.71L725.42,120.83L720.2,123.53L720.28,123.64L723.03,125.16L723.23,125.28L723.6,125.78L723.08,126.03L722.74,126.11L715.48,126.65L714.21,126.7L683.16,128.15L684.18,128.42L684.69,128.48L697.46,129.27L698.12,129.3L702.88,130.24L702.9,130.32L702.28,131.58L702.12,131.71L698.68,133.31L698.23,133.47L689.1,135.83L688.76,135.88L680.3,137.5L680.16,137.58L679.77,138.72L679.8,138.8L679.24,139.39L678.99,139.49L674.49,140.3L673.57,140.4L653.45,141.66L652.09,141.73L643.03,142.71L643.19,142.91L643.46,143.01L649.23,143.82L650.28,143.91L669,145.14L666.03,145.52L665.65,145.57L626.67,149.87L626.56,149.94L625.25,150.94L624.94,150.95L597.05,151.75L596,151.77L589.97,152.1L593.38,152.53L594.21,152.6L618.83,155.37L618.81,155.45L617.31,156.58L617.14,156.64L613.02,157.17L612.54,157.19L598.53,158.47L598.1,158.55L581.85,160.77L581.8,160.75L578.3,161.2L577.63,161.28L555.36,162.97L553.85,163.06L536.36,164.32L537.71,164.62L538.16,164.67L553.28,166.24L553.37,166.31L554.33,167.04L553.54,167.18L553.32,167.2L545.4,168.26L545.05,168.35L534.05,170.8L533.73,170.86L527.59,171.56L527.43,171.54L525.66,172.05L525.64,172.13L524.78,173L524.56,173.05L518.69,173.21L517.82,173.21L492.59,173.63L491.48,173.71L482.67,175.03L482.71,175.09L482.82,175.15L486.26,175.34L486.95,175.33L505.96,175.47L506.18,175.55L506.65,176.06L506.34,176.38L506.22,176.45L503.34,177.1L503.17,177.12L489.29,178.57L488.9,178.57L476.97,179.32L476.69,179.37L467.01,180.4L466.6,180.37L460.04,180.56L459.64,180.63L449.61,181.82L449.03,181.85L435.87,183.42L435.03,183.55L424.31,184.93L428.26,185.05L428.89,185.07L446.32,186.33L446.66,186.4L448.78,187.32L448.54,187.55L448.41,187.6L444.69,188.07L444.34,188.1L439.52,189.22L439.39,189.32L436.62,190.62L436.29,190.68L414.23,194.27L414,194.31L405.34,196.86L405.33,196.89L404.21,197.35L404.01,197.37L396.86,197.64L396.22,197.66L363.85,198.89L363.45,198.97L362.27,199.42L363.55,199.64L363.93,199.64L381.56,199.36L381.9,199.42L384.36,199.99L381.19,199.99L380.8,200L372.55,200.91L372.27,200.98L365.75,201.96L365.36,201.94L354.47,202.33L354.27,202.36L341.96,205.36L341.83,205.44L339.66,205.96L339.53,205.92L335.98,205.43L335.72,205.48L324.82,207.89L324.34,207.93L300.08,209.58L299.69,209.56L292.32,209.89L292.28,209.95L293.17,210.5L293.42,210.56L299.01,211.09L299.34,211.09L305.56,211.33L305.72,211.42L306.45,212.39L306.3,212.54L306.19,212.61L303.18,213.16L302.83,213.18L292.76,214.12L292.55,214.23L286.63,216.52L286.4,216.54L274.63,218.17L274.33,218.24L258.93,221.12L258.58,221.14L248.55,222.16L248.47,222.24L246.43,223.42L246.27,223.43L232.62,224.31L232.41,224.4L227.17,226.21L226.94,226.22L223.36,227.09L223.25,227.19L220.77,228.41L220.4,228.51L214.57,229.3L213.89,229.35L192.26,231.1L191.82,231.21L181.96,232.99L181.62,233.02L174.2,234.39L174.13,234.48L174.41,235.37L174.54,235.44L177.93,236.12L178.22,236.15L184.8,237.28L184.88,237.35L187,239.33L186.18,239.39L185.99,239.43L175.98,241.2L175.56,241.22L162.73,241.9L162.6,242.01L159.64,243.48L159.61,243.47L158.03,244.11L157.89,244.21L154.32,245.62L154.03,245.66L141.66,246.15L141.24,246.14L133.78,246.58L133.57,246.69L128.72,249.11L128.57,249.11L125.63,249.21L125.72,249.63L125.74,249.7L125.11,251L125.04,251.06L123.34,251.92L123.24,251.96L116.45,254.87L116.13,254.93L104.27,256.03L104.13,256.03L101.29,256.85L101.1,256.95L96.04,259.14L95.99,259.09L95.61,258.53L95.22,259.15L95.15,259.24L93.9,259.92L93.8,259.77L93.79,259.7L94.21,258.67L94.25,260.23L93.74,260.14L93.63,260.13L90.37,259.11L90.23,259.04L87.79,258.69L87.55,258.72L79.08,259.68L78.88,259.68L73.26,259.01L73.01,258.94L69.41,258.81L69.22,258.86L65.35,259.57L65.18,259.53L57.83,257.66L57.73,257.6L55.87,257.5L55.71,257.54L50.99,258.05L50.82,258.06L48.05,257.37L47.97,257.32L46.55,257.23L46.45,257.27L43.97,257.86L43.84,257.85L41.25,257.35L41.18,257.29L39.86,257.19L39.78,257.26L37.53,258.48L37.37,258.47L34.82,258.72L34.77,258.81L33.56,259.57L33.48,259.55L32.02,258.59L31.96,258.48L31.13,257.45L30.85,257.77L30.8,257.85L29.34,258.7L29.3,258.7L28.36,257.64L28.35,257.58L28.42,257.25L27.69,257.85L27.6,257.89L26.83,258.06L26.65,257.51L26.59,257.44L25.27,256.1L25.13,256.8L25.12,256.88L24.94,257.39L24.41,257.1L24.34,257.07L23.42,256.05L23.43,255.95L23.78,255.08L22.78,256.71L22.75,256.69L22.71,256.68L21.61,254.74L21.35,255.36L21.32,255.43L20.76,256.11L20.46,255.91L20.4,255.85L20.32,254.58L19.95,255.27L19.9,255.34L19.4,255.74L19.14,255.5L19.09,255.45L18.75,254.52L18.72,255.83L18.62,255.75L18.58,255.72L17.66,255.27L18.02,254.76L18.05,254.7L17.97,254.29L17.31,254.66L17.27,254.73L17.38,255.62L16.8,255L16.79,254.93L16.47,254.32L16.85,256.06L16.05,255.07L16.02,255.04L15.57,254.87L15.81,255.72L15.62,255.67L15.58,255.65L14.6,254.39L14.59,254.31L15.17,255.58L14.33,253.34L14.29,253.36L13.75,254.52L13.94,254.63L13.98,254.65L14.24,254.76L13.67,253.66L13.67,253.63L13.75,254.73L13.52,254.67L13.49,254.65L13,253.66L12.76,254.44L12.75,254.48L12.52,253.4L12.54,253.33L12.96,252.92L11.92,254.44L12.27,253.52L12.23,253.48L11.81,253.57L11.74,254.04L11.76,254.13L12.28,255.02L11.52,254.88L11.46,254.88L11.27,254.88L11.96,254.18L12,254.11L12.09,253.79L11.49,254.52L11.41,253.64L11.39,253.59L11.11,253.35L11.34,254.82L11.32,254.84L10.14,254.66L10.42,254.18L10.47,254.1L11.01,253.01L10.63,254.6L10.64,253.43L10.65,253.39L10.14,254.77L10.1,254.79L9.95,254.97L10.46,254.32L10.47,254.21L10.39,253.35L9.95,255.1L9.77,254.62L9.74,254.66L9.23,255.4L9.92,254.64L9.77,254.57L9.69,254.54L8.91,255.06L8.9,255.17L9.32,256.52L9.28,254.88L8.85,255.12L8.82,255.07L8.65,253.74L8.52,254.89L8.48,254.91L8.32,254.95L8.9,254.8L8.82,254.51L8.8,254.45L8.58,254.11L8.72,256.05L8.68,256.07L8.31,256.04L8.36,255.43L8.38,255.35L8.72,254.58L8.43,255.67L8.08,254.54L8.05,254.47L7.94,254.25L8.15,255.87L7.86,255.57L7.87,255.64L7.75,255L7.12,256.64L7.1,256.65L7.36,255.38L7.33,255.29L6.74,253.29L6.43,253.67L6.4,253.75L6.96,254.81L7.01,254.82L7.22,254.77L6.46,254.22L6.47,254.14L6.49,254.09L6.67,254.78L6.97,253.65L6.74,253.55L6.67,253.54L5.8,254.2L5.79,254.3L6.56,255.23L6.67,255.26L7.4,254.93L7.19,254.54L7.13,254.49L6.63,254.16L6.96,253.59L6.99,253.53L7.03,253.24L7.07,255.05L6.51,254.35L6.45,254.3L6.08,254.21L6.16,254.96L6.21,255.06L6.88,255.77L6.19,254.35L6.2,255.6L6.18,255.61L5.98,254.64L6.74,255.9L6.25,255.94L6.21,255.96L6.83,255.49L5.22,256.65L5.37,256.81L5.44,256.86L6.75,256.93L6.57,256.56L6.52,256.5L6.01,255.19L6.31,255.36L6.33,255.3L6.41,255L5.95,256.11L5.67,254.96L5.67,254.92L5.93,254.72L5.89,256.19L5.93,256.27L6.08,256.74L5.24,255.43L5.13,255.43L4.61,255.68L5.14,256.18L5.3,256.25L7.8,256.51L7.81,256.46L6.43,255.88L6.28,255.85L5.27,255.75L5.67,255.89L5.66,255.92L5.45,255.84L5.68,255.22L5.68,255.12L5.62,253.72L5.32,259.3L5.29,259.38L5.88,260.2L5.92,260.24L5.89,261.5L5.86,261.61L5.18,266.58L5.19,266.6L5.48,268.01L5.47,268.12L4.96,274.33L4.99,274.43L5.04,276.27L5,276.38L4.76,278.87L4.8,279L5.08,281.2L5.07,281.31L5.23,283.09L5.23,283.22L5.34,286.91L5.37,287.03L4.94,288.99L4.94,289.11L4.45,293.18L4.39,293.31L4.35,295.1L4.41,295.2L4.91,296.24L4.95,296.38L5.21,299.19L5.13,299.21L5.1,299.21L4.79,300.15L4.77,300.28L5.23,302.69L5.26,302.7L5.07,302.28L5.03,303.68L5.03,303.81L4.88,310.25L4.66,310.23L4.63,310.25L4.43,312.02L4.45,312.17L4.43,317.25L4.4,317.32L4.09,321.81L4.13,321.93L4.48,326.3L4.46,326.36L4.54,335.43L4.55,335.61L4.04,351.38L3.99,351.44L4.38,354.15L4.39,354.19L3.96,362.54L3.92,362.6L3.6,368.83L3.62,368.87L3.54,372.17L3.52,372.24L2.28,382.4L2.14,382.4L2.08,382.39L2.11,381.79L4.94,388.21L5.01,388.21L3.65,387.32L3.85,391.78L3.58,391.81L3.57,391.83L2.77,400.81L3.02,400.69" style="vector-effect: none; fill: none; stroke: rgb(99, 110, 250); stroke-opacity: 1; stroke-width: 2px; opacity: 1;"/></g><g class="points"/><g class="text"/></g><g class="trace scatter traceccb7da" style="stroke-miterlimit: 2; opacity: 1;"><g class="fills"/><g class="errorbars"/><g class="lines"><path class="js-line" d="M0,274.21L169.85,59.28L207.43,67.33L272.35,72.7L399.91,80.16L776.92,90.9" style="vector-effect: none; fill: none; stroke: rgb(239, 85, 59); stroke-opacity: 1; stroke-width: 2px; opacity: 1;"/></g><g class="points"><path class="point" transform="translate(0,274.21)" d="M3,0A3,3 0 1,1 0,-3A3,3 0 0,1 3,0Z" style="opacity: 1; stroke-width: 0px; fill: rgb(239, 85, 59); fill-opacity: 1;"/><path class="point" transform="translate(169.85,59.28)" d="M3,0A3,3 0 1,1 0,-3A3,3 0 0,1 3,0Z" style="opacity: 1; stroke-width: 0px; fill: rgb(239, 85, 59); fill-opacity: 1;"/><path class="point" transform="translate(207.43,67.33)" d="M3,0A3,3 0 1,1 0,-3A3,3 0 0,1 3,0Z" style="opacity: 1; stroke-width: 0px; fill: rgb(239, 85, 59); fill-opacity: 1;"/><path class="point" transform="translate(272.35,72.7)" d="M3,0A3,3 0 1,1 0,-3A3,3 0 0,1 3,0Z" style="opacity: 1; stroke-width: 0px; fill: rgb(239, 85, 59); fill-opacity: 1;"/><path class="point" transform="translate(399.91,80.16)" d="M3,0A3,3 0 1,1 0,-3A3,3 0 0,1 3,0Z" style="opacity: 1; stroke-width: 0px; fill: rgb(239, 85, 59); fill-opacity: 1;"/><path class="point" transform="translate(776.92,90.9)" d="M3,0A3,3 0 1,1 0,-3A3,3 0 0,1 3,0Z" style="opacity: 1; stroke-width: 0px; fill: rgb(239, 85, 59); fill-opacity: 1;"/></g><g class="text"/></g><g class="trace scatter trace84a45f" style="stroke-miterlimit: 2; opacity: 1;"><g class="fills"/><g class="errorbars"/><g class="lines"><path class="js-line" d="M0,258.43L0,151.98L110.86,178.18L180.93,36.96L220.3,46.58L288.32,53.42L420.68,63.47L814.17,76L884.65,47.81" style="vector-effect: none; fill: none; stroke: rgb(0, 204, 150); stroke-opacity: 1; stroke-width: 2px; opacity: 1;"/></g><g class="points"><path class="point" transform="translate(0,258.43)" d="M3,0A3,3 0 1,1 0,-3A3,3 0 0,1 3,0Z" style="opacity: 1; stroke-width: 0px; fill: rgb(0, 204, 150); fill-opacity: 1;"/><path class="point" transform="translate(0,251.86)" d="M3,0A3,3 0 1,1 0,-3A3,3 0 0,1 3,0Z" style="opacity: 1; stroke-width: 0px; fill: rgb(0, 204, 150); fill-opacity: 1;"/><path class="point" transform="translate(0,151.98)" d="M3,0A3,3 0 1,1 0,-3A3,3 0 0,1 3,0Z" style="opacity: 1; stroke-width: 0px; fill: rgb(0, 204, 150); fill-opacity: 1;"/><path class="point" transform="translate(110.86,178.18)" d="M3,0A3,3 0 1,1 0,-3A3,3 0 0,1 3,0Z" style="opacity: 1; stroke-width: 0px; fill: rgb(0, 204, 150); fill-opacity: 1;"/><path class="point" transform="translate(180.93,36.96)" d="M3,0A3,3 0 1,1 0,-3A3,3 0 0,1 3,0Z" style="opacity: 1; stroke-width: 0px; fill: rgb(0, 204, 150); fill-opacity: 1;"/><path class="point" transform="translate(220.3,46.58)" d="M3,0A3,3 0 1,1 0,-3A3,3 0 0,1 3,0Z" style="opacity: 1; stroke-width: 0px; fill: rgb(0, 204, 150); fill-opacity: 1;"/><path class="point" transform="translate(288.32,53.42)" d="M3,0A3,3 0 1,1 0,-3A3,3 0 0,1 3,0Z" style="opacity: 1; stroke-width: 0px; fill: rgb(0, 204, 150); fill-opacity: 1;"/><path class="point" transform="translate(420.68,63.47)" d="M3,0A3,3 0 1,1 0,-3A3,3 0 0,1 3,0Z" style="opacity: 1; stroke-width: 0px; fill: rgb(0, 204, 150); fill-opacity: 1;"/><path class="point" transform="translate(814.17,76)" d="M3,0A3,3 0 1,1 0,-3A3,3 0 0,1 3,0Z" style="opacity: 1; stroke-width: 0px; fill: rgb(0, 204, 150); fill-opacity: 1;"/><path class="point" transform="translate(884.65,47.81)" d="M3,0A3,3 0 1,1 0,-3A3,3 0 0,1 3,0Z" style="opacity: 1; stroke-width: 0px; fill: rgb(0, 204, 150); fill-opacity: 1;"/></g><g class="text"/></g><g class="trace scatter trace10397a" style="stroke-miterlimit: 2; opacity: 1;"><g class="fills"/><g class="errorbars"/><g class="lines"><path class="js-line" d="M0,401.63L181.71,38.25" style="vector-effect: none; fill: none; stroke: rgb(128, 128, 128); stroke-opacity: 1; stroke-dasharray: 9px, 9px; stroke-width: 2px; opacity: 1;"/></g><g class="points"/><g class="text"/></g><g class="trace scatter tracecd8e48" style="stroke-miterlimit: 2; opacity: 1;"><g class="fills"/><g class="errorbars"/><g class="lines"><path class="js-line" d="M0,401.63L908.56,38.25" style="vector-effect: none; fill: none; stroke: rgb(128, 128, 128); stroke-opacity: 1; stroke-dasharray: 9px, 9px; stroke-width: 2px; opacity: 1;"/></g><g class="points"/><g class="text"/></g><g class="trace scatter trace104fdf" style="stroke-miterlimit: 2; opacity: 1;"><g class="fills"/><g class="errorbars"/><g class="lines"><path class="js-line" d="M0,47.81L908.56,47.81" style="vector-effect: none; fill: none; stroke: rgb(255, 0, 0); stroke-opacity: 1; stroke-dasharray: 9px, 9px; stroke-width: 2px; opacity: 1;"/></g><g class="points"/><g class="text"/></g></g></g><g class="x2y" transform="translate(80,100)" clip-path="url(#clip06be4bx2yplot)"><g class="scatterlayer mlayer"><g class="trace scatter trace3dc88a" style="stroke-miterlimit: 2; opacity: 1;"><g class="fills"/><g class="errorbars"/><g class="lines"><path class="js-line" d="M0,229.5L908.56,229.5" style="vector-effect: none; fill: none; stroke: rgb(128, 128, 128); stroke-opacity: 1; stroke-dasharray: 9px, 9px; stroke-width: 2px; opacity: 1;"/></g><g class="points"/><g class="text"/></g></g></g></g><path class="xlines-above crisp" d="M0,0" style="fill: none;"/><path class="ylines-above crisp" d="M0,0" style="fill: none;"/><g class="overlines-above"><path class="x2y-x crisp" d="M0,0" style="fill: none;"/><path class="x2y-y crisp" d="M0,0" style="fill: none;"/></g><g class="xaxislayer-above"><g class="xtick"><text text-anchor="middle" x="0" y="419" transform="translate(80,0)" style="font-family: 'Open Sans', verdana, arial, sans-serif; font-size: 12px; fill: rgb(42, 63, 95); fill-opacity: 1; white-space: pre; opacity: 1;">0</text></g><g class="xtick"><text text-anchor="middle" x="0" y="419" style="font-family: 'Open Sans', verdana, arial, sans-serif; font-size: 12px; fill: rgb(42, 63, 95); fill-opacity: 1; white-space: pre; opacity: 1;" transform="translate(271.66999999999996,0)">1000</text></g><g class="xtick"><text text-anchor="middle" x="0" y="419" style="font-family: 'Open Sans', verdana, arial, sans-serif; font-size: 12px; fill: rgb(42, 63, 95); fill-opacity: 1; white-space: pre; opacity: 1;" transform="translate(463.33,0)">2000</text></g><g class="xtick"><text text-anchor="middle" x="0" y="419" style="font-family: 'Open Sans', verdana, arial, sans-serif; font-size: 12px; fill: rgb(42, 63, 95); fill-opacity: 1; white-space: pre; opacity: 1;" transform="translate(655,0)">3000</text></g><g class="xtick"><text text-anchor="middle" x="0" y="419" style="font-family: 'Open Sans', verdana, arial, sans-serif; font-size: 12px; fill: rgb(42, 63, 95); fill-opacity: 1; white-space: pre; opacity: 1;" transform="translate(846.67,0)">4000</text></g></g><g class="yaxislayer-above"><g class="ytick"><text text-anchor="end" x="79" y="4.199999999999999" transform="translate(0,406)" style="font-family: 'Open Sans', verdana, arial, sans-serif; font-size: 12px; fill: rgb(42, 63, 95); fill-opacity: 1; white-space: pre; opacity: 1;">1000</text></g><g class="ytick"><text text-anchor="end" x="79" y="4.199999999999999" style="font-family: 'Open Sans', verdana, arial, sans-serif; font-size: 12px; fill: rgb(42, 63, 95); fill-opacity: 1; white-space: pre; opacity: 1;" transform="translate(0,358.19)">1500</text></g><g class="ytick"><text text-anchor="end" x="79" y="4.199999999999999" style="font-family: 'Open Sans', verdana, arial, sans-serif; font-size: 12px; fill: rgb(42, 63, 95); fill-opacity: 1; white-space: pre; opacity: 1;" transform="translate(0,310.38)">2000</text></g><g class="ytick"><text text-anchor="end" x="79" y="4.199999999999999" style="font-family: 'Open Sans', verdana, arial, sans-serif; font-size: 12px; fill: rgb(42, 63, 95); fill-opacity: 1; white-space: pre; opacity: 1;" transform="translate(0,262.56)">2500</text></g><g class="ytick"><text text-anchor="end" x="79" y="4.199999999999999" style="font-family: 'Open Sans', verdana, arial, sans-serif; font-size: 12px; fill: rgb(42, 63, 95); fill-opacity: 1; white-space: pre; opacity: 1;" transform="translate(0,214.75)">3000</text></g><g class="ytick"><text text-anchor="end" x="79" y="4.199999999999999" style="font-family: 'Open Sans', verdana, arial, sans-serif; font-size: 12px; fill: rgb(42, 63, 95); fill-opacity: 1; white-space: pre; opacity: 1;" transform="translate(0,166.94)">3500</text></g><g class="ytick"><text text-anchor="end" x="79" y="4.199999999999999" style="font-family: 'Open Sans', verdana, arial, sans-serif; font-size: 12px; fill: rgb(42, 63, 95); fill-opacity: 1; white-space: pre; opacity: 1;" transform="translate(0,119.13)">4000</text></g></g><g class="overaxes-above"><g class="x2y-x"><g class="x2tick"><text text-anchor="middle" x="0" y="96.6" transform="translate(80,0)" style="font-family: 'Open Sans', verdana, arial, sans-serif; font-size: 12px; fill: rgb(42, 63, 95); fill-opacity: 1; white-space: pre; opacity: 1;">0</text></g><g class="x2tick"><text text-anchor="middle" x="0" y="96.6" style="font-family: 'Open Sans', verdana, arial, sans-serif; font-size: 12px; fill: rgb(42, 63, 95); fill-opacity: 1; white-space: pre; opacity: 1;" transform="translate(271.66999999999996,0)">10</text></g><g class="x2tick"><text text-anchor="middle" x="0" y="96.6" style="font-family: 'Open Sans', verdana, arial, sans-serif; font-size: 12px; fill: rgb(42, 63, 95); fill-opacity: 1; white-space: pre; opacity: 1;" transform="translate(463.33,0)">19</text></g><g class="x2tick"><text text-anchor="middle" x="0" y="96.6" style="font-family: 'Open Sans', verdana, arial, sans-serif; font-size: 12px; fill: rgb(42, 63, 95); fill-opacity: 1; white-space: pre; opacity: 1;" transform="translate(655,0)">29</text></g><g class="x2tick"><text text-anchor="middle" x="0" y="96.6" style="font-family: 'Open Sans', verdana, arial, sans-serif; font-size: 12px; fill: rgb(42, 63, 95); fill-opacity: 1; white-space: pre; opacity: 1;" transform="translate(846.67,0)">39</text></g></g><g class="x2y-y"/></g></g><g class="subplot x2y"/></g><g class="polarlayer"/><g class="smithlayer"/><g class="ternarylayer"/><g class="geolayer"/><g class="funnelarealayer"/><g class="pielayer"/><g class="iciclelayer"/><g class="treemaplayer"/><g class="sunburstlayer"/><g class="glimages"/><defs id="topdefs-06be4b"><g class="clips"/><clipPath id="legend06be4b"><rect width="826" height="53" x="0" y="0"/></clipPath></defs><g class="layer-above"><g class="imagelayer"/><g class="shapelayer"/></g><g class="infolayer"><g class="legend" pointer-events="all" transform="translate(127,475.4)"><rect class="bg" shape-rendering="crispEdges" style="stroke: rgb(68, 68, 68); stroke-opacity: 1; fill: rgb(255, 255, 255); fill-opacity: 1; stroke-width: 0px;" width="826" height="53" x="0" y="0"/><g class="scrollbox" transform="" clip-path="url(#legend06be4b)"><g class="groups"><g class="traces" transform="translate(0,15.6)" style="opacity: 1;"><text class="legendtext" text-anchor="start" x="40" y="5.46" style="font-family: 'Open Sans', verdana, arial, sans-serif; font-size: 14px; fill: rgb(42, 63, 95); fill-opacity: 1; white-space: pre;">Test Data</text><g class="layers" style="opacity: 1;"><g class="legendfill"/><g class="legendlines"><path class="js-line" d="M5,0h30" style="fill: none; stroke: rgb(99, 110, 250); stroke-opacity: 1; stroke-width: 2px;"/></g><g class="legendsymbols"><g class="legendpoints"/></g></g><rect class="legendtoggle" x="0" y="-10.6" width="105.078125" height="21.2" style="fill: rgb(0, 0, 0); fill-opacity: 0;"/></g><g class="traces" transform="translate(228.96875,15.6)" style="opacity: 1;"><text class="legendtext" text-anchor="start" x="40" y="5.46" style="font-family: 'Open Sans', verdana, arial, sans-serif; font-size: 14px; fill: rgb(42, 63, 95); fill-opacity: 1; white-space: pre;">Old Model [(6, 2, 5, 0, 1)-10]</text><g class="layers" style="opacity: 1;"><g class="legendfill"/><g class="legendlines"><path class="js-line" d="M5,0h30" style="fill: none; stroke: rgb(239, 85, 59); stroke-opacity: 1; stroke-width: 2px;"/></g><g class="legendsymbols"><g class="legendpoints"><path class="scatterpts" transform="translate(20,0)" d="M3,0A3,3 0 1,1 0,-3A3,3 0 0,1 3,0Z" style="opacity: 1; stroke-width: 0px; fill: rgb(239, 85, 59); fill-opacity: 1;"/></g></g></g><rect class="legendtoggle" x="0" y="-10.6" width="220.1875" height="21.2" style="fill: rgb(0, 0, 0); fill-opacity: 0;"/></g><g class="traces" transform="translate(457.9375,15.6)" style="opacity: 1;"><text class="legendtext" text-anchor="start" x="40" y="5.46" style="font-family: 'Open Sans', verdana, arial, sans-serif; font-size: 14px; fill: rgb(42, 63, 95); fill-opacity: 1; white-space: pre;">New Model [(6, 2, 5, 0, 1)-10]</text><g class="layers" style="opacity: 1;"><g class="legendfill"/><g class="legendlines"><path class="js-line" d="M5,0h30" style="fill: none; stroke: rgb(0, 204, 150); stroke-opacity: 1; stroke-width: 2px;"/></g><g class="legendsymbols"><g class="legendpoints"><path class="scatterpts" transform="translate(20,0)" d="M3,0A3,3 0 1,1 0,-3A3,3 0 0,1 3,0Z" style="opacity: 1; stroke-width: 0px; fill: rgb(0, 204, 150); fill-opacity: 1;"/></g></g></g><rect class="legendtoggle" x="0" y="-10.6" width="226.46875" height="21.2" style="fill: rgb(0, 0, 0); fill-opacity: 0;"/></g><g class="traces" transform="translate(686.90625,15.6)" style="opacity: 1;"><text class="legendtext" text-anchor="start" x="40" y="5.46" style="font-family: 'Open Sans', verdana, arial, sans-serif; font-size: 14px; fill: rgb(42, 63, 95); fill-opacity: 1; white-space: pre;">Low gear ratio</text><g class="layers" style="opacity: 1;"><g class="legendfill"/><g class="legendlines"><path class="js-line" d="M5,0h30" style="fill: none; stroke: rgb(128, 128, 128); stroke-opacity: 1; stroke-dasharray: 9px, 9px; stroke-width: 2px;"/></g><g class="legendsymbols"><g class="legendpoints"/></g></g><rect class="legendtoggle" x="0" y="-10.6" width="135.859375" height="21.2" style="fill: rgb(0, 0, 0); fill-opacity: 0;"/></g><g class="traces" transform="translate(0,36.8)" style="opacity: 1;"><text class="legendtext" text-anchor="start" x="40" y="5.46" style="font-family: 'Open Sans', verdana, arial, sans-serif; font-size: 14px; fill: rgb(42, 63, 95); fill-opacity: 1; white-space: pre;">High gear ratio</text><g class="layers" style="opacity: 1;"><g class="legendfill"/><g class="legendlines"><path class="js-line" d="M5,0h30" style="fill: none; stroke: rgb(128, 128, 128); stroke-opacity: 1; stroke-dasharray: 9px, 9px; stroke-width: 2px;"/></g><g class="legendsymbols"><g class="legendpoints"/></g></g><rect class="legendtoggle" x="0" y="-10.6" width="139.375" height="21.2" style="fill: rgb(0, 0, 0); fill-opacity: 0;"/></g><g class="traces" transform="translate(228.96875,36.8)" style="opacity: 1;"><text class="legendtext" text-anchor="start" x="40" y="5.46" style="font-family: 'Open Sans', verdana, arial, sans-serif; font-size: 14px; fill: rgb(42, 63, 95); fill-opacity: 1; white-space: pre;">Governor</text><g class="layers" style="opacity: 1;"><g class="legendfill"/><g class="legendlines"><path class="js-line" d="M5,0h30" style="fill: none; stroke: rgb(255, 0, 0); stroke-opacity: 1; stroke-dasharray: 9px, 9px; stroke-width: 2px;"/></g><g class="legendsymbols"><g class="legendpoints"/></g></g><rect class="legendtoggle" x="0" y="-10.6" width="104.7802734375" height="21.2" style="fill: rgb(0, 0, 0); fill-opacity: 0;"/></g><g class="traces" transform="translate(457.9375,36.8)" style="opacity: 1;"><text class="legendtext" text-anchor="start" x="40" y="5.46" style="font-family: 'Open Sans', verdana, arial, sans-serif; font-size: 14px; fill: rgb(42, 63, 95); fill-opacity: 1; white-space: pre;">Idle</text><g class="layers" style="opacity: 1;"><g class="legendfill"/><g class="legendlines"><path class="js-line" d="M5,0h30" style="fill: none; stroke: rgb(128, 128, 128); stroke-opacity: 1; stroke-dasharray: 9px, 9px; stroke-width: 2px;"/></g><g class="legendsymbols"><g class="legendpoints"/></g></g><rect class="legendtoggle" x="0" y="-10.6" width="66.5234375" height="21.2" style="fill: rgb(0, 0, 0); fill-opacity: 0;"/></g></g></g><rect class="scrollbar" rx="20" ry="3" width="0" height="0" style="fill: rgb(128, 139, 164); fill-opacity: 1;" x="0" y="0"/></g><g class="g-gtitle"><text class="gtitle" x="540" y="27" text-anchor="middle" dy="0.7em" style="opacity: 1; font-family: 'Open Sans', verdana, arial, sans-serif; font-size: 17px; fill: rgb(42, 63, 95); fill-opacity: 1; white-space: pre;">Speed - Speed Diagram [62501-10]</text></g><g class="g-xtitle"><text class="xtitle" x="540" y="447.3" text-anchor="middle" style="opacity: 1; font-family: 'Open Sans', verdana, arial, sans-serif; font-size: 14px; fill: rgb(42, 63, 95); fill-opacity: 1; white-space: pre;">Secondary Speed [RPM]</text></g><g class="g-x2title"><text class="x2title" x="540" y="64.199609375" text-anchor="middle" style="opacity: 1; font-family: 'Open Sans', verdana, arial, sans-serif; font-size: 14px; fill: rgb(42, 63, 95); fill-opacity: 1; white-space: pre;">Vehicle Speed (km/h)</text></g><g class="g-ytitle"><text class="ytitle" transform="rotate(-90,31.146875,253)" x="31.146875" y="253" text-anchor="middle" style="opacity: 1; font-family: 'Open Sans', verdana, arial, sans-serif; font-size: 14px; fill: rgb(42, 63, 95); fill-opacity: 1; white-space: pre;">Engine/Primary Speed [RPM]</text></g></g></svg>